<?xml version="1.0" encoding="utf-8"?>
<!-- Generator: Adobe Illustrator 19.0.0, SVG Export Plug-In . SVG Version: 6.00 Build 0)  -->
<svg version="1.1" id="Layer_1" xmlns="http://www.w3.org/2000/svg" xmlns:xlink="http://www.w3.org/1999/xlink" x="0px" y="0px"
	 viewBox="0 0 216 144" style="enable-background:new 0 0 216 144;" xml:space="preserve">
<style type="text/css">
	.Harmony_x0020_Collage{fill:url(#);}
	.Thick_x0020_Aqua_x0020_Neon{fill:none;stroke:#7ED1E2;stroke-width:7;stroke-linecap:round;stroke-linejoin:round;}
	.Embossed_x0020_Blind{fill:none;stroke:#E0CEC3;stroke-width:2;}
	.Drop_x0020_Shadow_x0020_Soft{fill:#7DABD1;}
	.Chiseled{opacity:0.7;fill:#34AB49;stroke:#2A7238;stroke-width:5;}
	.st0{fill:#E82430;}
	.st1{fill:#FFFFFF;}
</style>
<g>
	<g>
		<path d="M100.405,81.195c-1.853,1.242-4.266,1.685-6.501,1.685c-6.471,0-10.356-4.106-10.356-10.574
			c0-6.646,4.886-10.429,11.089-10.429c2.15,0,4.356,0.503,6.325,1.36c-0.293,0.737-0.47,1.507-0.616,2.274l-0.206,0.029
			C99.729,65.011,97.551,63,94.522,63c-5.415,0-8.09,4.401-8.09,9.424c0,5.672,3.237,9.305,7.884,9.305
			c3.176,0,5.649-1.891,6.236-2.393L100.405,81.195"/>
		<path d="M121.201,82.527c-0.558-0.029-1.029-0.09-1.527-0.09c-0.561,0-1.06,0.061-1.56,0.09c-0.853-2.453-1.913-5.287-3.087-7.977
			h-7.472c-1.029,2.599-2.088,5.199-2.913,7.977c-0.411-0.029-0.735-0.09-1.088-0.09c-0.383,0-0.707,0.061-1.031,0.09l9.178-20.65
			h0.677L121.201,82.527 M111.319,65.749l-3.207,7.562h6.471L111.319,65.749z"/>
		<path d="M126.879,81.05c1.793,0.06,3.56-0.061,5.322-0.12c0.943-0.028,1.855-0.147,2.796-0.264c-0.03,0.324-0.09,0.591-0.09,0.887
			c0,0.297,0.059,0.589,0.09,0.885H124.29V62.321c0.414,0.03,0.854,0.089,1.296,0.089c0.411,0,0.823-0.059,1.293-0.089V81.05"/>
		<path d="M154.47,65.866c-1.648-1.891-4.117-2.866-6.618-2.866c-5.001,0-8.472,3.309-8.472,9.275c0,5.85,3.002,9.483,8.796,9.483
			c1.588,0,3.236-0.296,4.59-1.004v-7.592c0.412,0.031,0.852,0.089,1.294,0.089c0.411,0,0.823-0.058,1.295-0.089v8.36
			c-2.562,0.885-5.268,1.359-8.002,1.359c-7.443,0-10.854-4.46-10.854-10.456c0-6.912,4.942-10.547,11.471-10.547
			c4.384,0,6.853,1.302,7.501,1.713c-0.264,0.74-0.47,1.507-0.677,2.275H154.47"/>
		<path d="M176.649,82.527c-0.559-0.029-1.029-0.09-1.527-0.09c-0.562,0-1.061,0.061-1.559,0.09
			c-0.854-2.453-1.912-5.287-3.089-7.977H163c-1.029,2.599-2.089,5.199-2.911,7.977c-0.412-0.029-0.736-0.09-1.089-0.09
			c-0.383,0-0.706,0.061-1.029,0.09l9.178-20.65h0.676L176.649,82.527 M166.767,65.749l-3.207,7.562h6.47L166.767,65.749z"/>
		<path d="M179.769,62.321h6.234c4.532,0,6.534,1.507,6.534,4.49c0,3.426-3.061,5.082-6.032,5.613l6.059,7.712l1.413,1.653
			l0.559,0.739c-0.618-0.029-1.15-0.09-1.706-0.09c-0.559,0-1.15,0.061-1.678,0.09c-0.646-0.914-1.235-1.745-1.853-2.57l-3.471-4.52
			l-2.355-2.778h-1.118v9.869c-0.469-0.029-0.88-0.09-1.295-0.09c-0.439,0-0.88,0.061-1.292,0.09V62.321 M182.356,71.538
			c0.412,0.029,2.294,0.147,3.797-0.147c2.144-0.445,3.763-1.921,3.763-4.226c0-2.037-1.029-3.366-3.236-3.721
			c-1.087-0.176-3.086-0.089-4.324-0.028V71.538z"/>
		<path d="M204.977,82.527c-0.472-0.029-0.884-0.09-1.295-0.09c-0.44,0-0.883,0.061-1.295,0.09v-8.509l-7.205-11.697
			c0.527,0.03,1.087,0.089,1.645,0.089c0.501,0,1.029-0.059,1.62-0.089c1.147,2.274,4.648,8.478,5.586,9.896
			c1-1.183,4.769-8.33,5.621-9.896c0.353,0.03,0.764,0.089,1.147,0.089c0.353,0,0.735-0.059,1.147-0.089
			c-0.737,0.946-1.44,1.949-2.089,2.954l-3.234,5.229c-0.676,1.034-1.264,2.128-1.648,2.953V82.527"/>
		<path d="M86.816,57.36c-0.162-0.009-0.303-0.031-0.445-0.031c-0.151,0-0.302,0.022-0.443,0.031v-6.461
			c-1.017,0-1.635,0.061-2.208,0.121l0.028-0.303l-0.028-0.304h5.203l-0.031,0.304l0.031,0.303c-0.505-0.06-1.21-0.121-2.108-0.121
			V57.36"/>
		<path d="M95.165,50.413c0.14,0.01,0.291,0.03,0.442,0.03c0.142,0,0.282-0.019,0.444-0.03v6.927
			c-0.162-0.011-0.302-0.03-0.444-0.03c-0.152,0-0.302,0.019-0.442,0.03v-3.483c-0.718-0.021-1.412-0.05-2.117-0.05
			c-0.707,0-1.402,0.03-2.13,0.05v3.483c-0.16-0.011-0.302-0.03-0.441-0.03c-0.154,0-0.305,0.019-0.445,0.03v-6.927
			c0.14,0.01,0.291,0.03,0.445,0.03c0.139,0,0.281-0.019,0.441-0.03v2.905c0.728,0.021,1.432,0.052,2.13,0.052
			c0.706,0,1.399-0.031,2.117-0.052V50.413"/>
		<path d="M98.755,53.43h1.563c0.3,0,0.594-0.04,0.896-0.05l-0.029,0.263l0.029,0.284c-0.302-0.01-0.596-0.051-0.896-0.051h-1.563
			v2.957c0.615,0.021,1.22-0.019,1.825-0.041c0.312-0.009,0.616-0.041,0.926-0.091l-0.028,0.304l0.028,0.304h-3.638v-6.896h3.579
			l-0.03,0.304l0.03,0.303c-0.302-0.06-0.604-0.091-0.907-0.111L99.53,50.89h-0.775V53.43"/>
		<path d="M110.976,56.883c-0.634,0.426-1.462,0.578-2.229,0.578c-2.219,0-3.548-1.408-3.548-3.625c0-2.278,1.674-3.576,3.801-3.576
			c0.737,0,1.491,0.174,2.168,0.467c-0.1,0.254-0.16,0.515-0.211,0.779l-0.071,0.011c-0.142-0.182-0.887-0.871-1.927-0.871
			c-1.855,0-2.773,1.509-2.773,3.23c0,1.944,1.11,3.19,2.702,3.19c1.089,0,1.938-0.647,2.139-0.819L110.976,56.883"/>
		<path d="M112.499,50.413c0.141,0.01,0.292,0.03,0.443,0.03c0.141,0,0.281-0.019,0.445-0.03v6.927
			c-0.163-0.011-0.304-0.03-0.445-0.03c-0.151,0-0.302,0.019-0.443,0.03V50.413"/>
		<path d="M117.639,57.36c-0.161-0.009-0.301-0.031-0.442-0.031c-0.152,0-0.304,0.022-0.444,0.031v-6.461
			c-1.02,0-1.634,0.061-2.207,0.121l0.029-0.303l-0.029-0.304h5.204l-0.032,0.304l0.032,0.303c-0.506-0.06-1.21-0.121-2.11-0.121
			V57.36"/>
		<path d="M123.509,57.34c-0.162-0.011-0.3-0.03-0.444-0.03c-0.151,0-0.303,0.019-0.443,0.03v-2.916l-2.474-4.01
			c0.183,0.01,0.374,0.03,0.568,0.03c0.17,0,0.352-0.019,0.553-0.03c0.394,0.78,1.592,2.905,1.916,3.393
			c0.343-0.407,1.637-2.855,1.929-3.393l0.39,0.03l0.394-0.03c-0.25,0.324-0.494,0.669-0.717,1.012l-1.108,1.793
			c-0.232,0.354-0.434,0.73-0.565,1.012V57.34"/>
		<path d="M129.157,53.876c0-2.218,1.648-3.616,3.73-3.616c1.897,0,3.825,1.035,3.825,3.465c0,2.257-1.594,3.736-3.842,3.736
			C130.64,57.461,129.157,56.042,129.157,53.876 M135.087,51.578c-0.504-0.637-1.291-0.982-2.097-0.982
			c-1.773,0-2.844,1.347-2.844,3.403c0,2.054,1.252,3.129,2.754,3.129c2.125,0,2.893-2.209,2.821-3.322
			C135.721,52.965,135.613,52.256,135.087,51.578z"/>
		<path d="M138.03,50.413h3.583l-0.03,0.304l0.03,0.303c-0.304-0.06-0.607-0.091-0.907-0.111l-1.01-0.019h-0.776v2.54h1.563
			c0.302,0,0.592-0.04,0.895-0.05l-0.029,0.263l0.029,0.284c-0.303-0.01-0.593-0.051-0.895-0.051h-1.563v3.464
			c-0.162-0.011-0.303-0.03-0.444-0.03c-0.149,0-0.303,0.019-0.446,0.03V50.413"/>
		<polyline class="st0" points="83.469,88.468 204.969,88.468 204.969,88.909 83.469,88.909 		"/>
	</g>
	<g>
		<path d="M26.308,60.42l-0.333,0.147l-0.04,0.443l0.071,0.012l0.078-0.194c0.03-0.261,0.181,0.051,0.297-0.003l0.143-0.264
			L26.308,60.42"/>
		<path d="M39.875,34.245l-0.129,12.87l0.41,0.093l0.06-0.114l1.495-10.927l0.428,0.041l-0.052,0.49L40.624,47.25
			c0.152,0.058,0.309,0.121,0.501,0.123l3.102-10.623l0.744-2.577l0.436,0.126L41.56,47.46l0.347,0.196h0.057l4.42-10.266
			l0.19-0.151l0.306,0.149l-0.187,0.482l-4.32,9.942v0.044l0.445,0.222l0.407-0.618l6.95-11.132l0.389,0.208L43.22,48.294
			c0.038,0.162,0.269,0.223,0.381,0.343l0.358-0.394l6.869-8.601l0.336,0.223v0.056l-7.219,8.943l0.298,0.335l0.12-0.078
			l10.063-9.759c0.097,0.094,0.324,0.192,0.295,0.368l-10.169,9.783c0.082,0.162,0.242,0.299,0.346,0.439l0.383-0.25l9.023-6.96
			l0.248,0.311l-0.228,0.217l-9.183,7.004c0.046,0.172,0.154,0.33,0.274,0.465l12.344-7.493l0.25,0.361l-11.924,7.204l-0.485,0.319
			l0.164,0.364l5.693-2.246c0.239-0.37,0.614-0.725,0.957-1.038l0.045,0.06c-0.027,0.207-0.03,0.354-0.03,0.557
			c0.358-0.089,0.729-0.239,1.078-0.387c0.986-1.809,2.583-3.717,4.639-4.202c-0.175,0.488-0.381,0.97-0.448,1.504
			c0.015,0.185-0.106,0.332-0.068,0.489c1.56-0.799,3.768-0.69,5.172,0.37c0.497,0.497,1.087,0.786,1.675,1.044
			c0.336,0.089,0.74,0.183,1.078,0.114l0.042,0.043c-0.374,0.498-0.878,0.872-1.356,1.215c0.948,0.821,1.078,1.978,1.254,3.09
			c0.214,0.385,0.381,0.789,0.757,1.08l0.215,0.165l-0.057,0.139c-0.617,0.132-1.304,0.008-1.859-0.21
			c-0.804,0.948-1.841,1.586-2.972,1.842c-0.44,0.087-0.876,0.185-1.341,0.211c0.143,0.177,0.394,0.254,0.582,0.431
			c0.471,0.345,0.93,0.794,1.248,1.286c0.53,0.547,0.757,1.217,0.836,1.942c0.032,0.275-0.116,0.559-0.355,0.685
			c-0.164-0.004-0.267-0.159-0.393-0.236c0.629,1.503,1.141,3.109,1.379,4.797c0.361,2.587,0.938,5.095,2.563,7.165
			c0.367,0.42,0.938,0.51,1.428,0.694c0.924,0.205,1.847,0.61,2.452,1.451c0.457-0.576,0.539-1.592,0.199-2.252
			c-0.463-1.008-1.464-1.708-2.275-2.504c-1.558-1.442-3.292-3.061-2.918-5.362c0.176-1.036,1.054-2.202,2.126-2.412
			c1.398-0.341,2.677,0.31,3.613,1.351c0.958,1.099,1.465,2.372,1.948,3.672c0.614,0.32,1.311,0.498,1.722,1.141
			c0.381,0.439,0.457,1.012,0.387,1.579c-0.089,0.268-0.175,0.529-0.207,0.827l-0.154-0.297c-0.062,0.619-0.479,1.111-0.955,1.516
			c-0.155,0.214-0.275,0.457-0.322,0.73l-0.132-0.174c-0.064-0.391-0.025-0.789,0.179-1.123c-0.03-0.344-0.112-0.732-0.318-1.033
			c-0.194,0.537-0.426,1.156-1.013,1.442c0.381,0.828,0.451,1.96,0.154,2.871c-0.245,0.632-0.535,1.287-1.132,1.758
			c0.174,2.411-0.998,4.371-2.518,6.136c-0.214,1.026,0.453,1.85,0.65,2.778c0.057,0.966-0.806,1.505-1.262,2.284
			c0.189,0.021,0.403-0.127,0.55-0.029l0.079,0.033l-0.025,0.09c-0.335,0.327-0.697,0.699-0.915,1.097
			c0.264,0.015,0.58,0.007,0.833-0.022l0.008,0.217c-0.703,0.58-1.518,1.202-1.744,2.106c0.059,0.245-0.02,0.473-0.085,0.686
			c-0.368,0.376-0.946,0.303-1.287,0.674v0.071c0.742,0.241,1.541,0.328,2.391,0.328c-0.073-0.311-0.264-0.665-0.145-1.029
			c0.117-0.534,0.537-1.08,1.112-1.176c0.748-0.105,1.491,0.178,1.926,0.852c0.345,0.674,0.21,1.551-0.046,2.238
			c-1.036,2-3.149,3.028-5.188,3.428c-0.688,0.144-1.379,0.235-2.115,0.257c-0.435,1.163-1.496,2.205-2.769,2.381
			c-1.015,0.129-1.907-0.285-2.67-0.859c-0.991-0.795-1.486-1.898-1.857-2.99l-0.228-0.979c-0.198-0.161-0.43-0.072-0.63,0.015
			c-0.192,0.144-0.428,0.315-0.491,0.553c-0.154,0.01-0.295-0.08-0.412-0.141c0.024-0.364-0.024-0.8-0.373-0.981
			c-1.018,0.34-2.003,0.754-2.927,1.349c-1.102,0.488-2.132,1.213-3.337,1.404c0.113,0.225-0.067,0.454-0.212,0.611l-0.14,0.104
			c1.287,1.205,1.875,2.86,1.75,4.641l-0.053,0.876c1.242,0.889,1.185,2.353,1.185,3.767l-2.155,3.701l-0.143-0.12
			c-0.178-0.501,0.169-1.064-0.118-1.538c-0.271-1.071-1.556-1.007-1.98-1.949c-0.078-0.458,0.217-0.762,0.5-1.058
			c0.159-0.31-0.071-0.574-0.201-0.829c-0.681-0.876-1.643-1.273-2.28-2.2c-0.423-0.487-0.744-0.981-1.102-1.491
			c-0.779,0.634-1.48,1.331-2.207,1.97l4.748,4.423c0.062,0.221,0.062,0.517-0.136,0.681c-0.125,0.185-0.381,0.102-0.562,0.062
			l-1.246-1.17l-3.587-3.313l-4.843,4.341c-0.156,0.122-0.36,0.263-0.575,0.143c-0.161-0.043-0.226-0.221-0.317-0.331l0.05-0.389
			l4.926-4.47c-0.395-0.446-0.901-0.889-1.352-1.291c-1.273,0.746-2.535,1.538-3.655,2.634c-0.358,0.315-0.378,0.805-0.266,1.241
			c0.147,0.491,0.508,1.049,0.202,1.598c-0.958,1.087-2.133,2.089-2.321,3.517c-0.06,0.102,0.072,0.289-0.104,0.289
			c-1.205-1.973-2.158-4.052-2.994-6.173c0.712-0.515,1.361-1.27,1.159-2.22c-0.154-0.631-0.383-1.325-0.124-1.992
			c0.6-1.371,1.705-2.526,2.75-3.702c-0.191-0.151-0.43-0.322-0.51-0.546l0.02-0.315c-0.198,0.165-0.472,0.313-0.795,0.267
			c-0.732-0.095-1.227-0.635-1.869-0.941c-0.964-0.565-1.951-1.082-2.947-1.554c-0.474,0.094-0.945,0.42-1.167,0.894
			c-0.015,0.123-0.015,0.303-0.199,0.273l-0.401,0.012c-0.085-0.187-0.117-0.416-0.261-0.567c-0.214-0.09-0.356,0.149-0.485,0.285
			c-0.232,0.291-0.167,0.701-0.297,1.043c-0.34,1.527-1.578,3.251-3.212,3.557c-1.21,0.158-2.469-0.123-3.243-1.14
			c-0.185-0.291-0.328-0.603-0.443-0.919c-2.114,0.118-4.055-0.411-5.69-1.52c-1.061-0.78-2.135-1.933-2.256-3.281
			c-0.082-0.735,0.086-1.468,0.632-1.955c0.392-0.394,0.898-0.498,1.426-0.527c0.553,0.111,1.143,0.549,1.294,1.134
			c0.073,0.522-0.119,0.996-0.396,1.417c0.311,0.028,0.638-0.025,0.936-0.102c0.361-0.087,0.744-0.171,1.089-0.326
			c-0.495-0.487-0.614-1.157-0.811-1.761c-0.475-0.257-1.042-0.3-1.489-0.589V89.01c0.238-0.08,0.49-0.107,0.705-0.244
			c-0.327-0.17-0.708-0.253-1.04-0.425c-0.159-0.315,0.204-0.275,0.344-0.361l0.297-0.068l-0.471-0.288
			c-0.004-0.256,0.277-0.14,0.401-0.237c0.19-0.044,0.362-0.144,0.535-0.268c-0.174-0.571-0.082-1.27-0.62-1.692
			c-0.202-0.273-0.546-0.27-0.818-0.4c-0.155-0.309-0.235-0.652-0.339-0.977c0.267-0.486,0.589-0.942,0.794-1.439
			c0.16-0.748,0.44-1.573,0.222-2.361c-0.468-1.44-0.988-2.852-1.163-4.403c-0.679,0.251-1.323-0.042-1.834-0.45
			c-0.208-0.242-0.345-0.518-0.432-0.818c-0.434-2.238,0.478-4.166,0.853-6.2c0.004-0.383,0.178-0.726,0.118-1.097l-0.042-0.041
			c-0.189,0.558-0.572,1.018-0.826,1.564c-0.707,0.93-1.799,1.341-2.942,1.13l-0.136-0.019l0.064-0.329
			c0.348,0.155,0.62-0.17,0.856-0.401c0.21-0.33,0.398-0.666,0.515-1.031c-0.604,0.14-1.256,0.497-1.924,0.248
			c-0.008-0.472,0.52-0.178,0.756-0.341l0.351-0.196c0.434-0.829,0.112-1.868-0.007-2.73c-0.105-0.47-0.046-1.049-0.07-1.521
			c0.067-1.408,0.824-2.731,2.153-3.299c0.428-0.127,0.91-0.262,1.395-0.183c0.105-0.993,0.645-2.081,1.678-2.402
			c0.432-0.089,1.015-0.305,1.411,0.023c0.211,0.125,0.315,0.352,0.355,0.57c0.017,0.223-0.074,0.378-0.185,0.535l-0.327,0.043
			c-0.288-0.311,0.392-0.712-0.167-0.898l-0.307,0.067c-0.461,0.555-0.428,1.398-0.279,2.077c0.303,1.034,1.307,1.784,1.391,2.9
			l0.052,0.253c0.091-0.347,0.53-0.122,0.709-0.335c0.202-0.174,0.413-0.348,0.58-0.526c-0.319-0.046-0.582,0.193-0.874,0.201
			l-0.046-0.208c0.423-0.006,0.614-0.421,0.876-0.695c-0.147-0.014-0.336-0.036-0.511-0.059c-0.35-0.13-0.781-0.274-0.946-0.656
			c0.198-0.361,0.334,0.088,0.53,0.113c0.254,0.091,0.535,0.172,0.807,0.11l0.304-0.288L13.374,60.5
			c-0.093-0.495-0.63-1.178-0.037-1.572l0.048,0.003c-0.058,0.112-0.129,0.27-0.077,0.435c0.02,0.219,0.248,0.221,0.41,0.265h0.028
			c-0.06-0.207-0.245-0.45-0.115-0.695c0.074-0.176,0.194-0.296,0.371-0.353l0.104,0.036c-0.151,0.125-0.191,0.317-0.167,0.489
			l0.232,0.267c0.435-0.037,0.729-0.423,1.025-0.695c-0.47-0.279-1.194-0.289-1.385-0.917c-0.033-0.194-0.005-0.414,0.086-0.55
			l0.098,0.217c0.151,0.286,0.45,0.483,0.749,0.49c0.412-0.142,0.865-0.204,1.161-0.602l-0.029-0.036
			c-0.458,0.075-0.862-0.089-1.299-0.085c-0.167-0.038-0.29-0.201-0.367-0.348c-0.054-0.183-0.007-0.398,0.077-0.558l0.272-0.217
			c-0.033,0.174-0.221,0.462-0.007,0.618c0.337,0.229,0.722-0.051,1.071-0.065c0.901-0.362,1.689-1.05,2.48-1.644
			c-1-0.06-2.018-0.153-2.765-0.876c-0.297-0.273-0.533-0.567-0.677-0.912c-0.62,0.059-1.304,0.18-1.942,0.099v-0.136
			c0.734-0.721,1.14-1.652,0.912-2.724c-0.063-0.777,0.238-1.428,0.672-2.018l-1.072-0.782l0.178-0.12
			c0.914-0.048,1.647-0.56,2.429-0.928c1.495-1.114,3.36-1.826,5.31-1.316c0.062-0.418,0.113-0.909,0.032-1.335l0.033-0.097
			c1.538,0.714,2.83,2.001,4.074,3.323l7.826,3.804l0.226-0.367l-0.141-0.12l-11.729-7.449l0.217-0.367l0.73,0.436l11.14,7.086
			l0.255-0.295l-0.243-0.25l-8.527-7.12l0.254-0.288l0.157,0.082l8.622,7.225c0.14-0.1,0.291-0.233,0.354-0.394l-9.42-10.068
			l0.306-0.286l2.533,2.696l6.876,7.402l0.393-0.283l-0.102-0.185l-6.609-8.875l0.313-0.289l6.699,9.07l0.416-0.217l-0.082-0.202
			l-6.599-11.703l0.393-0.247l6.664,11.897l0.416-0.132l0.039-0.043L34.02,41.16l-1.531-3.765l0.389-0.192l0.097,0.1l4.069,10.212
			l0.025,0.028l0.467-0.14l0.026-0.065l-3.141-13.146l0.402-0.104l0.044,0.066l3.091,13.115l0.045,0.026l0.47-0.107l-1.321-11.051
			l0.387-0.049l0.07,0.332l1.22,10.467c0.039,0.103-0.062,0.331,0.144,0.286c0.114-0.057,0.398,0.105,0.368-0.146L39.43,33.51
			l0.418-0.01L39.875,34.245 M57.187,45.144c-1,0.602-1.889,1.583-2.533,2.543c-0.656,1.305-1.58,2.496-2.777,3.488l-0.127-0.024
			c0.1-0.294,0.271-0.564,0.271-0.897c-0.032-0.244,0.077-0.575-0.074-0.722c-0.373,1.298-1.183,2.421-2.222,3.411H49.67
			c0.119-0.546,0.335-1.074,0.327-1.681c-0.56,0.739-1.09,1.496-1.635,2.236l-1.299,3.142c0.589,0.297,1.212,0.5,1.857,0.659
			c-0.246-0.339-0.54-0.686-0.841-0.984c1.772-0.157,3.538-0.331,5.039-1.147c-0.288-0.151-0.585-0.289-0.836-0.504l-0.014-0.075
			c0.973-0.779,2.11-1.149,3.327-1.26c-0.418-0.255-0.836-0.467-1.271-0.634c0.724-0.437,1.811-0.423,2.603-0.131
			c0.328,0.079,0.622,0.255,0.945,0.324c0.44-0.469,1.013-0.611,1.602-0.671c0.465,0.006,0.842,0.375,1.058,0.772
			c0.301,0.513,0.01,1.118-0.156,1.628l0.064,0.119c1.28-0.119,2.429-0.586,3.369-1.541c0.196-0.231,0.366-0.522,0.578-0.738
			c0.273,0.206,0.573,0.394,0.871,0.443c-0.376-0.541-0.503-1.183-0.519-1.857c-0.186-0.832-0.912-1.654-1.682-2.06l-0.013-0.041
			c0.406-0.216,0.851-0.418,1.186-0.743c-0.737-0.308-1.348-0.894-2.035-1.33c-1.667-1.1-3.994-0.51-5.522,0.513l-0.034-0.037
			C56.889,46.647,57.083,45.887,57.187,45.144z M21.809,44.76c-0.075,0.42-0.064,0.889,0.01,1.284l-0.03,0.049
			c-1.134-0.405-2.588-0.459-3.728-0.053c-1.186,0.499-2.213,1.437-3.467,1.762l-0.082,0.088c0.216,0.158,0.474,0.297,0.632,0.51
			c-0.68,0.452-0.888,1.181-0.929,1.957c0.127,0.794,0.06,1.633-0.322,2.281c0.384,0.028,0.776-0.046,1.093-0.244
			c0.12,0.204,0.165,0.44,0.279,0.663c0.73,1.279,2.222,1.379,3.549,1.423l-0.044-0.153c-0.304-0.345-0.443-0.874-0.314-1.364
			c0.13-0.492,0.543-0.973,1.033-1.147c0.812-0.302,1.616,0.049,2.223,0.562l0.383-0.336c0.804-0.282,1.744-0.024,2.384,0.454
			c-0.405,0.223-0.863,0.404-1.208,0.73c1.607,0.273,3.039,0.942,4.383,1.816c-0.342,0.262-0.844,0.356-1.16,0.636
			c1.168,0.356,2.406,0.586,3.705,0.587c-0.147,0.356-0.329,0.716-0.438,1.108c0.852-0.209,1.692-0.333,2.578-0.441
			c-0.04-0.201-0.115-0.39-0.179-0.596c-1.038-1.065-1.772-2.328-2.485-3.553c-0.073,0.209,0.032,0.469-0.142,0.627l-0.197-0.036
			c-0.585-1.142-1.241-2.246-1.739-3.421c-0.104,0.255-0.137,0.537-0.206,0.797l-0.08,0.1l-0.186-0.042l-0.911-1.495
			C25.124,47.556,23.521,45.907,21.809,44.76z M37.757,47.818c-2.276,0.452-4.35,2.627-4.745,4.92
			c0.204,0.005,0.398-0.109,0.585-0.062l0.457,1.515l0.432,0.006l-0.306-1.653l0.035-0.044c0.99-0.169,1.998-0.323,3.028-0.39
			l0.034,0.035l0.127,1.634c0.18,0.002,0.395-0.001,0.512-0.063c-0.013-0.51-0.113-1.082-0.099-1.632
			c1.098-0.094,2.289-0.074,3.398,0.05c-0.052,0.577-0.091,1.092-0.124,1.647l0.59,0.036l0.236-1.54l0.062-0.1
			c1.112,0.08,2.164,0.302,3.23,0.485l0.089,0.075c-0.179,0.519-0.36,1.042-0.501,1.561l0.376,0.057l0.473-1.242
			c0.015-0.732-0.329-1.372-0.582-2.019C43.667,48.379,40.692,47.106,37.757,47.818z M38.348,52.443
			c-0.012,0.456,0.017,0.937,0.055,1.419l2.265,0.03l0.089-1.383C39.978,52.464,39.162,52.431,38.348,52.443z M42.345,52.611
			c-0.07,0.446-0.215,0.882-0.259,1.323l0.052,0.107c0.742,0.079,1.503,0.201,2.211,0.298c0.114-0.455,0.318-0.883,0.392-1.339
			C43.945,52.855,43.18,52.649,42.345,52.611z M34.732,52.83c0.044,0.457,0.162,0.87,0.232,1.327l0.046,0.058
			c0.623-0.129,1.272-0.162,1.913-0.248c0-0.503-0.066-0.915-0.072-1.415C36.133,52.598,35.417,52.665,34.732,52.83z M33.214,53.116
			l-1.498,0.39l0.461,1.317c0.517-0.103,1.023-0.221,1.503-0.364C33.567,53.99,33.41,53.522,33.214,53.116z M46.041,53.292
			c-0.156,0.442-0.394,0.865-0.492,1.31l1.417,0.449l0.178,0.018c0.187-0.436,0.387-0.866,0.504-1.296
			C47.106,53.614,46.581,53.425,46.041,53.292z M21.098,55.775c-0.104,0.208,0.104,0.677-0.277,0.636
			c-0.134-0.377,0.03-0.786-0.009-1.149l-0.142,0.017c-0.625,0.076-1.111,0.512-1.625,0.853c-1.567,1.222-2.03,3.075-2.316,4.928
			c-0.311,1.745,0.42,3.409,0.02,5.138c-0.434,1.859-1.543,3.448-3.038,4.823c-1.004,0.349-1.973,1.079-2.621,2.021
			c-0.36,0.498-0.56,1.068-0.696,1.658L9.549,75.01c-0.34,0.119-0.578-0.104-0.794-0.294c-0.61-0.793,0.013-1.732,0.249-2.481
			c1-2.168,2.442-4.15,2.743-6.618c0.252-1.805-0.234-3.445-1.325-4.769c-0.492-0.704-0.453-1.801-0.087-2.565h-0.06
			c-1.03,0.436-0.955,1.652-0.946,2.595L9.24,60.99c-0.336,0.125-0.124-0.423-0.475-0.324c-1.062-0.12-2.08,0.394-2.637,1.309
			l-0.117,0.351c-0.876,1.634,0.21,3.493-0.141,5.213c0.176-0.109,0.264-0.279,0.394-0.418c0.194-0.192,0.115-0.518,0.391-0.647
			l0.147,0.085C6.79,67.62,6.6,68.603,5.969,69.397c1.329-0.614,1.872-2.084,2.093-3.417l0.347-0.182
			c0.754,0.476,0.742,1.502,0.65,2.277c-0.336,1.366-0.637,2.756-0.968,4.145c-0.111,0.982-0.344,2.329,0.51,3.028
			c0.543,0.369,1.182,0.013,1.733-0.092l0.027,0.022c-0.127,1.633,0.571,2.991,1.013,4.425c0.565,1.49-0.005,3.203-0.806,4.47
			l0.104,0.344c0.413,0.208,0.78,0.569,1.137,0.917c0.228,0.522,0.306,1.079,0.47,1.621c0.132,0.332-0.279,0.497-0.44,0.69
			c0.146,0.015,0.304-0.048,0.48-0.06l0.164,0.356c-0.263,0.227-0.586,0.297-0.896,0.398c0.302,0.12,0.616,0.19,0.955,0.203
			c0.189,0.451-0.452,0.378-0.585,0.61c0.302,0.154,0.679,0.147,0.973,0.351c0.198,0.52,0.258,1.118,0.639,1.594
			c0.162,0.107,0.339,0.163,0.543,0.16l0.141,0.217c-0.001,0.368,0.129,0.685,0.197,1.028c0.571-0.069,1.087-0.281,1.542-0.622
			c0.174-0.093,0.411-0.217,0.451-0.436c-0.085-0.311-0.319-0.555-0.543-0.804c-0.604-0.271-1.212-0.49-1.759-0.848
			c-0.232-0.859-0.361-1.755-0.542-2.637c-0.097-1.267-0.578-2.688-0.042-3.925c0.438-1.144,1.549-1.718,2.357-2.641
			c0.538-0.634,0.762-1.407,0.78-2.258c-0.135-1.583-0.259-3.28,0.818-4.468l0.174,0.155c-0.288,0.407-0.395,0.885-0.482,1.378
			l0.026,0.032c0.487-0.562,1.078-1.003,1.699-1.323c1.145-0.549,2.315-1.024,3.342-1.868c1.022-0.993,1.742-2.125,1.953-3.47
			c-0.704,0.082-1.249-0.317-1.776-0.695c-0.203-0.186-0.483-0.353-0.552-0.628l0.209-0.147c0.124,0.199,0.336,0.315,0.518,0.43
			c1.258,0.913,2.829,0.121,4.065-0.282c0.323-0.115,0.589-0.371,0.908-0.425c0.058,0.248,0.281,0.507,0.511,0.609l0.012,1.019
			c-0.058,0.33-0.477,0.338-0.702,0.508c0.182,0.026,0.4,0.026,0.582,0.005l0.03,0.129c-0.204,0.198-0.549,0.244-0.754,0.387
			c0.249,0.026,0.486,0.19,0.751,0.082l0.042,0.157c-0.273,0.283-0.132,0.751-0.41,1.035c-0.177,0.259-0.44,0.291-0.714,0.295
			c-0.113,0.232-0.288,0.449-0.349,0.688c0.174,0.472,0.38,0.94,0.685,1.368l0.25-0.04c0.18-0.341,0.559-0.622,0.816-0.938
			l0.118-0.914l0.62-0.825c0.062-0.428-0.127-0.817-0.25-1.19v-1.594c0.15-0.27,0.307-0.554,0.262-0.902
			c-0.095-0.239-0.302-0.46-0.5-0.622c-0.023-0.162-0.127-0.282-0.202-0.409c-0.386-0.088-0.753,0.014-1.125,0.036
			c-1.136,0.032-2.178-0.438-3.223-0.774c-0.396-0.132-0.832-0.034-1.181-0.255c-0.303-0.143-0.737,0.037-0.973-0.275
			c0.333-0.218,0.821-0.242,1.182-0.054c0.282-0.087,0.632,0,0.921,0l-0.158-0.576c-0.392-0.789-0.846-1.549-1.528-2.21
			c-0.975-0.654-2.414-1.464-2.321-2.857c0.057-0.273,0.065-0.591,0.212-0.811l0.102,0.073c-0.194,0.774,0.172,1.419,0.67,1.964
			c0.356,0.44,0.975,0.385,1.477,0.281c0.625,0.51,1.269,1.029,1.929,1.52c0.224,0.148,0.239,0.434,0.304,0.658
			c0.102,0.154,0.259,0.267,0.428,0.324l0.13-0.19c0.14-0.268-0.237-0.248-0.294-0.457L25,61.707l-0.059-0.349l0.52,0.156
			c0.087,0.209,0.284,0.423,0.473,0.547c0.248,0.151,0.304-0.118,0.468-0.25c0.132-0.096,0.038-0.43,0.311-0.356
			c0.191-0.136,0.428-0.315,0.385-0.601c-0.177-0.255-0.406-0.465-0.663-0.595c-0.015-0.212-0.156-0.4-0.197-0.609
			c-0.709-0.67-1.395-1.323-2.022-2.023c-0.051-0.253-0.04-0.527-0.15-0.741c-0.401-0.351-0.845-0.621-1.271-0.892
			c-0.309-0.39-0.593,0.077-0.878,0.186l-0.229-0.147c0.612-0.584,0.907-1.331,0.996-2.135
			C21.996,54.336,21.288,54.996,21.098,55.775z M39.787,54.179c-0.025,0.4-0.01,0.848,0.015,1.279
			c0.986,0.036,1.881,0.188,2.821,0.244c0.075-0.423,0.103-0.856,0.214-1.255C41.841,54.297,40.828,54.192,39.787,54.179z
			 M36.198,54.385l0.228,1.236c0.933-0.172,1.961-0.137,2.936-0.191l0.059-0.042c-0.028-0.389,0.03-0.829-0.048-1.193
			C38.283,54.171,37.233,54.258,36.198,54.385z M43.237,54.499c-0.111,0.413-0.143,0.845-0.223,1.267
			c1.215,0.231,2.356,0.456,3.503,0.813l0.485-1.162C45.805,54.983,44.531,54.708,43.237,54.499z M35.827,54.434
			c-0.833,0.089-1.639,0.237-2.424,0.454l0.394,1.219c0.756-0.15,1.462-0.39,2.244-0.44L35.827,54.434z M56.416,55.042
			c-0.338,0.294-0.383,0.761-0.36,1.189l-0.058,0.424c-0.32,0.014-0.714,0.017-1.055,0.06c-0.19,0.274-0.238,0.593-0.263,0.931
			c0.179,0.911,0.164,1.973,0.025,2.871c0.16-0.173,0.341-0.345,0.555-0.39c0.679-0.026,1.264,0.252,1.889,0.353l0.16,0.101
			l0.12,0.47l0.328,0.196c0.287-0.433,0.816-0.474,1.204-0.748c0.498-0.373,0.401-0.991,0.686-1.433
			c0.262-0.469,0.854-0.893,0.537-1.491c-0.49-0.215-1.102-0.121-1.53-0.469l-0.229-0.376c-0.14-0.38-0.107-0.831,0.08-1.166
			l0.174-0.353c-0.239-0.177-0.623-0.17-0.873-0.015l-0.092-0.192l-0.331-0.04l-0.277,0.124
			C57.008,54.811,56.597,54.849,56.416,55.042z M25.011,54.548l-0.049,0.228c-0.47,1.026-1.244-0.16-1.935,0.031l-0.331,0.613
			l0.44,0.282l0.025-0.036l0.067,0.032l-0.034,0.046l0.1,0.042c0.347,0.415,0.932,0.478,1.204,0.997l0.434-0.024
			c0.434-0.091,0.859-0.425,0.946-0.885c-0.228,0.149-0.473,0.306-0.734,0.39l-0.291-0.034l0.01-0.173
			C25.244,55.655,25.044,55.058,25.011,54.548z M52.228,57.02c1.053-0.441,2.132-0.755,3.307-0.822
			c-0.007-0.366,0.084-0.676,0.204-0.981C54.463,55.532,53.285,56.144,52.228,57.02z M32.945,54.976l-0.637,0.201
			c0.129,0.399,0.259,0.804,0.416,1.194c0.215-0.057,0.433-0.077,0.643-0.166C33.259,55.782,33.102,55.357,32.945,54.976z
			 M59.392,55.52l-0.382,0.134c-0.194,0.177-0.144,0.499-0.124,0.738c0.184,0.335,0.535,0.613,0.916,0.649
			c1.06,0.211,2.133,0.926,2.598,1.959l0.066,0.01c-0.179-0.916-0.796-1.724-1.502-2.419C60.475,56.138,59.939,55.821,59.392,55.52z
			 M18.968,55.109c-0.961,0.48-1.763,1.379-2.748,1.787l0.433,0.057l0.113,0.195c-0.347,0.463-0.852,0.815-1.309,1.092l0.234,0.059
			c0.205,0.171-0.026,0.397-0.015,0.622c-0.302,0.377-0.726,0.616-1.098,0.858l0.191,0.048l-0.127,0.424
			c-0.293,0.053-0.667,0.012-0.908-0.079c0.212,0.23,0.505,0.3,0.798,0.374v0.059l0.025,0.021l-0.149,0.271
			c-0.104,0.185-0.283,0.337-0.374,0.512l0.25,0.227l-0.386,0.381l0.481-0.206l0.035,0.034c0.006,0.281-0.107,0.492-0.166,0.732
			l-0.543,0.414l0.53-0.106l0.03,0.102c0.132,0.197-0.073,0.25,0.012,0.482c-0.274,0.26-0.47,0.585-0.598,0.916
			c0.216-0.082,0.433-0.178,0.629-0.331l0.188,0.074c0.155,0.32-0.004,0.611-0.032,0.93c0.038,0.344,0.522,0.388,0.551,0.722
			c0.017,0.262-0.077,0.476-0.261,0.647c0.347-0.089,0.629-0.383,0.77-0.715c-0.018-0.293-0.403-0.616-0.078-0.911
			c0.204-0.226,0.483-0.313,0.767-0.335l0.169,0.025c-0.095-0.562-0.138-1.205-0.145-1.785c-0.072-0.59-0.018-1.317,0.044-1.938
			c0.393-2.156,1.227-4.455,3.243-5.563C19.341,55.161,19.166,55.017,18.968,55.109z M38.574,55.867l0.01,1.349l2.229,0.053
			l0.107-1.316C40.162,55.89,39.314,55.816,38.574,55.867z M35.413,56.225c0.019,0.398,0.133,0.853,0.221,1.281
			c0.846-0.133,1.726-0.19,2.588-0.286c-0.007-0.402-0.008-0.91-0.026-1.349C37.237,55.899,36.282,55.999,35.413,56.225z
			 M41.366,55.982c-0.072,0.432-0.11,0.89-0.14,1.325c0.784,0.094,1.563,0.179,2.336,0.327l0.033-0.023
			c0.105-0.418,0.268-0.812,0.358-1.225l-0.319-0.1C42.911,56.131,42.12,56.131,41.366,55.982z M35.015,56.239
			c-0.742,0.108-1.448,0.289-2.137,0.522c0.19,0.403,0.205,0.889,0.475,1.227c0.625-0.171,1.276-0.295,1.918-0.438L35.015,56.239z
			 M44.357,56.472c-0.127,0.413-0.338,0.815-0.385,1.248l1.875,0.477l0.508-1.267C45.698,56.749,45.035,56.579,44.357,56.472z
			 M60.594,58.758c-0.314,0.393-0.558,0.818-0.685,1.295c-0.232,1.007-1.319,1.033-1.938,1.676c-0.037,0.399-0.163,0.773-0.49,1.036
			c-0.295,0.078-0.567,0.221-0.753,0.49c-0.446,0.338-1.091,0.268-1.61,0.185c-0.555,0.526-1.01,1.155-1.217,1.823l0.766,0.161
			c0.732-0.472,1.468-0.906,2.245-1.294l0.06,0.208c-0.754,0.474-1.528,0.957-2.251,1.547l-2.211-0.537
			c-0.159-0.092-0.117-0.295-0.286-0.383c-1.003-0.457-1.501,0.827-2.126,1.395c-0.302,0.835-0.318,1.801-0.446,2.727
			c-0.122,0.461,0.069,1.063-0.295,1.43c-0.212,0.444-0.03,0.948,0.232,1.305l-0.448,0.685c-0.08,0.525-0.04,1.103,0.093,1.603
			l0.438-0.256c0.115-0.197-0.077-0.635,0.266-0.632c0.118,0.21,0.052,0.505,0.159,0.715c0.36-0.237,0.625-0.508,0.893-0.836
			c-0.143-0.47-0.353-0.918-0.625-1.333c0.241-0.469,0.157-1.085-0.109-1.513c0.274-0.839,0.531-1.673,0.8-2.515
			c0.127-0.248,0.432-0.327,0.676-0.448l1.311,0.784c1.24,0.633,2.484,1.453,4.007,1.175l0.032,0.315
			c-0.172,0.142-0.414,0.112-0.63,0.166c-1.107,0.067-2.053-0.325-2.954-0.766c1.003,2.855,3.811,5.296,6.402,6.719
			c0.918,0.67,2.073,0.901,2.82,1.951c-0.169-0.97-0.919-1.716-1.593-2.478l0.294-0.074c0.684,0.639,1.348,1.318,1.669,2.148
			c0.306,0.991,0.281,2.151,0.225,3.168c-0.408,1.92,1.02,3.221,2.275,4.468l0.191,0.365c-0.069,1.811-0.798,3.312-1.502,4.852
			c-0.643,0.428-1.334,0.754-1.906,1.323l0.196,0.383c0.378,0.244,0.61-0.31,0.894-0.497l0.172,0.087l-0.299,0.809
			c0.324,0.025,0.661,0.012,0.938-0.1c0.284-0.466,0.039-1.299,0.759-1.444c0.284-0.183,0.703-0.111,0.909-0.418
			c0-0.329,0.054-0.66,0.138-0.964c0.182-0.436,0.607-0.719,0.964-1.017c-0.27,0.047-0.523,0.227-0.722,0.438l-0.042-0.029
			c0.187-0.52,0.585-0.968,0.911-1.425c-0.154,0.068-0.313,0.165-0.458,0.278l-0.03-0.006c0.231-0.838,0.569-1.62,1.319-2.216
			c0.868-0.934-0.08-1.992-0.293-2.916l-0.05-0.481c0.014-1.029,1.13-1.574,1.498-2.454c0.831-1.247,1.281-2.758,1.064-4.347
			c0.242-0.201,0.495-0.418,0.714-0.665c0.573-0.93,0.969-2.26,0.454-3.36c-0.787-1.693-2.471-2.824-3.757-4.27
			c-0.759-0.914-1.51-1.837-1.326-3.1c0.034-0.673,0.629-1.262,1.244-1.471c0.498-0.221,1.103-0.041,1.534,0.237
			c1.448,1.105,2.308,2.683,2.718,4.327c-0.387,0.389-0.647,0.981-0.374,1.511c0.254,0.439,0.622,0.846,0.662,1.363
			c0.283-0.503,0.304-1.165,0.107-1.694l0.085-0.039c0.645,0.451,1.415,1.076,1.376,1.934c0.341-0.587,0.151-1.409-0.165-1.944
			l0.024-0.049c0.334,0.098,0.585,0.363,0.854,0.6l-0.012-0.183c-0.077-1.042-1.195-1.535-2.014-1.823
			c-0.295-0.712-0.542-1.441-0.915-2.114c-0.769-1.464-2.15-3.005-3.934-2.907c-0.831,0.085-1.588,0.866-1.869,1.614
			c-0.555,1.354,0.217,2.608,0.968,3.664c1.281,1.82,3.645,2.845,4.212,5.007c0.273,1.016-0.1,2.056-0.95,2.67
			c-0.282-0.313-0.555-0.764-0.95-0.991c-0.816-0.826-2.061-0.625-2.899-1.381c-0.914-0.99-1.605-2.105-2.033-3.299
			c-0.798-2.534-1.075-5.274-1.839-7.82c-0.274-0.552-0.499-1.137-0.822-1.666C61.1,59.067,60.865,58.853,60.594,58.758z
			 M49.036,58.614c-0.868,0.17-1.705,0.387-2.62,0.457l-11.522,2.305h0.154c0.513,0.154,0.938,0.47,1.424,0.644l0.597-0.086
			c1.311-0.421,2.604-0.907,3.923-1.323c0.99,0.424,1.998,0.852,2.981,1.239l1.923-0.555l1.701,1.294
			c1.163-0.606,2.469-0.918,3.755-1.207L49.036,58.614z M39.57,58.495c-1.558,0.529-3.268,0.791-5.051,0.65
			c-0.807,0.622-1.675,1.11-2.446,1.776c0.124,0.173,0.246,0.342,0.333,0.542l10.917-2.14c-0.525-0.078-1.06-0.163-1.616-0.215
			C40.978,58.939,40.226,58.838,39.57,58.495z M30.803,58.643l0.154,1.59c0.328,0.072,0.612,0.26,0.892,0.377
			c0.688-0.506,1.425-0.978,2.055-1.504C32.863,58.978,31.788,58.906,30.803,58.643z M30.352,58.75l-1.516,1.629l0.401,0.337
			c0.398-0.288,0.827-0.476,1.3-0.537C30.494,59.687,30.432,59.206,30.352,58.75z M55.177,60.632
			c-0.183,0.23,0.137,0.389,0.248,0.539l-0.131,0.396c-0.473,0.132-0.119-0.452-0.434-0.564l-0.316,0.057
			c-0.144,0.139-0.187,0.329-0.201,0.551c0.017,0.178,0.138,0.286,0.262,0.415c0.836,0.103,1.738,0.069,2.481,0.392l0.137-0.067
			c0.163-0.205,0.273-0.472,0.189-0.744l-0.347-0.196l-0.301,0.274l-0.348,0.128l-0.139-0.217c0.055-0.193,0.273-0.206,0.418-0.283
			c0.135-0.077,0.255-0.214,0.232-0.383c-0.131-0.194-0.403-0.178-0.607-0.236C55.906,60.738,55.543,60.256,55.177,60.632z
			 M30.404,60.673c-0.538,0.101-1.123,0.442-1.255,1.019l1.227,0.658c0.525,0.488,1.132-0.098,1.686-0.147
			c0.029-0.296-0.055-0.567-0.194-0.802C31.551,60.896,31.026,60.61,30.404,60.673z M28.558,60.67l-0.426,0.476l0.614,0.327
			c0.044-0.182,0.104-0.358,0.228-0.491L28.558,60.67z M40.833,61.035l-3.992,1.359l1.183,1.085l0.191,0.109
			c1.732-0.445,3.417-0.968,5.079-1.578c-0.455-0.222-0.926-0.387-1.384-0.569C41.549,61.311,41.199,61.156,40.833,61.035z
			 M27.827,61.462l-0.333,0.344l0.485,1.176l1.137,0.082l1.13-0.34C29.453,62.306,28.643,61.87,27.827,61.462z M45.724,61.721
			c-0.955,0.325-1.953,0.556-2.859,0.89c0.876,0.194,1.751,0.459,2.489,1.025l0.378-0.012l1.43-0.842
			C46.674,62.445,46.229,62.003,45.724,61.721z M46.635,63.551l2.389-0.288c0.592-0.147,1.293-0.025,1.827-0.341
			c0.172-0.311,0.224-0.68,0.356-1.01C49.55,62.124,48.062,62.797,46.635,63.551z M34.827,61.748l-4.659,1.395
			c2.032,0.202,3.909,0.745,5.793,1.295c0.585-0.243,1.202-0.478,1.752-0.721c-0.56-0.453-1.09-0.923-1.61-1.439
			C35.713,62.038,35.28,61.87,34.827,61.748z M54.944,62.5l0.226,0.327c0.384,0.032,0.77,0.131,1.157,0.082l0.186-0.223
			C56.033,62.515,55.482,62.449,54.944,62.5z M41.715,62.948l-3.815,1.139l-1.358,0.508c-0.288,0.125-0.618,0.232-0.819,0.492
			l2.792,0.013c2.033-0.547,4.154-0.928,6.273-1.3l-0.32-0.242C43.638,63.143,42.698,62.885,41.715,62.948z M52.589,63.383
			c-0.406-0.075-0.772-0.115-1.161-0.005c-0.08,0.377-0.172,0.758-0.206,1.14c0.176-0.113,0.375-0.192,0.579-0.232
			c0.302,0.016,0.571,0.088,0.792,0.286c0.091,0.378,0.483,0.311,0.756,0.398c0.15-0.449,0.454-0.834,0.715-1.228l-0.488-0.116
			C53.232,63.573,52.913,63.433,52.589,63.383z M40.221,65.09l10.281,0.039c0.025-0.554,0.129-1.088,0.221-1.614
			C47.127,63.78,43.571,64.196,40.221,65.09z M28.12,63.373c0.122,0.582,0.351,1.114,0.46,1.698l6.468,0.019l0.425-0.42
			C33.139,63.974,30.743,63.373,28.12,63.373z M27.494,63.649c-0.919,0.333-1.928,0.488-2.682,1.199
			c0.549,0.199,1.052,0.515,1.646,0.553c0.401-0.318,0.871-0.65,1.24-1.064C27.658,64.097,27.607,63.832,27.494,63.649z
			 M48.958,65.528l-6.601-0.012c0.014,0.882-0.037,1.556,0.008,2.45c0.403-0.156,0.815-0.31,1.229-0.342l0.107,0.178
			c-0.335,0.47-0.568,0.997-0.821,1.514c-0.217,0.623-0.717,0.963-0.57,1.712l0.057,0.479c0.93-0.594,2.108-1.445,2.996-2.07
			l0.183,0.08L45.39,70.67c1.031-0.215,2.091-0.374,3.183-0.428l0.18,0.095c-0.095,0.307-0.201,0.591-0.316,0.876l0.271,0.001
			c-0.035-0.418,0.185-0.742,0.291-1.092l0.071-0.896c0.185-1.294,0.232-2.639,1.001-3.682L48.958,65.528z M35.222,65.479
			l-6.477,0.005c0.251,0.172,0.176,0.519,0.48,0.622c0.322,0.417,0.508,0.981,0.239,1.477c-0.367,0.526-0.072,1.25-0.138,1.854
			c0.092,0.318,0.196,0.63,0.252,0.974c-0.072,0.276-0.171,0.535-0.353,0.759c0.488,0.02,0.968,0,1.429-0.004
			c-0.149-0.332-0.321-0.657-0.378-1.017l0.331-0.089c1.035,0.069,1.974,0.369,2.936,0.624c0.028-0.445,0.084-0.878,0.147-1.318
			l0.137-0.183c0.816,0.371,1.607,0.804,2.302,1.451l0.012-0.674c-0.219-0.741-0.513-1.455-0.861-2.149l0.127-0.116
			c0.25,0.062,0.483,0.082,0.715,0.211c-0.005-0.731,0.054-1.643-0.005-2.417L35.222,65.479z M39.343,66.167
			c-0.326,0.668-0.62,1.363-0.939,2.022l-0.308-0.178c-0.125,0.472-0.135,1.019-0.23,1.5c-0.544-0.438-1.13-0.774-1.764-1.027
			c0.526,1.418,1.127,2.816,1.596,4.255l-0.045,0.104c-0.488-0.557-0.975-1.112-1.53-1.633c-0.643-0.522-1.304-1.034-2.029-1.344
			c-0.068,0.455-0.073,0.96-0.078,1.429l-0.069,0.067c-0.971-0.381-1.971-0.766-3.064-0.82c0.254,0.654,0.578,1.278,0.935,1.891
			c0.257,0.41,0.555,0.807,0.791,1.234c-0.287,0.197-0.64,0.345-0.894,0.545c1.251,0.726,2.624,1.207,4.008,1.621l0.085,0.08
			c-1.013,0.395-2.034,0.793-2.92,1.515l0.748,0.306v0.065c-0.515,0.629-0.819,1.341-1.098,2.054c1.03-0.288,2.1-0.509,3.185-0.671
			l0.137,0.069c-0.068,0.273-0.11,0.581-0.104,0.869c1.049-0.353,2.039-0.84,2.991-1.422l0.099-0.006l0.064,2.359
			c0.187,0.029,0.456,0.044,0.658,0c0.032-0.87-0.015-1.648,0.032-2.489c0.883,0.61,1.801,1.143,2.727,1.599
			c-0.004-0.296-0.037-0.609-0.048-0.914l0.149-0.077c1.363,0.268,2.76,0.455,4.1,0.726c-0.258-0.638-0.639-1.246-1.097-1.819
			l-0.02-0.087c0.244-0.229,0.552-0.369,0.766-0.572c-0.757-0.538-1.548-0.973-2.378-1.371v-0.04
			c1.195-0.528,2.384-1.08,3.441-1.919c-0.321-0.106-0.715-0.123-0.996-0.304c0.349-0.403,0.638-0.853,0.929-1.284
			c0.313-0.555,0.668-1.11,0.888-1.715c-0.662,0.015-1.278,0.129-1.891,0.236c-0.479,0.101-0.982,0.223-1.451,0.293
			c0.027-0.302,0.174-0.583,0.152-0.896c-1.289,0.764-2.546,1.6-3.79,2.46l-0.105,0.008c0.493-1.571,1.199-3.058,1.894-4.544
			c-0.637,0.196-1.202,0.535-1.73,0.975c-0.079-0.219-0.099-0.432-0.203-0.629c-0.08-0.331-0.16-0.666-0.353-0.94l-0.316,0.293
			c-0.316-0.611-0.498-1.279-0.811-1.895L39.343,66.167z M51.324,71.209l-0.381-1.459l-0.154,0.389
			c0.154,0.34,0.241,0.715,0.241,1.097L51.324,71.209z M19.485,74.336c-0.896,0.456-1.794,1.172-2.349,2.065l0.014,0.742
			l0.043,0.024c0.695-0.12,1.389,0.065,1.825,0.622c0.331,0.699,0.097,1.614-0.065,2.33c0.001,0.205-0.067,0.499,0.217,0.595
			c0.839,0.358,1.796,0.486,2.469,1.235c0.152,0.151,0.037,0.494,0.328,0.509l-0.025,0.353l0.273-0.084
			c0.138,0.004,0.271-0.09,0.355,0.084c0.013,0.184-0.08,0.354-0.179,0.512c0.277-0.072,0.501-0.213,0.722-0.401
			c0.114,0.125,0.112,0.317,0.279,0.441c0.361,0.053,0.674-0.18,1.03-0.217c0.421,0.053,0.767,0.487,0.941,0.845
			c0.582-0.21,1.177-0.383,1.795-0.516c-0.249-0.429-0.558-0.845-1.001-1.105c-0.576-0.184-1.279-0.097-1.863,0l-3.328-2.212
			l-0.216-0.184c0.008-0.199,0.117-0.393,0.182-0.582l-0.807-0.589l-0.085-0.249l1.011-0.363l-0.185-0.71l0.025-0.045
			c0.092-0.208,0.314-0.03,0.454-0.051l0.199-0.441c0.181-0.719,0.871-1.476,0.348-2.25C21.322,74.06,20.272,74.181,19.485,74.336z
			 M59.544,76.084c-0.244,0.295-0.48,0.588-0.679,0.903c-0.746,1.329-0.53,3.229,0.279,4.455c-0.707,0.288-1.434,0.553-2.155,0.793
			c-0.143-0.098-0.284-0.176-0.465-0.166c-0.338-0.035-0.627,0.108-0.771,0.382c-0.095,0.194-0.028,0.419,0.025,0.605l-0.733,0.993
			v0.069l0.482-0.029l0.302-0.476l0.203,0.133c-0.107,0.284-0.301,0.541-0.381,0.829c0.266,0.011,0.519,0.003,0.764-0.029
			c0.122-0.372,0.156-0.793,0.316-1.158l0.993-0.318c0.268,0.13,0.51,0.313,0.816,0.329l0.12-0.372l0.273-0.167
			c0.321,0.147,0.647,0.338,1.005,0.35c-0.149-0.109-0.343-0.149-0.428-0.322l0.247-0.112c0.306,0.141,0.597,0.306,0.938,0.358
			l-0.313-0.274l-0.006-0.228l0.916-0.064c0.604-0.069,0.196-0.805,0.315-1.223c0.06-0.802,0.405-1.671,1.224-1.969
			c-0.013-0.446-0.1-0.858-0.245-1.245C61.818,77.01,60.602,76.683,59.544,76.084z M23.155,75.996l-0.136,0.428
			c0.007,0.421-0.48,0.157-0.699,0.262c0.189,0.507,0.431,0.997,0.608,1.498l-0.037,0.025l-1.453-0.354
			c0.044,0.214,0.19,0.401,0.185,0.621c-0.26,0.108-0.582,0.141-0.809,0.273c0.204,0.173,0.428,0.307,0.625,0.47
			c0.03,0.155-0.125,0.271-0.113,0.418l1.708-0.14l0.067,0.076c-0.112,0.383-0.271,0.769-0.34,1.176
			c0.308,0.025,0.609,0.083,0.913,0.065c0.174-0.331,0.364-0.679,0.578-0.953c0.364,0.104,0.717,0.271,1.109,0.342
			c0.143-0.19,0.342-0.332,0.448-0.541c-0.262-0.253-0.577-0.443-0.8-0.73c0.364-0.178,0.822-0.257,1.177-0.416l-0.461-0.366
			l0.43-0.61l0.002-0.055c-0.216-0.005-0.42,0.039-0.651,0.048c-0.223-0.105-0.015-0.418-0.117-0.593l-1.112,0.941l-0.109-0.022
			c-0.025-0.504-0.005-1.02-0.048-1.488c-0.204,0.054-0.385,0.211-0.596,0.243C23.424,76.397,23.283,76.166,23.155,75.996z
			 M51.297,76.511l-5.616-0.006c0.407,0.262,0.824,0.508,1.217,0.839v0.132l-0.702,0.542c0.418,0.809,0.762,1.61,1.083,2.463
			l-0.021,0.028c-1.433-0.35-2.953-0.592-4.432-0.775l-0.048,1.026c-0.159,0.194-0.333-0.094-0.518-0.079l0.017,0.414
			c2.14-0.173,4.352-0.198,6.318-0.837c1.108-0.409,2.349-1.293,2.803-2.462c0.171-0.413,0.336-0.836,0.381-1.264L51.297,76.511z
			 M55.033,76.981l-0.274-0.38l-0.475,1.346c-0.391-0.198-0.752-0.594-1.127-0.818c-0.033,0.184,0.042,0.341-0.027,0.505
			l-0.59-0.058c0.042,0.256,0.126,0.475,0.192,0.716c-0.167,0.089-0.406,0.047-0.562,0.127c0.361,0.288,0.726,0.592,1.092,0.873
			l-0.008,0.08c-0.245,0.064-0.515,0.105-0.78,0.169c0.102,0.256,0.245,0.477,0.382,0.715l1.511-0.122l0.806,0.963
			c0.283-0.145,0.625-0.192,0.873-0.378l-0.395-0.678v-0.161c0.405-0.004,0.818-0.021,1.23-0.058l-0.273-0.347
			c0.192-0.194,0.455-0.347,0.645-0.555c-0.229-0.111-0.491-0.134-0.703-0.259L56.79,78.3l-1.185,0.078
			c0.21-0.425,0.513-0.811,0.722-1.217l-0.573,0.072c-0.159-0.164-0.028-0.455-0.102-0.669
			C55.433,76.683,55.249,76.862,55.033,76.981z M27.147,76.411c-0.023,0.388,0.072,0.793,0.199,1.157
			c0.45,1.775,2.314,2.832,4.008,3.03l4.761,0.517l0.008-0.614c-0.172,0.042-0.321,0.118-0.479,0.19l-0.356,0.087l-0.007-1.086
			c-1.152,0.187-2.25,0.541-3.382,0.809l-0.027-0.035l0.244-0.788c0.189-0.616,0.563-1.166,0.752-1.77
			c-0.226-0.094-0.453-0.176-0.656-0.304l-0.192-0.144c0.355-0.406,0.911-0.634,1.325-1.01
			C31.216,76.397,29.267,76.451,27.147,76.411z M26.371,78.996c-0.174-0.113-0.384,0.095-0.58,0.122l0.585,0.503l-0.078,0.154
			c0.951,1.188,2.151,2.274,3.459,2.786c-0.525-0.288-1.013-0.649-1.48-1.103C27.525,80.714,27.147,79.759,26.371,78.996z
			 M49.515,80.487l0.082,0.354l0.486-0.089c0.099-0.263,0.293-0.495,0.328-0.757C50.126,80.174,49.842,80.393,49.515,80.487z
			 M26.01,80.111l-0.143,0.178c0.777,0.52,1.408,1.418,2.277,1.706C27.391,81.433,26.669,80.794,26.01,80.111z M54.169,80.609
			c-0.149,0.35-0.359,0.674-0.564,1.008c-0.893,1.097-2.094,1.675-3.362,1.97l-0.057,0.141c-0.275-0.138-0.637,0.017-0.961,0.028
			c-0.719,0.035-1.507,0.125-2.162-0.077c0.549-0.226,1.114-0.407,1.67-0.653l0.34-0.336c-0.71,0.25-1.413,0.587-2.13,0.758
			c0.354-0.737,1.231-0.653,1.819-1.047l0.071-0.332l-0.266-0.404l0.044-0.118l0.279,0.309c0.144-0.281,0.271-0.58,0.544-0.8
			l-0.055-0.488l-0.345,0.144c-0.03,0.203-0.125,0.371-0.217,0.546c-0.152,0.166-0.348,0.333-0.582,0.317
			c-0.104,0.257-0.269,0.482-0.522,0.616c-0.158,0.066-0.378,0.14-0.549,0.051c-0.281,0.589-0.717,1.21-1.309,1.565
			c-1.15,0.367-2.332,0.659-3.499,0.961l0.017,0.22c1.363-0.315,2.702-0.692,4.012-1.101c2.074,0.155,4.224,0.162,5.929-0.941
			c0.645-0.423,1.391-0.95,1.722-1.663C54.138,81.079,54.463,80.794,54.169,80.609z M52.255,80.75
			c-0.481,0.091-0.95,0.264-1.401,0.4c-0.035,0.234-0.066,0.425-0.147,0.645l-0.266,0.23l-0.095-0.212
			c0.239-0.178,0.276-0.477,0.256-0.737l-0.258,0.019c-0.158-0.015-0.396-0.007-0.555,0.082c-0.176,0.055-0.072,0.314-0.274,0.354
			l-0.055-0.072c-0.132,0.133-0.214,0.297-0.179,0.47l0.08,0.01l0.084,0.198l-0.232,0.073l0.024,0.351l0.381-0.095l0.104,0.123
			c-0.051,0.185-0.261,0.082-0.375,0.183l0.062,0.026c0.075,0.143,0.197,0.357,0.388,0.398l0.021-0.281l0.197-0.183
			c0.243,0.145-0.044,0.336,0.068,0.534c0.375-0.068,0.762-0.094,1.049-0.332c-0.263,0.064-0.493,0.12-0.756,0.032l-0.075-0.148
			l0.142-0.137c0.232,0.065,0.52,0.196,0.742,0.05l-0.042-0.05l0.376,0.008c0.295-0.112,0.607-0.199,0.852-0.397
			c0.211-0.163,0.407-0.397,0.335-0.666c0.163-0.259-0.129-0.436-0.14-0.674L52.255,80.75z M25.452,80.721l-0.814-0.237l0.376,0.676
			c0.383,0.711,1.194,0.54,1.686,0.993c0.498,0.102,1.056,0.216,1.528,0.249c-0.396-0.111-0.729-0.347-1.082-0.562
			c-0.53-0.383-0.976-1.021-1.587-1.244L25.452,80.721z M29.848,82.09c0.127,0.266,0.369,0.64,0.549,0.877l-0.024,0.037
			c-0.354-0.065-0.682,0.015-1.013,0.066l0.361,0.137c1.437,0.385,1.506,1.735,2.646,1.331c0.269-0.133,0.477-0.379,0.542-0.653
			c0.077-0.411-0.051-0.815-0.389-1.079C31.743,82.379,30.642,82.493,29.848,82.09z M39.485,83.598
			c-0.458,0.176-0.69-0.319-1.117-0.302l-0.373,0.244c-0.163,0.574,0.015,1.166,0.31,1.627l-0.035,0.051l-0.604-0.297
			c-0.328-0.141-0.706-0.073-0.95,0.159c-0.199,0.354-0.015,0.805,0.104,1.151c-0.064,0.289-0.27,0.703,0,0.95
			c0.361,0.18,0.742-0.01,1.055-0.13c0.221-0.095,0.441-0.249,0.648-0.342c-0.174,0.495-0.517,0.93-0.555,1.494l0.186,0.365
			c0.237,0.183,0.603,0.095,0.84,0c0.485-0.347,1.057,0.25,1.495-0.177c0.125-0.729-0.466-1.246-0.687-1.861l0.252,0.136
			c0.385,0.219,0.747,0.479,1.204,0.521l0.297-0.292c-0.024-0.588,0.127-1.15,0.229-1.702c-0.032-0.208-0.05-0.447-0.279-0.555
			c-0.596-0.123-1.037,0.338-1.52,0.587L39.87,85.24c0.117-0.263,0.249-0.527,0.393-0.771c0.055-0.335,0.389-0.71,0.112-1.018
			C40.072,83.059,39.797,83.569,39.485,83.598z M52.412,83.878c-1.819-0.118-3.612,0.111-4.852,1.502
			c-0.595,0.674-0.847,1.779-0.461,2.63c0.389-0.043,0.782-0.187,1.182-0.059c0.373,0.129,0.6,0.529,0.707,0.87
			c0.191,0.037,0.331-0.044,0.495-0.118c0.431-0.205,0.699-0.653,0.762-1.101c-0.014-0.397-0.092-0.829-0.493-1.01
			c-0.211-0.129-0.497-0.058-0.701,0.04c-0.151,0.019-0.224,0.32-0.393,0.134c-0.132-0.259,0.172-0.386,0.303-0.548
			c0.207-0.047,0.399-0.087,0.598-0.059c0.478,0.024,0.914,0.319,1.094,0.776c1.009,0.021,1.82,0.589,2.648,1.1
			c0.997-0.292,2.065-0.436,3.11-0.569c-0.176-0.195-0.338-0.419-0.445-0.65c-0.068-0.173-0.107-0.414,0.032-0.559
			c0.396-0.448,1.078-0.396,1.598-0.285c-0.453-0.386-0.948-0.642-1.444-0.938l-0.951,0.04l-0.166-0.115l0.079-0.329h-0.047
			c-0.302,0.021-0.699,0.097-0.929-0.077l0.093-0.296C53.649,84.074,53.037,83.951,52.412,83.878z M33.33,83.958L33.2,84.199
			l0.627,0.184c0.878,0.214,1.715,0.509,2.644,0.577l0.224-0.165C35.543,84.584,34.386,84.387,33.33,83.958z M30.497,84.818
			c-1.388-1.049-3.646-1.206-5.193-0.396c-1.018,0.385-1.923,1.331-2.617,2.169l-0.02-0.019c0.092-0.288,0.223-0.6,0.127-0.937
			l-0.273-0.252c-0.409-0.086-0.809,0.032-1.083,0.292c0.176,0.077,0.317,0.255,0.423,0.415c0.176,0.541,0.134,1.215-0.089,1.715
			c1.483-0.082,2.799,0.277,4.098,0.618c0.211-0.253,0.433-0.483,0.688-0.69c0.663-0.635,1.715-0.706,2.576-0.473
			c0.283-0.329,0.677-0.625,1.137-0.635c0.214,0.017,0.413,0.133,0.528,0.321l-0.435,0.097c-0.403,0.154-0.824,0.484-0.867,0.949
			c-0.002,0.237,0.043,0.451,0.197,0.611l0.45-0.284c0.506-0.338,1.254-0.17,1.764,0c0.217-0.855-0.01-1.772-0.486-2.457
			C31.183,85.485,30.897,85.074,30.497,84.818z M51.568,87.594l0.04,0.08c0.055,0.173,0.149,0.423,0.038,0.548
			c-0.299,0.073-0.657,0.12-0.916,0.213l0.57,0.332c0.433-0.198,0.955-0.342,1.344-0.533C52.322,87.967,51.959,87.735,51.568,87.594
			z M57.837,87.87c-3.101-0.079-5.709,1.087-8.322,2.244l0.483,1.159c0.199,0.529,0.503,1.038,0.4,1.667l-0.067,0.165l-0.127,0.333
			c-0.63,0.663-1.63,0.457-2.424,0.754c-0.238,0.167-0.575,0.31-0.64,0.618c-0.044,0.174,0.005,0.325,0.113,0.452
			c0.216,0.217,0.599,0.185,0.883,0.111c2.35-1.281,4.733-2.529,7.264-3.376c2.005-0.517,4.51-0.921,6.517-0.143
			c-0.558-1.231-1.137-2.474-1.754-3.677C59.452,87.957,58.661,87.883,57.837,87.87z M26.476,88.588
			c0.336,0.084,0.665,0.315,1.018,0.376c0.348-0.22,0.699-0.389,1.089-0.502l-0.356-0.007c-0.165-0.024-0.323,0.113-0.465,0.024
			c0.064-0.307,0.281-0.566,0.408-0.832C27.491,87.65,26.891,88.024,26.476,88.588z M47.751,88.504
			c-4.28,1.289-9.426,1.855-14.034,0.827c-0.931-0.208-1.836-0.474-2.772-0.674c-0.406,0.018-0.814,0.154-1.053,0.537
			c-0.356,1.183-0.715,2.391-1.002,3.571c0.216-0.274,0.517-0.498,0.881-0.467c3.625,1.155,7.751,1.92,11.727,1.505
			c2.662-0.163,5.106-0.872,7.535-1.65l0.688-0.048c-0.485-1.181-1.011-2.353-1.51-3.542C48.069,88.505,47.918,88.505,47.751,88.504
			z M18.378,88.821c-0.491,1.032-0.951,2.079-1.386,3.139c2.965-1.025,6.45-0.278,9.122,0.949c1.523,0.632,2.889,1.659,4.402,2.343
			c0.167,0.047,0.466,0.116,0.594-0.059l0.026-0.336c-0.591-0.653-1.569-0.506-2.262-1.011c-0.316-0.199-0.692-0.515-0.61-0.96
			c0.144-0.924,0.495-1.762,0.695-2.674C25.881,88.686,21.897,87.486,18.378,88.821z M61.809,90.263
			c0.119,0.238,0.219,0.527,0.366,0.696c0.151-0.367,0.384-0.705,0.515-1.06C62.359,89.959,62.064,90.079,61.809,90.263z
			 M69.207,90.056c-0.399-0.125-0.798,0.05-1.093,0.356c-0.102,0.181-0.167,0.397-0.151,0.628c-0.012,0.512,0.49,0.883,0.908,1.05
			l-0.032,0.138c-0.941,0.145-1.96,0.043-2.893-0.065l0.821,0.856c-1.739,0.643-3.606-0.012-5.114-0.715
			c-0.911-0.184-1.856-0.315-2.792-0.315c-1.652,0.068-3.225,0.396-4.651,1.025c0.184,0.116,0.27,0.297,0.333,0.457l0.274-0.217
			c0.249-0.137,0.582-0.161,0.82-0.019c2.26,1.428,4.603,2.689,7.543,2.554c2.466-0.127,4.89-0.718,6.479-2.862
			c0.396-0.614,0.719-1.544,0.294-2.269C69.791,90.398,69.515,90.131,69.207,90.056z M9.283,90.306
			c-0.528,0.455-0.617,1.148-0.487,1.826c0.602,2.172,2.841,3.51,4.854,3.98c3.439,0.671,6.599-0.441,9.197-2.489
			c0.354-0.338,0.724-0.665,0.966-1.026c-1.303-0.286-2.581-0.685-4.022-0.602c-1.325,0.008-2.505,0.378-3.648,0.816
			c-1.358,0.556-2.922,0.721-4.482,0.522l-0.032-0.073c0.445-0.176,0.938-0.562,1.148-1.011c-0.809,0.329-1.964,0.613-2.783,0.062
			c-0.164-0.095-0.414-0.282-0.304-0.52c0.157,0.118,0.364,0.169,0.565,0.169c0.34,0.001,0.593-0.278,0.734-0.552
			c0.156-0.387,0.072-0.856-0.229-1.144C10.338,89.878,9.691,89.965,9.283,90.306z M49.327,92.635
			c-0.948,0.187-1.797,0.569-2.727,0.786c0.038,0.288,0.09,0.565,0.182,0.819c0.408-0.649,1.166-0.649,1.832-0.78
			c0.369-0.086,0.774-0.046,1.063-0.327l0.074-0.354C49.685,92.593,49.466,92.688,49.327,92.635z M29.899,92.906
			c-0.204,0.007-0.435-0.015-0.537,0.207l0.091,0.349c0.65,0.318,1.481,0.26,1.974,0.935c0.201-0.288,0.441-0.566,0.584-0.889
			C31.305,93.324,30.604,93.102,29.899,92.906z M24.486,92.861l-0.535,0.469l0.139,0.037l0.414,0.223
			c0.099-0.216,0.36-0.437,0.51-0.565C24.835,92.969,24.663,92.913,24.486,92.861z M56.227,94.224
			c0.087,0.714,0.382,1.356,0.724,1.978c0.712,1.112,1.802,2.079,3.182,2.039c1.01-0.113,2.12-0.902,2.374-1.937l-0.749-0.06
			c-0.353,0.335-0.782,0.596-1.279,0.452c-0.405-0.127-0.681-0.535-0.854-0.895C58.437,95.4,57.319,94.838,56.227,94.224z
			 M22.695,94.452c-0.894,0.617-1.844,1.056-2.817,1.471c-0.144,0.464-0.537,0.912-0.986,1.162c-0.55,0.154-1.11-0.083-1.48-0.462
			l-0.697,0.108c0.281,0.771,0.953,1.397,1.744,1.58c1.054,0.183,2.14-0.029,2.891-0.851C22.04,96.57,22.522,95.569,22.695,94.452z
			 M32.193,95.396c-0.144,0.084-0.268,0.231-0.226,0.407l0.275,0.278l0.335-0.119l0.065-0.342
			C32.574,95.426,32.372,95.367,32.193,95.396z M46.662,95.837l-0.36,0.232c-0.078,0.192,0.075,0.343,0.214,0.436l0.356-0.076
			l0.098-0.353L46.662,95.837z M32.998,96.323l-0.136-0.077l-0.105,0.131l11.69,10.973l0.202-0.03l-0.015-0.147L32.998,96.323z
			 M45.952,96.533l-6.206,5.588l0.182,0.177l2.981-2.649l3.228-2.951L45.952,96.533z M46.475,97.002
			c0.009,0.285,0.049,0.541,0.091,0.806l-0.02,0.039l-0.454-0.479l-0.104,0.108c0.329,0.329,0.617,0.712,0.911,1.038l0.59-0.61
			l-0.122-0.176c-0.131,0.112-0.249,0.423-0.416,0.418c-0.03-0.336-0.095-0.645-0.136-0.957
			C46.736,97.085,46.674,96.824,46.475,97.002z M47.993,99.87c-0.142-0.22-0.284-0.387-0.313-0.628
			c0.156,0.037,0.376,0.307,0.525,0.346l-0.097-0.476c-0.197-0.054-0.498-0.248-0.666-0.345l0.408-0.319l-0.136-0.231
			c-0.068,0.205-0.492,0.45-0.578,0.697c0.242,0.405,0.473,0.755,0.656,1.179L47.993,99.87z M39.034,102.76l-4.907,4.42
			l-0.003,0.111l0.154,0.104l4.947-4.438L39.034,102.76z M34.804,61.41c-0.774,0.119-1.523,0.295-2.285,0.443l0.059,0.209
			L34.804,61.41z M46.771,101.364c-0.463-0.895-1.115-2.01-1.96-2.919l-1.993,1.821l0.355,0.574
			c0.672,1.172,1.797,2.038,2.785,2.976c0.254,0.315,0.598,0.589,0.525,1.038c-0.009,0.419-0.442,0.668-0.465,1.086
			c0.123,0.535,0.705,0.733,1.098,0.988c0.53,0.419,0.807,0.997,0.921,1.608c0.51-0.793,0.977-1.605,1.435-2.421l0.033-1.115
			c0.054-0.978-0.374-1.844-1.19-2.421c0.051-0.888,0.175-1.971-0.104-2.833L46.771,101.364z M52.892,80.721
			c0.038,0.309,0.302,0.513,0.254,0.854c0.232-0.317,0.499-0.607,0.664-0.959C53.507,80.665,53.186,80.656,52.892,80.721z
			 M28.753,50.964l0.547,1.082l0.167-0.858C29.249,51.084,29.004,51.017,28.753,50.964z M19.986,52.231
			c-0.426,0.131-0.941,0.461-0.983,0.959c-0.053,0.766,0.733,1.315,1.336,1.606l0.733-0.231c0.769-0.681,1.383-1.513,2.27-2.054
			c-0.439-0.015-0.944-0.067-1.269,0.235c-0.183,0.126-0.176,0.598-0.483,0.434C21.245,52.624,20.667,52.216,19.986,52.231z
			 M59.732,52.943c-0.447-0.272-0.901,0-1.284,0.216c-0.252,0.113-0.371,0.49-0.689,0.461c-0.44-0.266-0.963-0.468-1.426-0.538
			c0.297,0.212,0.595,0.394,0.854,0.647c-1.294,0.113-2.651,0.238-3.764,0.836c0.279,0.204,0.58,0.348,0.903,0.418l0.093,0.126
			c0.368-0.077,0.714-0.263,1.102-0.34c0.324-0.144,0.742-0.017,0.983-0.326c0.252-0.048,0.492-0.008,0.692,0.132l0.274-0.164
			c0.242-0.077,0.485,0.013,0.667,0.14c0.368-0.061,0.761,0.008,1.028,0.223c0.27-0.134,0.565-0.3,0.742-0.577
			c0.145-0.281,0.127-0.631,0.075-0.957L59.732,52.943z M60.826,57.928l-0.012,0.273c0.446,0.113,0.836,0.471,1.091,0.834
			C61.654,58.592,61.281,58.196,60.826,57.928z M50.779,87.342c-0.042,0.194,0.116,0.383,0.001,0.556l0.276-0.091
			C50.991,87.632,50.885,87.469,50.779,87.342z M28.902,88.018l0.032-0.219l-0.301,0.224L28.902,88.018z M33.438,58.505
			c1.132,0.142,2.309,0.189,3.444,0.047c0.222-0.129,0.491-0.031,0.727-0.082c0.666-0.118,1.274-0.407,1.923-0.593
			c0.162,0.036,0.311,0.096,0.427,0.2c1.686,0.659,3.879,0.8,5.691,0.57C41.95,57.453,37.161,57.374,33.438,58.505z M52.208,77.996
			l-0.145,0.035l0.077-0.201L52.208,77.996z M25.859,47.921c0.425,0.592,0.87,1.199,1.242,1.786
			c0.095-0.358,0.114-0.756,0.184-1.118C26.819,48.342,26.348,48.122,25.859,47.921z M46.828,57.249l-0.54,1.269
			c0.991-0.12,2.008-0.269,2.88-0.55C48.347,57.831,47.553,57.61,46.828,57.249z M22.96,61.462
			c-0.205-0.123-0.373-0.417-0.627-0.317c1.015,0.901,1.693,1.998,2.195,3.16c0.869-0.582,1.93-0.681,2.817-1.242
			c-0.127-0.32-0.244-0.655-0.413-0.941c-0.208,0.168-0.401,0.337-0.622,0.467c-0.157,0.144-0.366-0.001-0.515-0.04l-0.02,0.389
			c-0.167,0.203-0.355,0.511-0.625,0.551c-0.33-0.178-0.685-0.306-0.961-0.558l-0.219-0.581L22.96,61.462z M12.266,63.359
			c0.1,0.391,0.116,0.827,0.182,1.243l0.248-0.228l0.458-0.007l0.341-0.912C13.081,63.419,12.655,63.45,12.266,63.359z
			 M27.807,64.95l-0.54,0.505c0.228-0.012,0.46-0.02,0.657-0.074L27.807,64.95z M46.062,93.599c-0.792,0.208-1.593,0.374-2.42,0.511
			c-2.476,0.347-5.185,0.538-7.691,0.231c-1.2-0.104-2.272-0.396-3.384-0.649l-0.864,1.515c0.129-0.109,0.321-0.248,0.525-0.285
			c0.176-0.003,0.366,0.03,0.508,0.13c0.239,0.184,0.338,0.499,0.336,0.805l6.29,5.806l0.117,0.156l6.337-5.723l0.06-0.271
			c0.092-0.271,0.405-0.361,0.649-0.429C46.249,94.831,46.288,94.183,46.062,93.599z M26.298,78.098
			c0.204,0.183,0.419,0.297,0.593,0.511l-0.166,0.244c1.082,1.049,1.43,2.431,2.817,3.143c-0.065-0.185-0.136-0.371-0.151-0.592
			l0.143-0.109c0.704,0.948,1.625,0.682,2.639,0.939c0.464,0.113,0.935,0.712,1.04,1.154l0.097-0.295
			c-0.076-0.361-0.024-0.665,0.217-0.849c0.162-0.13,0.317-0.008,0.525,0.003l0.037-0.505c0.066-0.17,0.008-0.203,0.166-0.273
			c-1.735-0.336-3.267-0.21-4.894-0.83c-1.401-0.498-2.336-1.599-2.638-3.017C26.565,77.778,26.371,77.901,26.298,78.098z
			 M44.14,81.538c0.113,0.159,0.204,0.517,0.157,0.689c0.266-0.123,0.441,0.062,0.592,0.094l0.189,0.945
			c-0.017,0.149,0.107,0.069,0.062,0.503c0.239-0.091,0.475-0.151,0.685-0.314c0.553-0.491,0.906-1.1,1.09-1.767l0.025-0.018
			c0.107,0.1,0.166,0.34,0.38,0.292c0.204,0.029,0.36-0.108,0.452-0.274c0.078-0.151,0.093-0.343,0.055-0.506h0.055l0.067,0.066
			l0.294,0.012c0.157-0.071,0.324-0.23,0.333-0.4C47.169,81.316,45.653,81.329,44.14,81.538z M36.06,81.664l0.11,0.136
			c0.149,0.224-0.012,0.53-0.102,0.754l0.434,0.035c0.196,0.064,0.369,0.249,0.38,0.439c0.04,0.266-0.048,0.642-0.166,0.931
			c0.095,0.25-0.1,0.36-0.244,0.573c0.402,0.199,0.741-0.144,1.141,0.053c-0.091-0.47-0.277-1.187,0.208-1.512
			c0.221-0.149,0.683-0.156,0.936-0.105c-0.077-0.389-0.353-0.844-0.867-0.956C37.267,81.872,36.702,81.736,36.06,81.664z
			 M41.244,81.797c-0.601,0.152-1.316,0.62-1.403,1.262l0.381-0.093c0.185,0.036,0.391,0,0.5,0.185
			c0.344,0.415,0.053,0.949-0.066,1.363c0.301-0.22,0.798-0.245,1.132-0.082c-0.149-0.131-0.158-0.38-0.184-0.559
			c-0.077-0.18-0.366-0.794-0.035-1.072c0.07-0.292,0.478-0.254,0.714-0.248l-0.188-0.293c-0.017-0.288-0.048-0.441,0.191-0.563
			C41.941,81.707,41.59,81.714,41.244,81.797z M23.324,53.805l-0.144,0.49c0.202-0.008,0.398,0.026,0.577,0.1
			c0.234,0.072,0.408,0.38,0.659,0.355c0.152-0.185,0.229-0.389,0.257-0.62C24.228,53.99,23.803,53.862,23.324,53.805z
			 M25.498,54.49c0.166,0.262,0.229,0.573,0.239,0.902l0.777-0.409C26.164,54.83,25.865,54.589,25.498,54.49z M32.93,51.307
			l-5.359-2.572l0.894,1.677c1.44,0.456,2.859,0.968,4.312,1.382l0.185-0.462L32.93,51.307z M52.541,49.323l0.048,0.434
			c0.183-0.198,0.333-0.419,0.485-0.637C52.892,49.158,52.713,49.254,52.541,49.323z M50.344,50.176
			c0.12,0.169,0.082,0.421,0.127,0.638l0.273-0.076c0.151-0.269,0.269-0.555,0.341-0.867C50.845,49.97,50.543,50.059,50.344,50.176z
			 M50.113,50.248l-4.114,1.576c-0.167,0.028-0.032,0.186-0.019,0.263l3.34-0.912l0.119-0.097
			C49.648,50.795,49.942,50.523,50.113,50.248z M29.779,51.284c0.376,1.282,1.008,2.443,1.804,3.54
			c-0.156-0.463-0.293-0.946-0.48-1.405l-0.008-0.149l1.395-0.408c0.055-0.221,0.129-0.452,0.149-0.666L29.779,51.284z
			 M46.085,52.469c0.076,0.135,0.002,0.358,0.16,0.423l1.379,0.427c0.585-0.457,0.968-1.108,1.399-1.691
			C48.022,51.877,47.057,52.18,46.085,52.469z M52.589,56.109c-0.993,0.37-2.058,0.591-3.151,0.739l-0.062,0.044l0.115,0.067
			c0.125,0.339,0.407,0.614,0.513,0.96c-0.147,0.199-0.416,0.048-0.636,0.068v0.044l2.817,3.275l0.025,0.072
			c-0.234,0.427-0.458,0.872-0.595,1.351c1.05-0.066,1.809,0.524,2.847,0.481l0.142-0.169c-0.109-0.185-0.249-0.356-0.262-0.572
			c-0.272-0.084-0.441-0.382-0.533-0.636c-0.007-0.86,0.557-1.467,0.405-2.4c-0.151-0.804-0.131-1.619-0.027-2.465
			c-1.005,0.206-1.978,0.493-2.872,0.998c-0.089-0.077-0.281-0.048-0.258-0.221C51.425,57.128,52.073,56.581,52.589,56.109z
			 M26.33,56.167c-0.295,0.594-0.915,1.085-1.574,1.103l0.032,0.188c0.492,0.829,1.359,1.244,1.904,2.052
			c0.068,0.549,0.681,0.755,1.011,1.16c0.82-0.88,1.694-1.771,2.496-2.661l0.112-0.062c0.878,0.111,1.667,0.385,2.556,0.482
			c-0.077-0.333-0.219-0.631-0.331-0.941c-1.298,0.055-2.521,0.348-3.607,0.914l-0.077-0.058c0.092-0.553,0.356-1.036,0.538-1.56
			C28.316,56.7,27.317,56.434,26.33,56.167z M67.987,62.686c-0.38,0.048-0.787,0.211-0.978,0.587
			c-0.533,1.116,0.139,2.213,0.889,3.037l0.316,0.302c1.2,1.296,2.548,2.304,3.442,3.769l0.052-0.224
			c-0.012-0.629-0.47-1.067-0.762-1.589c-0.279-0.542-0.048-1.156,0.151-1.652l0.12-0.378c-0.198-0.536-0.348-1.104-0.669-1.591
			C69.933,64.064,69.194,62.734,67.987,62.686z M12.455,64.701c-0.107,2.716-1.592,4.84-2.694,7.133
			c-0.306,0.715-0.723,1.43-0.634,2.265c0.113,0.16,0.281,0.331,0.51,0.304c0.378,0.013,0.243-0.423,0.341-0.65
			c0.575-1.41,1.89-2.886,3.432-3.234c1.615-1.367,2.799-3.166,2.913-5.229l-0.02-0.026l-0.18,0.096
			c-0.027,0.421-0.194,0.791-0.482,1.111c-0.485,0.564-1.309,0.678-2.013,0.5c-0.271-0.084-0.596-0.331-0.637-0.635l0.317-0.17
			l0.122,0.185c0.111,0.111,0.251,0.137,0.412,0.141c0.202-0.02,0.454-0.018,0.56-0.242c0.187-0.369-0.291-0.379-0.427-0.636
			c-0.164-0.195-0.152-0.486-0.15-0.728C13.348,65.013,12.881,64.886,12.455,64.701z M27.685,67.983l-0.32-0.302
			c-0.793,0.288-1.585,0.634-2.366,0.93c-0.157,0.98-0.604,1.879-1.154,2.703c-0.74,1.088-1.886,1.796-2.979,2.396
			c0.251,0.028,0.488,0.055,0.717,0.147c0.488,0.204,0.935,0.686,1.045,1.214c0.084,0.425-0.106,0.809-0.177,1.187l0.1,0.004
			c0.223-0.38,0.322-0.819,0.475-1.219l0.059-0.01c0.255,0.291,0.382,0.681,0.632,0.978l0.403-0.189c0.17,0,0.334-0.236,0.465-0.05
			l-0.019,0.046c0.037,0.365,0.013,0.8,0.048,1.164c0.371-0.298,0.739-0.537,1.083-0.861l0.114-0.014
			c0.157,0.255,0.024,0.612,0.1,0.92l0.652,0.04c-0.204-1.13-0.063-2.393,0.248-3.447c-0.284-0.5-0.452-1.047-0.715-1.555
			l-0.014-0.208c0.313-0.371,0.321-1.126,0.952-1.091c0.329-0.033,0.235-0.416,0.334-0.606c-0.316-0.154-0.642-0.404-0.841-0.724
			l0.401-0.044L26.6,69.017c0.323-0.173,0.687-0.33,1.022-0.534L27.685,67.983z M51.733,68.045l-0.261,0.123
			c-0.002,0.214-0.223,0.436-0.087,0.665c0.562,2.682,1.745,5.422,0.986,8.321c0.12-0.039,0.288,0.093,0.331-0.062l0.01-0.615
			l0.136-0.14c0.401,0.245,0.829,0.607,1.2,0.864c0.183-0.454,0.375-0.906,0.505-1.389l0.201-0.114
			c0.226,0.184,0.231,0.507,0.465,0.686c0.258-0.192,0.49-0.468,0.791-0.526c0.155,0.301,0.109,0.575,0.125,0.926
			c0.268-0.04,0.602-0.037,0.861,0.01c-0.134,0.39-0.4,0.726-0.6,1.089c0.378,0.02,0.733,0.035,1.1-0.001
			c0.097,0.215-0.209,0.369-0.245,0.562l0.538,0.213c0.106-1.093,0.597-2.016,1.229-2.883c-2.655-1.463-5.613-4.087-6.245-7.178
			L51.733,68.045z M21.982,77.214l-0.085,0.347l0.297,0.066L21.982,77.214z M17.313,77.768c-0.071,0.658-0.022,1.368-0.147,2.063
			c-0.604,1.562-2.691,2.273-3.191,3.893c-0.107,1.996,0.281,3.885,0.777,5.701c0.477,0.313,0.968,0.621,1.513,0.74
			c0.223,0.253,0.436,0.534,0.582,0.844c0.363-0.722,0.676-1.457,0.964-2.191c0.058-0.192,0.162-0.382,0.367-0.457
			c0.923-0.321,1.929-0.451,2.926-0.602l0.091-0.112c0.175-0.372,0.229-0.898-0.029-1.245c-0.259-0.184-0.623-0.134-0.951-0.149
			l-0.334,0.134l-0.065-0.072c0.688-0.664,1.339-1.356,2.236-1.562c0.468-0.12,0.937,0.014,1.238,0.385
			c0.418-0.39,0.896-0.706,1.331-1.024l-0.274-0.318c-0.495,0.01-1.124,0.445-1.514-0.089c-0.585,0.185-1.228,0.286-1.879,0.19
			l0.024-0.138c0.353-0.019,0.682-0.08,0.957-0.332c-0.272,0.057-0.513,0.194-0.821,0.163c-0.293-0.014-0.662,0.05-0.911-0.138
			l0.038-0.125c0.376,0.039,0.823,0,1.096-0.248l-0.099-0.053l-0.938-0.032l-0.099-0.162c0.343-0.018,0.677-0.136,0.881-0.396
			c-0.053-0.178-0.142-0.347-0.306-0.465c-0.535-0.302-1.098-0.54-1.719-0.671c-0.252-0.079-0.553-0.055-0.746-0.296
			c-0.138-0.519,0.159-1.014,0.205-1.545c0.052-0.434,0.129-0.973-0.091-1.338C18.188,77.732,17.719,77.635,17.313,77.768z
			 M51.722,78.625c-0.248,0.437-0.605,0.798-0.978,1.15l0.039,0.102c0.212-0.134,0.382-0.403,0.645-0.393v0.048
			c-0.448,0.242-0.721,0.722-0.905,1.161l0.266,0.004c0.162-0.244,0.42-0.345,0.639-0.482l0.254-0.012
			c-0.192,0.129-0.46,0.268-0.546,0.466l1.161-0.306c-0.149-0.321-0.297-0.632-0.481-0.93c-0.109-0.378,0.391-0.235,0.56-0.358
			L51.722,78.625z M57.788,79.066c-0.196,0.144-0.405,0.317-0.59,0.498c0.082,0.217,0.425,0.401,0.264,0.62l-1.175,0.073
			l0.356,0.649c-0.492,0.3-1.09,0.476-1.614,0.668c-0.252-0.102-0.279-0.385-0.466-0.519c-0.423,0.946-1.247,1.645-2.098,2.237
			c0.734,0.104,1.41,0.327,2.11,0.537c0.254-0.217,0.345-0.537,0.6-0.771c-0.103-0.461,0.006-0.968,0.405-1.274
			c0.418-0.291,1.018-0.351,1.485-0.148c0.438-0.14,0.899-0.223,1.303-0.462l-0.351-1.002
			C57.904,79.806,57.894,79.413,57.788,79.066z M62.758,80.203c-0.679,0.441-0.652,1.4-0.499,2.122
			c0.054,0.263-0.133,0.472-0.317,0.614l-0.493,0.176c0.053,0.177,0.199,0.3,0.353,0.364v0.141
			c-0.326,0.059-0.701,0.064-1.033,0.012l-0.018,0.102c-0.527,0.097-1.102-0.057-1.583-0.21l-0.14,0.192
			c-0.423,0.383-0.935-0.01-1.339-0.17l-0.61,0.244c-0.064,0.327-0.166,0.656-0.194,1.004l1.642,1.226
			c0.09,0.104,0.296,0.161,0.229,0.331c-0.092,0.148,0.01,0.524-0.284,0.451c-0.5-0.19-1.038-0.295-1.587-0.313
			c-0.118,0.042-0.302-0.007-0.353,0.171c0.12,0.279,0.398,0.537,0.624,0.732c0.876,0.003,1.819,0.022,2.67,0.185
			c0.299,0.107,0.652,0.108,0.87,0.415c0.29,0.603,0.526,1.224,0.844,1.827c0.589-0.3,1.242-0.476,1.924-0.505l0.079,0.118
			c-0.169,0.213-0.275,0.466-0.408,0.703l0.675-0.322c0.668-1.382,1.236-2.823,1.408-4.446c-0.686-0.69-1.316-1.436-1.861-2.211
			c-0.612-0.82-0.636-1.881-0.582-2.953H62.758z M22.482,79.985c-0.208,0.04-0.445,0.014-0.665,0.058
			c0.184,0.107,0.376,0.234,0.544,0.31L22.482,79.985z M24.305,80.693c-0.221,0.181-0.251,0.66-0.596,0.564l0.808,0.552l0.522-0.073
			C24.715,81.419,24.486,81.05,24.305,80.693z M50.301,88.783c-0.33,0.293-0.696,0.531-1.127,0.564l0.129,0.262
			c0.463-0.227,1-0.356,1.402-0.613L50.301,88.783z M28.966,88.852c-0.264,0.131-0.563,0.212-0.795,0.398
			c0.326,0.138,0.638,0.307,0.939,0.412l0.122-0.511L28.966,88.852z M65.095,92.091l-0.216,0.383l-0.487,0.17
			c0.416,0.089,0.896,0.14,1.311,0.065v-0.018C65.496,92.511,65.28,92.305,65.095,92.091z M12.904,92.899
			c0.329,0.007,0.65,0.019,0.946-0.05c-0.039-0.349-0.105-0.703-0.182-1.054C13.439,92.152,13.153,92.545,12.904,92.899z
			 M18.104,96.501c0.192,0.089,0.453,0.19,0.661,0.076l0.335-0.375C18.754,96.283,18.453,96.413,18.104,96.501z M60.156,95.962
			l0.362,0.343c0.224,0.089,0.465-0.022,0.654-0.14C60.818,96.115,60.507,96.01,60.156,95.962z M27.25,82.714l0.497,0.613
			c1.299,0.012,2.133,0.432,3.118,1.249c1.147,0.984,1.67,2.381,1.359,3.898c0.919,0.249,1.874,0.418,2.84,0.559
			c3.797,0.69,7.801,0.282,11.352-0.721l0.067-0.062c-0.082-0.257-0.151-0.521-0.164-0.809c-0.08-1.27,0.645-2.367,1.682-3.074
			c-0.612,0-1.231,0.015-1.787-0.111l-0.699,0.23l0.209,0.291c-0.022,0.409,0.378,0.657,0.311,1.064c0,0.25-0.275,0.357-0.47,0.412
			l0.175,0.336c0.119,0.243,0.055,0.552-0.137,0.753c-0.18,0.112-0.379,0.163-0.614,0.134c-0.322,0.166-0.753,0.476-1.11,0.172
			c-0.194-0.142-0.178-0.423-0.178-0.632c-0.143,0.105-0.315,0.199-0.508,0.199c-0.221,0-0.408-0.094-0.55-0.263
			c-0.156-0.34-0.12-0.747-0.36-1.047c-0.055-0.259,0.104-0.47,0.239-0.616l-0.35,0.079l-0.175,0.717
			c-0.119,0.519,0.226,1.338-0.508,1.552c-0.281,0.09-0.555-0.037-0.801-0.12c0.042,0.314,0.226,0.567,0.204,0.885
			c-0.048,0.195-0.124,0.382-0.313,0.502c-0.25,0.185-0.62,0.126-0.889,0.019c-0.657-0.112-1.476,0.548-2.018-0.14
			c-0.221-0.396-0.084-0.906,0.043-1.276c-0.383,0.091-0.914,0.314-1.227-0.102c-0.418-0.293-0.118-0.813-0.048-1.152
			c-0.112-0.343-0.275-0.66-0.23-1.038h-0.23c0.053,0.098,0.383,0.34,0.037,0.823c0,0.244-0.142,0.654-0.274,0.855
			c-0.139,0.151-0.433,0.154-0.625,0.167l-0.341-0.173c0.015,0.191-0.046,0.277-0.082,0.464c-0.07,0.156-0.358,0.299-0.506,0.264
			c-0.38-0.169-0.408-0.13-0.748-0.274c-0.167-0.036-0.531-0.03-0.69-0.274c-0.181-0.368-0.042-0.688,0.137-0.963
			c-0.185-0.014-0.207-0.04-0.331-0.178l-0.125-0.387c0.092-0.297,0.304-0.299,0.287-0.649l0.147-0.264l-0.356,0.288
			c-0.378,0.184-0.959-0.046-1.3-0.329c-0.865-0.747-1.311-1.281-2.468-1.306l-0.172-0.104l0.226-0.216
			C28.26,82.858,27.827,82.771,27.25,82.714z M43.571,83.973l0.045,0.213l0.34-0.122L43.571,83.973z M43.299,84.279l-0.062-0.214
			l-0.488,0.378L43.299,84.279z M34.374,84.082l0.348,0.112l0.045-0.217L34.374,84.082z M35.044,84.288
			c0.176,0.066,0.363,0.105,0.547,0.147l-0.487-0.371L35.044,84.288z M44.365,84.834l-0.354,0.084l0.064,0.203L44.365,84.834z
			 M43.687,84.994c-0.184,0.035-0.366,0.09-0.552,0.156l0.604,0.065L43.687,84.994z M34.374,84.977l0.068-0.21l-0.351-0.08
			L34.374,84.977z M34.71,85.06l0.607-0.066c-0.178-0.057-0.364-0.116-0.551-0.147L34.71,85.06z M49.399,83.42l-0.203-0.212
			l-0.73,0.285L49.399,83.42z M29.673,101.739c0.45,1.021-0.231,1.962-1.052,2.629c0.261,0.887,1.7,4.096,2.494,5.332
			c0.074-0.203,0.402-1.258,0.766-1.621c0.889-0.865,1.37-1.406,1.445-2.017c0.077-0.61-0.258-0.476-0.315-1.493
			c-0.055-1.022,2.742-2.749,3.968-3.62l-4.605-4.398C30.178,99.027,28.946,100.101,29.673,101.739z M32.567,96.761
			c-0.314-0.302-0.511,0.21-0.706,0.357c-0.398,1.208-0.707,2.463-0.943,3.737c-0.282-0.4-0.593-0.728-0.939-1.111l-0.14-0.118
			l-0.187,0.398l1.592,1.875c0.308-0.805,0.784-1.543,1.354-2.241c0.474-0.544,0.923-0.995,1.466-1.48l-0.327-0.25
			c-0.538,0.354-0.979,0.892-1.456,1.379c0.113-0.77,0.368-1.525,0.557-2.285L32.567,96.761z M34.603,98.746
			c-1.224,1.151-2.309,2.428-2.705,3.976l1.15,1.532l0.264-0.415l-0.862-1.223c1.426-0.769,2.879-1.288,4.432-1.749
			c-0.296-0.228-0.483-0.502-0.782-0.762c-1.052,0.317-2.075,0.75-3.046,1.216c0.553-0.722,1.24-1.497,1.953-2.088l0.038-0.089
			C34.886,99.012,34.775,98.843,34.603,98.746z M29.8,102.439c0.131,0.314,0.373,0.671,0.654,0.908
			c-0.282,0.058-0.67,0.089-0.976,0.131c-0.252,0.361-0.425,0.566-0.856,0.89l0.08,0.213c0.487-0.086,1.04-0.192,1.537-0.213
			c-0.316,0.445-0.784,0.925-1.134,1.354l0.177,0.335c0.448-0.89,1.713-1.381,1.908-2.367c-0.441-0.573-1.058-1.406-1.516-1.951
			C29.783,102.047,29.835,102.284,29.8,102.439z M33.312,106.137l-1.381-1.605c-0.57,0.903-1.685,1.623-2.198,2.568l0.212,0.398
			l0.309-0.372l0.625-0.692c-0.099,0.672-0.189,1.618-0.326,2.287c0.169,0.314,0.364,0.726,0.562,0.978
			c0.1-0.263,0.251-0.851,0.415-1.078c0.217-1.101,0.351-2.187,0.573-3.277l0.196,0.278c0.282,0.299,0.505,0.722,0.881,0.902
			L33.312,106.137z M33.326,106.061c0.077-0.61-0.258-0.476-0.315-1.493c0,0,0.014-0.113,0.037-0.314l-1.15-1.532
			c0.396-1.548,1.494-2.852,2.712-4.001l-0.547-0.544c0,0-0.948,0.863-1.466,1.48c-0.582,0.692-1.047,1.436-1.354,2.241
			l-1.592-1.875c-0.229,0.567-0.254,1.096,0.022,1.714c0.458,0.545,1.075,1.378,1.516,1.951c-0.194,0.986-1.46,1.477-1.908,2.367
			c0.125,0.295,0.304,0.728,0.452,1.043c0.513-0.945,1.628-1.664,2.198-2.568l1.381,1.605 M32.374,96.55l4.605,4.398
			c-1.226,0.871-4.022,2.598-3.968,3.62c0.057,1.017,0.392,0.883,0.315,1.493c-0.075,0.611-0.555,1.152-1.445,2.017
			c-0.364,0.364-0.692,1.418-0.766,1.621c-0.794-1.235-2.234-4.445-2.494-5.332c0.821-0.667,1.502-1.608,1.052-2.629
			C28.946,100.101,30.178,99.027,32.374,96.55z M33.326,106.061c0.077-0.61-0.258-0.476-0.315-1.493c0,0,0.014-0.155,0.037-0.314
			l-1.15-1.532c0.396-1.548,1.494-2.852,2.712-4.001l-0.547-0.544c0,0-1.07,1.021-1.466,1.48c-0.582,0.667-1.047,1.436-1.354,2.241
			l-1.592-1.875c-0.229,0.567-0.254,1.096,0.022,1.714c0.458,0.545,1.075,1.378,1.516,1.951c-0.194,0.986-1.46,1.477-1.908,2.367
			c0.125,0.295,0.304,0.728,0.452,1.043c0.513-0.945,1.628-1.664,2.198-2.568l1.381,1.605 M33.03,84.834
			c0.089,0.353-0.269,0.508-0.228,0.823c0.243,0.248,0.67,0.091,0.945,0.019l0.042,0.024c-0.301,0.318-0.755,0.659-0.687,1.133
			c0.198,0.279,0.62,0,0.794,0.34l0.344,0.015c0.202-0.342,0.117-0.842,0.194-1.226c0.256,0.271,0.43,0.84,0.898,0.728
			c0.251-0.068,0.14-0.382,0.208-0.569c0.113-0.159,0.351-0.281,0.274-0.502l-0.23-0.278c-0.425-0.043-0.848,0.059-1.227,0.192
			c-0.343-0.318-0.681-0.957-1.217-0.84L33.03,84.834z M33.559,83.59c0.407,0.372,1.015-0.01,1.477-0.111
			c0.251,0.311,0.57,0.621,0.962,0.795l0.341-0.123c0.176-0.147,0.033-0.382,0.007-0.571c0.045-0.206,0.297-0.415,0.115-0.602
			c-0.358-0.326-0.793,0.068-1.144,0.176c0.126-0.371,0.45-0.754,0.447-1.159l-0.299-0.163c-0.322,0.217-0.55-0.244-0.861-0.102
			c-0.299,0.371-0.072,0.901,0.025,1.325l-0.055-0.008c-0.199-0.192-0.482-0.553-0.822-0.459c-0.18,0.25,0.038,0.578-0.212,0.826
			L33.559,83.59z M45.314,84.847c-0.525-0.118-0.866,0.52-1.207,0.842c-0.382-0.141-0.809-0.239-1.238-0.194l-0.225,0.274
			c-0.082,0.217,0.155,0.351,0.274,0.498c0.073,0.195-0.048,0.505,0.209,0.578c0.46,0.105,0.647-0.461,0.891-0.725
			c0.089,0.378-0.006,0.871,0.21,1.22l0.327-0.014c0.184-0.34,0.609-0.072,0.802-0.34c0.067-0.48-0.387-0.822-0.692-1.137
			l0.04-0.022c0.286,0.069,0.71,0.232,0.948-0.019c0.04-0.317-0.324-0.479-0.229-0.829L45.314,84.847z M44.793,83.386
			c-0.256-0.245-0.045-0.574-0.239-0.82c-0.324-0.091-0.609,0.267-0.816,0.472l-0.042,0.007c0.095-0.425,0.31-0.96,0.004-1.331
			c-0.313-0.14-0.526,0.319-0.861,0.118l-0.299,0.17c0.004,0.404,0.339,0.782,0.465,1.152c-0.349-0.095-0.791-0.491-1.141-0.156
			c-0.185,0.198,0.08,0.398,0.126,0.6c-0.03,0.192-0.167,0.423,0.017,0.565l0.342,0.123c0.387-0.185,0.696-0.495,0.948-0.811
			c0.456,0.098,1.081,0.465,1.474,0.077L44.793,83.386z M46.828,101.177l0.295-0.322c-0.065-0.41,0.028-0.343-0.032-0.917
			l0.356,0.548l0.15-0.163c-0.266-0.404-0.454-0.824-0.759-1.194c-0.248,0.248-0.537,0.541-0.806,0.742l0.129,0.191l0.495-0.458
			c0.057,0.439-0.017,0.906,0.039,1.341L46.828,101.177z M45.825,99.513c0.303-0.184,0.553-0.486,0.784-0.73
			c-0.315-0.376-0.547-0.784-0.948-1.065l-0.084,0.123c0.151,0.201,0.382,0.398,0.514,0.614l-1.199-0.079l0.295,0.304l1.033,0.188
			l-0.528,0.451L45.825,99.513z"/>
		<path class="st1" d="M47.986,104.567l-0.836,0.988c-0.075,0.376-0.072,0.79-0.055,1.175l0.073,0.04
			c0.271-0.017,0.582,0.065,0.818-0.059c0.224-0.325,0.54-0.606,0.768-0.934C48.527,105.359,48.281,104.943,47.986,104.567"/>
		<path d="M23.582,57.937c0,0.192,0.261,0.257,0.166,0.46l-0.321,0.088c-0.18,0.067-0.341,0.129-0.527,0.082
			c-0.317-0.139-0.446-0.497-0.485-0.804c-0.214-0.053-0.123-0.233-0.063-0.354C22.808,57.455,23.38,57.419,23.582,57.937
			 M22.788,58.031l0.316,0.165l0.176-0.147c-0.093-0.185-0.136,0.111-0.254,0.087c-0.161-0.048-0.109-0.208-0.109-0.318
			L22.788,58.031z"/>
		<path d="M59.244,57.914l-0.001,0.304l-0.053,0.03c-0.014,0.223,0.052,0.479-0.114,0.675c-0.185,0.107-0.421,0.126-0.65,0.089
			l-0.242-0.163l-0.234,0.145l-0.144-0.207l0.336-0.318C58.3,58.04,58.805,57.797,59.244,57.914 M58.845,58.383
			c-0.156,0.021-0.256,0.138-0.373,0.231l0.032,0.072l0.247,0.05l0.136-0.265L58.845,58.383z"/>
		<path class="st1" d="M49.996,82.186l-0.082,0.083l0.043,0.158c0.321,0.083,0.706,0.043,1.011-0.01l-0.084-0.141
			C50.6,82.381,50.27,82.28,49.996,82.186"/>
		<path class="st1" d="M51.407,89.642c-0.239,0.443-0.623,0.873-0.997,1.251l0.092,0.17c0.196-0.066,0.351-0.252,0.555-0.262
			c0.184,0.494,0.436,0.986,0.545,1.497c-0.028,0.201-0.448,0.281-0.249,0.499c0.467-0.22,0.958-0.454,1.445-0.623
			c0.033-0.308-0.25-0.172-0.423-0.267C52.066,91.146,51.751,90.377,51.407,89.642"/>
		<path class="st1" d="M56.921,88.794c0.388,0.563,0.13,1.3-0.176,1.821c-0.216,0.378-0.575,0.689-0.938,0.905l-0.187-0.176
			c0.273-0.21,0.473-0.488,0.553-0.783l-0.013-0.035c-0.428,0.054-0.863-0.01-1.163-0.311c-0.197-0.212-0.261-0.491-0.246-0.801
			c0.037-0.491,0.503-0.798,0.908-0.959C56.093,88.295,56.673,88.367,56.921,88.794 M55.575,88.887
			c-0.118,0.205-0.176,0.458-0.113,0.703c0.082,0.224,0.234,0.457,0.445,0.576l0.371-0.046c0.212-0.315,0.154-0.775-0.046-1.086
			C56.119,88.794,55.766,88.664,55.575,88.887z"/>
		<path class="st1" d="M59.285,89.826c0.188,0.04,0.447,0.044,0.587-0.127l0.042,0.039l-0.182,0.473l-0.308,0.004
			c0.028,0.167,0.037,0.416,0.231,0.477c0.174-0.044,0.222,0.104,0.267,0.224v0.064c-0.498-0.029-0.894-0.021-1.371,0.029
			l-0.078-0.23l0.161-0.094c-0.059-0.147,0.021-0.457-0.211-0.457c-0.406,0.042-0.811,0.072-1.182,0.166l-0.131-0.415
			c0.479-0.517,0.84-1.104,1.207-1.686l0.445-0.026l0.062,0.094L59.285,89.826 M58.409,89.85l-0.206-0.697l-0.611,0.823l0.694-0.066
			L58.409,89.85z"/>
		<path class="st1" d="M54.388,89.233c0.113,0.27,0.06,0.645-0.134,0.851c0.25,0.082,0.545,0.167,0.674,0.432
			c0.189,0.296,0.052,0.689-0.111,0.939c-0.423,0.517-1.115,0.654-1.73,0.486c-0.226-0.072-0.407-0.299-0.512-0.506
			c-0.102-0.314,0.005-0.642,0.244-0.873l-0.328-0.17c-0.178-0.201-0.319-0.443-0.224-0.728c0.191-0.53,0.769-0.74,1.271-0.813
			C53.883,88.829,54.191,88.957,54.388,89.233 M53.25,89.229l-0.222,0.109l-0.059,0.463c0.076,0.147,0.203,0.313,0.361,0.364
			c0.157,0.042,0.343,0.022,0.42-0.145c0.033-0.149,0.02-0.378-0.047-0.542C53.619,89.316,53.457,89.197,53.25,89.229z
			 M53.754,90.485c-0.179,0.042-0.38,0.169-0.45,0.354c-0.024,0.29,0.118,0.578,0.378,0.744l0.396-0.001
			c0.152-0.072,0.277-0.231,0.281-0.389c0.06-0.227-0.082-0.382-0.191-0.549C54.048,90.551,53.918,90.478,53.754,90.485z"/>
		<path class="st1" d="M19.361,89.034c-0.165-0.007-0.194,0.177-0.201,0.275l0.465,0.006c-0.165,0.444-0.198,0.937-0.57,1.298
			c-0.154,0.112-0.418,0.116-0.391,0.368c0.515-0.071,1.121-0.053,1.644,0.012l0.082-0.25l-0.42-0.162
			c0.191-0.674,0.499-1.313,0.654-1.976C20.214,88.776,19.789,88.927,19.361,89.034"/>
		<path class="st1" d="M23.029,88.993l0.012,0.537c-0.078,0.169-0.227,0.32-0.407,0.353c0.157,0.17,0.247,0.371,0.247,0.595
			c-0.07,0.264-0.25,0.523-0.515,0.635c-0.515,0.151-1.154,0.151-1.572-0.235c-0.154-0.145-0.221-0.327-0.237-0.519
			c-0.014-0.208,0.095-0.354,0.247-0.506c0.143-0.109,0.324-0.102,0.485-0.167c-0.118-0.163-0.224-0.34-0.175-0.541
			c0.162-0.378,0.547-0.519,0.903-0.607C22.41,88.542,22.808,88.639,23.029,88.993 M21.934,88.877
			c-0.169,0.134-0.192,0.333-0.192,0.534l0.224,0.176l0.376-0.169c0.068-0.126,0.147-0.271,0.089-0.429
			C22.377,88.769,22.065,88.722,21.934,88.877z M21.653,89.871c-0.308,0.134-0.405,0.436-0.408,0.741l0.238,0.307
			c0.157,0.09,0.351,0.003,0.477-0.08c0.183-0.195,0.234-0.519,0.137-0.772C22.008,89.923,21.818,89.814,21.653,89.871z"/>
		<path class="st1" d="M25.381,89.389c0.1,0.244,0.065,0.482-0.11,0.69l-0.232,0.166c0.158,0.173,0.19,0.403,0.222,0.632
			c-0.064,0.32-0.296,0.645-0.617,0.73c-0.443,0.137-0.924-0.008-1.305-0.166c-0.184-0.216-0.403-0.422-0.376-0.737
			c-0.007-0.272,0.207-0.508,0.438-0.62l0.239-0.065c-0.19-0.219-0.194-0.549-0.089-0.809c0.279-0.328,0.744-0.434,1.167-0.307
			C24.979,88.977,25.263,89.117,25.381,89.389 M24.362,89.211c-0.186,0.082-0.208,0.278-0.226,0.458l0.156,0.335l0.328-0.037
			c0.134-0.17,0.308-0.408,0.182-0.652C24.739,89.133,24.497,89.117,24.362,89.211z M23.927,90.331
			c-0.21,0.184-0.287,0.461-0.244,0.708c0.034,0.151,0.167,0.274,0.342,0.264l0.376-0.255c0.098-0.172,0.098-0.401,0.086-0.606
			C24.4,90.211,24.084,90.207,23.927,90.331z"/>
		<path class="st1" d="M27.068,91.225c0.185,0.069,0.401,0.278,0.615,0.093c-0.077,0.17-0.257,0.324-0.389,0.47
			c-0.149,0-0.257-0.163-0.431-0.166c-0.069,0.169-0.219,0.338-0.187,0.548l0.234,0.158l-0.124,0.252
			c-0.389-0.192-0.795-0.364-1.201-0.497l0.075-0.237l0.243,0.022c0.138-0.166,0.229-0.349,0.273-0.538
			c-0.273-0.133-0.59-0.176-0.87-0.29l0.164-0.447c0.537-0.306,1.132-0.462,1.658-0.813l0.511,0.194L27.068,91.225 M26.595,90.435
			c-0.264,0.101-0.532,0.213-0.777,0.345l0.535,0.172L26.595,90.435z"/>
		<path class="st1" d="M33.216,90.067c0.266,0.397,0.398,1.025,0.131,1.455c-0.203,0.422-0.625,0.664-1.049,0.721
			c-0.537,0.062-1.011-0.082-1.361-0.488c-0.303-0.354-0.467-0.852-0.277-1.32c0.157-0.47,0.674-0.847,1.153-0.883
			C32.36,89.558,32.868,89.653,33.216,90.067 M31.621,90.136c-0.326,0.389-0.434,1.036-0.194,1.489
			c0.12,0.134,0.261,0.288,0.454,0.301c0.276-0.043,0.559-0.176,0.701-0.445c0.185-0.418,0.229-0.996-0.025-1.396
			C32.32,89.866,31.838,89.9,31.621,90.136z"/>
		<path class="st1" d="M48.055,89.743c0.211,0.35,0.324,0.783,0.187,1.191c-0.491,1.112-1.769,1.064-2.722,1.417l-0.503,0.089
			c-0.068-0.303-0.229-0.577-0.532-0.732c-0.23-0.006-0.478,0.037-0.707,0.094c-0.052,0.174,0.013,0.357,0.033,0.526l0.343,0.032
			l0.045,0.249c-0.762,0.224-1.547,0.322-2.366,0.405l-0.015-0.217l0.256-0.183c0.01-0.196-0.156-0.309-0.256-0.458l-1.394,0.126
			c-0.085,0.17-0.174,0.343-0.204,0.551c0.092,0.137,0.368-0.007,0.353,0.174l-0.066,0.19l-1.038,0.022l0.017-0.277
			c0.159-0.001,0.281-0.058,0.341-0.22c0.248-0.675,0.552-1.332,0.737-2.023l-0.139-0.126l-0.17,0.14
			c-0.453,0.841-0.889,1.704-1.301,2.57l-0.567-0.014c-0.136-0.475-0.234-0.971-0.413-1.435c-0.268,0.414-0.472,0.878-0.706,1.318
			l-0.386-0.015c-0.231-0.849-0.441-1.704-0.728-2.533L36.1,90.713c-0.149,0.768-0.243,1.561-0.385,2.332l-0.356-0.042
			c-0.378-0.635-0.754-1.302-1.187-1.891c-0.091,0.416-0.186,0.856-0.214,1.288c0.055,0.177,0.387,0.122,0.228,0.361l-0.048,0.017
			c-0.38-0.069-0.747-0.118-1.112-0.234c0-0.188,0.174-0.198,0.321-0.185l0.112-0.1l0.311-1.841
			c0.048-0.248-0.428-0.231-0.156-0.487l0.946,0.159c0.327,0.491,0.587,1.032,0.938,1.494c0.071-0.343,0.156-0.703,0.152-1.049
			l-0.297-0.176l0.068-0.21c0.582,0.113,1.242,0.104,1.819,0.191c-0.028,0.115,0.018,0.303-0.161,0.264l-0.042,0.043
			c0.069,0.392,0.199,0.769,0.322,1.14c0.15-0.177,0.254-0.414,0.351-0.627l-0.053-0.277c0.381-0.064,0.712,0.018,1.08,0.003
			l-0.082,0.232l0.316,1.133l0.103-0.116l0.605-1.237l-0.062-0.207l-0.252-0.012l-0.003-0.244c0.336-0.061,0.679-0.018,1.033-0.061
			h0.172l0.986-0.101l1.413,2.179l0.039-0.043l-0.278-1.926c-0.051-0.141-0.332,0.007-0.229-0.231l0.082-0.102
			c0.744-0.046,1.428-0.242,2.162-0.313c0.301,0.051,0.617,0.256,0.715,0.556c0.074,0.367-0.093,0.661-0.326,0.909
			c0.271,0.129,0.4,0.404,0.515,0.672l0.255,0.007l0.079-0.12l-0.45-1.843c-0.05-0.206-0.391,0.017-0.347-0.257l0.067-0.064
			C46.121,89.552,47.343,88.751,48.055,89.743 M46.288,89.775l0.542,1.852c0.182-0.022,0.361-0.086,0.503-0.195
			c0.315-0.481,0.221-1.132-0.109-1.57C47.003,89.565,46.559,89.602,46.288,89.775z M44.352,90.287
			c-0.273-0.072-0.525,0.05-0.781,0.108c-0.012,0.367,0.095,0.711,0.131,1.076l0.026,0.032c0.349-0.116,0.824,0.017,1.002-0.407
			c0.012-0.227-0.035-0.452-0.176-0.649L44.352,90.287z M41.611,91.849l-0.62-1.01c-0.179,0.365-0.321,0.761-0.438,1.137
			L41.611,91.849z"/>
		<path d="M55.799,58.853L55.6,58.908c0.034-0.189-0.199-0.083-0.279-0.165c-0.221-0.13-0.279-0.373-0.286-0.608
			c0.094-0.26-0.137-0.52-0.091-0.806c0.065-0.182,0.194-0.048,0.277-0.008C55.684,57.716,55.851,58.275,55.799,58.853
			 M55.346,58.138l-0.022,0.08l0.178,0.217L55.346,58.138z"/>
		<path d="M43.885,77.575l-1.046-0.014c-0.221-0.185-0.112-0.387-0.212-0.662c0.109-0.488,0.19-1.006,0.049-1.511l-0.152-0.426
			c0.055-0.152,0.162-0.289,0.339-0.289l0.264,0.398c-0.189,0.317,0.112,0.595,0.067,0.933h0.037l0.112,0.11l0.119-0.037
			c0.154-0.322,0.394-0.635,0.309-1.045c-0.276-0.262-0.369-0.694-0.714-0.911c-0.159-0.132-0.371-0.057-0.533,0
			c-0.295,0.079-0.393,0.676-0.757,0.455c-0.593-0.201-1.234-0.315-1.818-0.54c-0.349-0.196-0.605-0.533-0.977-0.644
			c-0.467-0.25-1.037-0.064-1.435,0.236l-0.364-0.025c-0.315-0.048-0.555,0.177-0.826,0.284c-0.308,0.197-0.199,0.526-0.277,0.829
			c0.011,0.431-0.192,0.771-0.126,1.197c0.281,0.224,0.246,0.733,0.649,0.848c0.156,0.065,0.236-0.026,0.341-0.116
			c0.211-0.02,0.176-0.317,0.309-0.234c0.158,0.214,0.329,0.501,0.559,0.629c0.065,0.228,0.089,0.231,0.052,0.478l-0.93,0.015
			l-0.341-0.015l0.028,0.463l6.752,0.037l0.555-0.021L43.885,77.575 M37.43,74.308l-0.386,0.331l-0.118-0.086
			c0.051-0.231,0.332-0.275,0.504-0.378V74.308z M38.813,77.504l-0.025,0.003l-0.271,0.025l-0.087-0.01l-0.062,0.005l-0.033-0.048
			l-0.013-0.403l0.043-0.187l0.048-0.094l0.025-0.02l0.053-0.024l0.199-0.05l0.052,0.003l0.058,0.11l0.014,0.194
			c0.05,0.14,0.042,0.29-0.012,0.459L38.813,77.504z M40.696,76.832l-0.059,0.335l-0.032,0.317l-0.017,0.091h-0.087l-1.32-0.017
			h-0.102l-0.006-0.098c-0.021-0.34,0.046-0.629,0.208-0.878l0.04-0.06l0.071,0.01l0.351,0.071c0.279,0.064,0.55,0.12,0.838,0.077
			h0.134L40.696,76.832z M42.096,77.561h-0.389c-0.249,0.014-0.495,0.027-0.709-0.003l-0.026-0.005l-0.026-0.02l-0.042-0.256
			l0.008-0.032l0.007-0.058l0.058-0.02l0.293-0.293l0.131-0.172l0.084-0.077l0.068,0.058l0.11,0.229l0.019,0.094l0.208,0.137
			l0.319,0.261l0.067,0.157H42.096z"/>
	</g>
</g>
<g>
</g>
<g>
</g>
<g>
</g>
<g>
</g>
<g>
</g>
<g>
</g>
</svg>
