<?xml version="1.0" encoding="utf-8"?>
<!-- Generator: Adobe Illustrator 19.0.0, SVG Export Plug-In . SVG Version: 6.00 Build 0)  -->
<svg version="1.1" id="Layer_1" xmlns="http://www.w3.org/2000/svg" xmlns:xlink="http://www.w3.org/1999/xlink" x="0px" y="0px"
	 viewBox="120 -80 960 640" style="enable-background:new 120 -80 960 640;" xml:space="preserve">
<style type="text/css">
	.st0{fill:#6B6B6B;}
	.st1{fill:#232323;}
</style>
<path class="st0" d="M249.1,139.3c-10,2-21.3,8.6-28.6,16.7c-9,10-9.6,12.1-24,78.5c-11.6,53.5-13.1,61.2-13.2,69.5
	c-0.1,8.6,0.1,9.7,2.9,15.5c5.2,11,13.1,17.6,24.9,20.7c4.7,1.2,15.9,1.4,79.3,1.3c82.4,0,79.9,0.2,91.9-6.6
	c10.5-5.8,20.2-16.9,23.8-27c1.9-5.1,7.1-28.5,6.6-29.7c-0.2-0.6-1.2,0.5-2.3,2.3c-1.1,1.8-4.2,5.2-6.8,7.7
	c-4.2,3.9-4.8,5.1-6.4,11.1c-2.3,8.9-3.5,11.2-9.8,18c-5.7,6.1-13.2,10.5-21.1,12.1c-3.2,0.7-20.9,0.9-51.8,0.8l-46.9-0.3l2.5-12.5
	c1.4-6.9,3.2-14.4,4.1-16.6l1.5-4l-2.9-3.3c-5.8-6.6-6.9-10.4-6.8-24.3c0-9.6,0.5-14.5,2-20.9c8.8-35.8,21.2-54.8,42.2-64.9
	c8.9-4.3,19.7-7.4,28.7-8.4c3-0.4,5.8-1.2,6.4-1.9c0.8-1-1-1.1-11.4-0.6c-11.6,0.5-12.5,0.4-14.8-1.4c-2-1.7-7.3-10.7-7.3-12.4
	c0-0.3-0.6-2-1.5-4l-1.4-3.4l-5.7,8.2c-3.2,4.5-7.7,10.2-10,12.6c-4.2,4.4-4.5,4.5-9.9,4.5c-4,0-8.2-0.8-13.5-2.8
	c-4.4-1.6-8.1-2.8-8.3-2.8c-0.2,0-0.2,11.7,0,26c0.4,23.5,0.3,26-1.1,26.5c-2,0.8-4.2-1.2-9.6-9.2c-2.5-3.7-4.8-6.9-5.2-7.1
	c-0.5-0.3-1.8,1.9-3,5c-1.2,3-3.2,6.5-4.4,7.7c-1.9,2-2.7,2.2-6.8,1.9c-5.1-0.6-18.3-5.4-18.8-7c-0.7-2.2,7.5-37.1,10-42.7
	c4.9-10.5,15.7-18.9,27.6-21.4c6.8-1.4,147.5-1.4,154.2,0c7.1,1.5,13,5.9,16.1,11.9c2,4.2,2.5,6.2,2.4,11.6
	c-0.1,3.6-0.4,7.8-0.7,9.4c-0.5,2.1-0.1,3.2,1.6,5.1c1.2,1.3,3.2,4.2,4.3,6.4l2,4l2.2-11c1.9-9.9,1.9-11.9,1-17.5
	c-2.9-16.2-14.1-28-29.7-31C397.7,138.2,254.7,138.2,249.1,139.3z M220,273.9c2.6,2.8,5.3,6.4,6,8.1c1.3,2.6,1.3,3.3-0.1,7.9
	c-0.9,2.7-2.7,6.5-3.9,8.4c-1.3,2-2.1,3.8-1.9,4.1c0.2,0.3,2.6-0.2,5.4-1c7.5-2.1,27.9-6.1,31.6-6.1c2.4,0,3.3,0.5,3.7,1.8
	c0.5,1.9-1.7,14.6-4.5,26.3l-1.8,7.3l-21.3-0.5c-24.5-0.4-26.6-0.8-33.1-7.1c-5.2-5.1-7.8-12.4-6.8-19.3c0.7-4.9,8.6-42.7,9.3-44.5
	C203.2,257.7,212.9,265.9,220,273.9z"/>
<path class="st1" d="M341.6,180.1c-23.6,3.2-41.1,12.7-51.3,27.6c-7.4,10.7-14,28.2-17.5,46.5c-3.7,19-2,29.1,5.9,36.9
	c5.2,5.1,10.9,7.7,21.8,10.2c8.5,1.9,39.8,2.8,51.7,1.4c33.7-3.9,53.1-16.5,60.2-39.2c1.3-4.1,2.3-7.8,2.3-8.4
	c0-0.6-9.5-0.7-25.1-0.6l-25.2,0.3l-2,6.5c-5.6,17.5-11.1,23.1-23.2,23.2c-18.2,0.1-19.4-7.6-7.5-49.6c8.3-29,13.5-36,27.9-36.8
	c12.5-0.7,16.5,4.1,13.9,16.7c-0.7,3.7-1.4,7-1.4,7.3c0,0.5,11.2,0.7,25.1,0.7h25l1-3.5c2-6.5,2.2-16.5,0.6-21
	c-3-7.8-11.6-13.5-25.6-16.8c-5.5-1.4-11.6-1.8-28.8-1.9C357.3,179.5,344.8,179.7,341.6,180.1z"/>
<path class="st1" d="M481.9,193.1c-26.3,2.2-37.8,11.4-45.4,36.2c-6.4,21.1-8.4,40.4-4.8,47.5c5.7,11.6,18.7,15.4,50.2,14.4
	c18.9-0.6,26.8-2,35-6.4c12.8-6.9,19.9-20.3,25.9-49.4c5.1-24.5,1.3-35.7-13.5-40C519.6,192.6,499.9,191.7,481.9,193.1z
	 M504.9,218.7c1.4,0.7,2.9,2.4,3.2,3.7c0.9,3.5-0.2,12.3-2.9,22.8c-3.7,14.8-6.8,19.2-14.7,21.2c-5.2,1.3-16.7,0.6-20.4-1
	c-4.9-2.3-5-9.6-0.6-27.1c4.3-16.8,7.7-20.4,20.3-21.3C495.3,216.6,502.3,217.4,504.9,218.7z"/>
<path class="st1" d="M598.3,193.1c-30.7,2.8-41.5,14.6-49.5,54.3c-4.4,21.2-2.3,32,7,37.8c6.9,4.2,13.7,5.6,31.2,6
	c48.4,1.5,61.7-7.9,71.3-50.3c3.3-14.6,4.1-27.7,1.9-33.3c-2.1-5.6-7.6-10.3-13.8-12.2C636.6,192.7,615.6,191.7,598.3,193.1z
	 M620.9,218.3c2.6,1.2,4.4,4.5,4.4,7.9c0,1.3-0.8,6.5-1.9,11.5c-4.2,20.3-7.5,26.7-15.2,28.7c-8,1.9-20.6,0.8-23.6-2
	c-0.7-0.7-1.5-3.2-1.8-5.4c-0.6-5.6,3.7-24.9,7.3-32.2c3.7-7.9,6.9-9.4,19.5-9.5C614.6,217.3,619.7,217.7,620.9,218.3z"/>
<path class="st1" d="M675.9,197c-1.2,5.2-19,88.4-19,89.1c0,0.4,6.4,0.7,14.3,0.7h14.3l0.6-4c1.8-10.4,12.5-66,13-66.3
	c0.6-0.7,0.8,0.1,7.9,32.8c3.6,16.8,7,32.2,7.5,34.1l0.9,3.5h24.4h24.3l9.8-45.3c5.4-24.9,9.6-45.5,9.4-45.9
	c-0.2-0.4-6.4-0.6-13.7-0.6c-11.8,0-13.5,0.2-14.2,1.6c-0.5,0.9-3.7,16.7-7.1,35.1c-3.5,18.4-6.5,33.6-6.7,33.8
	c-0.2,0.2-0.5,0.2-0.7-0.1c-0.3-0.2-3.8-15.4-7.9-33.8c-4.2-18.3-7.7-34.1-8-35c-0.5-1.5-2.4-1.6-24.5-1.6h-24.1L675.9,197z"/>
<path class="st1" d="M803,196.1c-0.2,0.6-4.5,20.6-9.7,44.3c-5.2,23.8-9.6,43.9-9.8,44.8c-0.5,1.5,1.9,1.6,45.3,1.4l45.7-0.3l2-9.3
	c1.1-5,1.9-9.5,1.6-9.8c-0.2-0.5-13-0.7-28.4-0.8c-15.4,0-28.2-0.2-28.4-0.5c-0.4-0.4,0.6-5.5,2.7-13.6l0.9-3.5l26.6-0.2l26.6-0.3
	l1-4.7c0.6-2.7,1.3-6.3,1.7-8.2l0.6-3.3h-26.5c-14.6,0-26.4-0.3-26.3-0.7c0-0.4,0.7-4,1.7-8.1l1.6-7.4l28.4-0.3l28.4-0.2l1.9-8.3
	c1.1-4.5,1.9-9.1,1.9-10.2V195H848C813.1,195,803.3,195.3,803,196.1z"/>
<path class="st1" d="M908.3,195.5c0,0.4,3.5,18.8,8,41l7.9,40.3l-2.5,3.9c-6.3,9.6-12.6,17.3-15.2,18.6c-1.6,0.8-6.3,1.9-10.5,2.4
	c-4.2,0.6-113.8,5.5-243.7,11.1s-236.7,10.3-237.2,10.6c-0.6,0.2-1.2,1.3-1.2,2.3v1.9l251.7-0.2l251.6-0.3l3.7-2
	c6.4-3.4,3.2,0.7,57.5-75.9c10.1-14.3,22.9-32.3,28.4-39.9l10-13.9l-19.2-0.3c-10.6-0.1-19.7,0-20.2,0.2
	c-0.6,0.2-7.9,11.8-16.2,25.8L946,246.4l-2.8-25.5l-2.8-25.5l-16-0.3C915.5,195.1,908.3,195.3,908.3,195.5z"/>
</svg>
