<?xml version="1.0" encoding="utf-8"?>
<!-- Generator: Adobe Illustrator 19.0.0, SVG Export Plug-In . SVG Version: 6.00 Build 0)  -->
<svg version="1.1" id="Layer_1" xmlns="http://www.w3.org/2000/svg" xmlns:xlink="http://www.w3.org/1999/xlink" x="0px" y="0px"
	 viewBox="0 0 720 480" style="enable-background:new 0 0 720 480;" xml:space="preserve">
<style type="text/css">
	.st0{fill-rule:evenodd;clip-rule:evenodd;fill:#2C9C5D;}
</style>
<g>
	<path class="st0" d="M469.873,221.266c-0.9-0.449-1.913-1.125-2.925-1.462c-4.839-2.138-9.902-2.475-11.702-2.475
		c-10.127,0-15.752,5.288-18.34,8.439c-3.263,4.05-4.951,9.226-4.951,14.515c0,6.525,2.475,12.939,7.426,17.214
		c5.626,5.064,12.039,5.401,14.852,5.401c7.539,0,12.827-2.926,15.302-4.388l-2.025-3.714c-4.051,2.026-7.764,3.714-12.49,3.714
		c-7.763,0-12.04-4.388-13.614-6.638c-3.376-4.501-3.601-9.676-3.601-11.702c0-2.475,0.338-9.451,6.077-14.402
		c4.5-3.826,9.226-4.051,11.476-4.051c4.839,0,7.427,1.013,9.34,1.913c1.012,0.562,2.025,1.125,3.038,1.688L469.873,221.266
		L469.873,221.266z"/>
	<polygon class="st0" points="475.95,217.553 475.95,262.109 499.803,262.109 499.803,257.609 481.35,257.609 481.35,241.519 
		498.902,241.519 498.902,237.019 481.463,237.019 481.463,221.941 499.353,221.941 499.353,217.553 475.95,217.553 	"/>
	<path class="st0" d="M513.868,217.665l-7.877,43.77l5.176,0.9c0.676-4.388,1.35-8.776,2.138-13.164
		c0.675-4.051,1.463-8.214,2.025-12.377c0.788-4.388,1.238-8.89,1.801-13.39c0.563,2.138,1.013,4.276,1.688,6.526
		c0.451,1.237,1.013,2.587,1.462,3.826c1.463,3.826,2.814,7.651,4.164,11.589c2.025,5.626,3.938,11.139,6.076,16.765h5.063
		c2.701-7.426,5.513-14.852,8.439-22.278c0.45-1.463,1.013-2.926,1.575-4.388c0.675-1.801,1.35-3.488,2.025-5.288
		c0.9-2.251,1.576-4.613,2.363-6.977c0.112,4.839,0.337,7.539,1.688,16.428c1.125,7.651,2.25,15.302,3.488,22.954l5.176-1.013
		l-7.089-43.994h-5.401c-1.575,4.05-3.263,8.101-4.726,12.152c-1.35,3.263-2.475,6.413-3.714,9.676
		c-1.125,3.038-2.362,5.964-3.6,9.002c-0.9,2.589-1.801,5.288-2.701,7.989c-0.449-1.8-0.9-3.6-1.576-5.288
		c-0.787-2.589-1.8-4.951-2.7-7.539l-3.038-8.889c-2.026-5.738-4.051-11.252-6.077-16.99H513.868L513.868,217.665z"/>
	<polygon class="st0" points="567.201,217.553 567.201,262.109 591.055,262.109 591.055,257.609 572.601,257.609 572.601,241.519 
		590.154,241.519 590.154,237.019 572.715,237.019 572.715,221.941 590.717,221.941 590.717,217.553 567.201,217.553 	"/>
	<path class="st0" d="M598.593,219.241v42.757h4.951V234.43c0-1.462,0-2.813-0.112-4.275c0-1.689-0.225-3.488-0.45-5.289
		c1.688,3.038,2.026,3.488,5.176,7.876c3.038,4.051,5.964,8.214,9.002,12.265c4.163,5.851,8.439,11.589,12.602,17.44l4.276-1.913
		v-42.981h-4.952v28.017c0,3.826,0,5.513,0.563,9.226c-0.676-1.462-1.35-2.812-2.251-4.163c-1.125-2.025-2.475-3.826-3.938-5.738
		c-2.813-4.05-5.851-7.989-8.776-11.926c-3.826-5.288-7.651-10.464-11.365-15.753L598.593,219.241L598.593,219.241z"/>
	<polygon class="st0" points="639.212,217.553 639.212,222.053 653.389,222.053 653.389,261.997 659.016,261.997 659.016,221.941 
		673.08,221.941 673.08,217.553 639.212,217.553 	"/>
	<path class="st0" d="M384.247,261.772l-7.876-14.065c-1.125-1.913-2.475-4.164-4.613-5.289c-0.449-0.337-0.562-0.449-1.125-0.562
		c0.676-0.112,1.238-0.112,1.913-0.337c1.35-0.337,2.475-0.9,2.814-1.125c1.349-0.676,2.362-1.462,3.262-2.589
		c1.689-2.025,2.475-5.063,2.475-7.763c0.113-3.488-1.237-5.964-2.025-7.089c-3.375-5.063-9.676-5.513-15.19-5.513
		c-3.939,0-7.876-0.112-11.814,0h-4.839v44.332h11.14v-16.653h1.688c0.9,0.113,1.688,0.225,2.362,0.563
		c1.125,0.562,1.913,2.026,3.038,4.163l5.964,11.927H384.247L384.247,261.772z M358.369,236.568v-10.577h5.063
		c0.9,0,1.913,0,2.7,0.338c3.263,0.9,3.6,3.712,3.6,4.838c0.112,1.801-0.675,2.926-1.238,3.488c-1.463,1.463-3.15,1.688-5.063,1.801
		c-0.563,0-1.237,0.112-1.801,0.112H358.369L358.369,236.568z"/>
	<path class="st0" d="M414.29,252.545v-14.515h11.252l-0.451,21.491c-1.688,0.562-3.488,1.012-5.288,1.35
		c-1.013,0.224-3.038,0.787-5.513,1.125c-1.801,0.112-3.714,0.337-5.514,0.337c-0.112,0-0.224,0-0.224,0
		c-5.964,0-11.252-1.35-15.978-5.064c-2.925-2.362-7.875-7.65-7.875-17.102c0-2.475,0.337-8.326,4.5-13.839
		c0.9-1.125,3.038-3.6,6.301-5.738c2.701-1.688,6.638-3.488,13.84-3.488c7.088,0,11.814,1.688,14.515,2.701l-2.926,7.989
		c-0.9-0.337-1.913-0.675-2.813-1.013c-2.138-0.675-4.839-1.125-7.202-1.125c-1.012,0-3.6,0.113-6.301,1.238
		c-7.426,3.375-8.101,11.027-8.101,13.39c0,0.9,0,2.925,1.012,5.288c2.475,5.963,7.765,7.651,11.027,7.988c0.449,0,0.9,0,1.35,0
		C411.927,253.67,413.502,252.996,414.29,252.545L414.29,252.545z"/>
	<polygon class="st0" points="340.591,235.106 321.575,235.106 321.575,226.667 340.591,226.667 340.591,217.553 310.211,217.553 
		310.211,261.884 340.591,261.884 340.591,252.771 321.575,252.771 321.575,243.994 340.591,243.994 340.591,235.106 	"/>
	<polygon class="st0" points="227.06,235.106 208.045,235.106 208.045,226.667 227.06,226.667 227.06,217.553 196.681,217.553 
		196.681,261.884 227.06,261.884 227.06,252.771 208.045,252.771 208.045,243.994 227.06,243.994 227.06,235.106 	"/>
	<polygon class="st0" points="245.401,217.553 233.7,217.553 233.7,261.884 264.642,261.884 264.642,252.208 245.401,252.208 
		245.401,217.553 	"/>
	<path class="st0" d="M159.1,261.772h-11.814v-44.219h13.278c2.025-0.113,4.163,0,6.188,0c1.238,0,2.475,0,3.826,0.112
		c2.026,0.112,7.651,0.563,12.602,4.276c3.151,2.362,8.102,7.651,8.102,17.327c0,1.35-0.113,4.5-1.35,7.989
		c-2.25,6.413-7.426,11.364-14.064,13.39c-2.138,0.674-4.839,1.237-9.677,1.237h-1.35L159.1,261.772L159.1,261.772z
		 M164.838,252.996c4.164-0.113,8.102-1.013,11.252-4.613c1.238-1.463,3.151-4.276,3.151-9.002c0-3.826-1.238-6.301-2.138-7.538
		c-3.038-4.501-7.651-5.513-12.939-5.513c-1.688,0-3.375,0-5.064,0v26.553L164.838,252.996L164.838,252.996z"/>
	<path class="st0" d="M281.744,261.772h-11.252v-44.219h18.34c6.413,0.112,9.676,1.012,12.039,3.038c1.575,1.35,3.6,3.712,3.6,8.663
		c0,0.901,0,1.463-0.225,2.251c-0.225,1.125-0.9,4.388-3.826,6.525c-1.013,0.676-1.913,1.125-3.038,1.576
		c1.013,0.337,3.375,1.238,5.288,3.375c1.688,2.026,2.475,4.388,2.475,6.977c0,6.076-3.601,8.888-5.738,10.014
		c-2.813,1.575-5.963,1.913-11.926,1.913L281.744,261.772L281.744,261.772z M287.483,253.221c1.462,0,2.475-0.113,3.15-0.338
		c1.125-0.449,2.814-1.462,2.814-4.163c0-0.449-0.113-1.574-0.788-2.701c-1.35-2.137-3.713-2.137-5.964-2.137h-4.951v9.339H287.483
		L287.483,253.221z M281.744,235.33h5.625c3.039-0.112,4.276-0.449,5.176-1.8c0.338-0.45,0.788-1.35,0.788-2.588
		c0-0.562,0-2.025-1.012-3.15c-1.35-1.801-3.488-1.801-5.401-1.801h-5.176V235.33L281.744,235.33z"/>
	<polygon class="st0" points="46.92,229.367 58.397,229.367 58.397,217.777 46.92,217.777 46.92,229.367 	"/>
	<polygon class="st0" points="84.614,217.777 73.024,217.777 73.024,235.106 47.032,235.106 47.032,262.109 58.509,262.109 
		58.509,244.557 73.024,244.557 73.024,262.109 84.614,262.109 84.614,217.777 	"/>
	<polygon class="st0" points="122.082,235.106 102.953,235.106 102.953,226.667 122.082,226.667 122.082,217.553 91.702,217.553 
		91.702,261.884 122.082,261.884 122.082,252.771 102.953,252.771 102.953,243.994 122.082,243.994 122.082,235.106 	"/>
	<polygon class="st0" points="128.608,261.884 140.422,261.884 140.422,217.553 128.608,217.553 128.608,261.884 	"/>
</g>
</svg>
