<?xml version="1.0" encoding="utf-8"?>
<!-- Generator: Adobe Illustrator 19.0.0, SVG Export Plug-In . SVG Version: 6.00 Build 0)  -->
<svg version="1.1" id="Layer_1" xmlns="http://www.w3.org/2000/svg" xmlns:xlink="http://www.w3.org/1999/xlink" x="0px" y="0px"
	 viewBox="0 0 720 480" style="enable-background:new 0 0 720 480;" xml:space="preserve">
<style type="text/css">
	.st0{fill:#232323;}
</style>
<g>
	<path class="st0" d="M460,222.9c-0.8-0.4-1.7-1-2.7-1.3c-4.4-1.9-9-2.3-10.7-2.3c-9.2,0-14.3,4.8-16.7,7.7c-3,3.7-4.5,8.4-4.5,13.2
		c0,5.9,2.3,11.8,6.8,15.7c5.1,4.6,11,4.9,13.5,4.9c6.9,0,11.7-2.7,13.9-4l-1.8-3.4c-3.7,1.8-7.1,3.4-11.4,3.4c-7.1,0-11-4-12.4-6
		c-3.1-4.1-3.3-8.8-3.3-10.7c0-2.3,0.3-8.6,5.5-13.1c4.1-3.5,8.4-3.7,10.4-3.7c4.4,0,6.8,0.9,8.5,1.7c0.9,0.5,1.8,1,2.8,1.5
		L460,222.9L460,222.9z"/>
	<polygon class="st0" points="465.6,219.6 465.6,260.1 487.3,260.1 487.3,256 470.5,256 470.5,241.4 486.4,241.4 486.4,237.3 
		470.6,237.3 470.6,223.6 486.9,223.6 486.9,219.6 	"/>
	<path class="st0" d="M500.1,219.7l-7.2,39.8l4.7,0.8c0.6-4,1.2-8,1.9-12c0.6-3.7,1.3-7.5,1.8-11.3c0.7-4,1.1-8.1,1.6-12.2
		c0.5,1.9,0.9,3.9,1.5,5.9c0.4,1.1,0.9,2.4,1.3,3.5c1.3,3.5,2.6,7,3.8,10.5c1.8,5.1,3.6,10.1,5.5,15.3h4.6c2.5-6.8,5-13.5,7.7-20.3
		c0.4-1.3,0.9-2.7,1.4-4c0.6-1.6,1.2-3.2,1.8-4.8c0.8-2,1.4-4.2,2.2-6.4c0.1,4.4,0.3,6.9,1.5,15c1,7,2,13.9,3.2,20.9l4.7-0.9
		l-6.5-40H531c-1.4,3.7-3,7.4-4.3,11.1c-1.2,3-2.3,5.8-3.4,8.8c-1,2.8-2.2,5.4-3.3,8.2c-0.8,2.4-1.6,4.8-2.5,7.3
		c-0.4-1.6-0.8-3.3-1.4-4.8c-0.7-2.4-1.6-4.5-2.5-6.9l-2.8-8.1c-1.8-5.2-3.7-10.2-5.5-15.5L500.1,219.7L500.1,219.7z"/>
	<polygon class="st0" points="548.6,219.6 548.6,260.1 570.3,260.1 570.3,256 553.5,256 553.5,241.4 569.5,241.4 569.5,237.3 
		553.6,237.3 553.6,223.6 570,223.6 570,219.6 	"/>
	<path class="st0" d="M577.2,221.1V260h4.5v-25.1c0-1.3,0-2.6-0.1-3.9c0-1.5-0.2-3.2-0.4-4.8c1.5,2.8,1.8,3.2,4.7,7.2
		c2.8,3.7,5.4,7.5,8.2,11.2c3.8,5.3,7.7,10.5,11.5,15.9l3.9-1.7v-39.1H605v25.5c0,3.5,0,5,0.5,8.4c-0.6-1.3-1.2-2.6-2-3.8
		c-1-1.8-2.3-3.5-3.6-5.2c-2.6-3.7-5.3-7.3-8-10.9c-3.5-4.8-7-9.5-10.3-14.3L577.2,221.1L577.2,221.1z"/>
	<polygon class="st0" points="614.2,219.6 614.2,223.7 627.1,223.7 627.1,260 632.2,260 632.2,223.6 645,223.6 645,219.6 	"/>
	<path class="st0" d="M382.1,259.8l-7.2-12.8c-1-1.7-2.3-3.8-4.2-4.8c-0.4-0.3-0.5-0.4-1-0.5c0.6-0.1,1.1-0.1,1.7-0.3
		c1.2-0.3,2.3-0.8,2.6-1c1.2-0.6,2.2-1.3,3-2.4c1.5-1.8,2.3-4.6,2.3-7.1c0.1-3.2-1.1-5.4-1.8-6.5c-3.1-4.6-8.8-5-13.8-5
		c-3.6,0-7.2-0.1-10.8,0h-4.4v40.4h10.1v-15.2h1.5c0.8,0.1,1.5,0.2,2.2,0.5c1,0.5,1.7,1.8,2.8,3.8l5.4,10.9L382.1,259.8L382.1,259.8
		z M358.5,236.9v-9.6h4.6c0.8,0,1.7,0,2.5,0.3c3,0.8,3.3,3.4,3.3,4.4c0.1,1.6-0.6,2.7-1.1,3.2c-1.3,1.3-2.9,1.5-4.6,1.6
		c-0.5,0-1.1,0.1-1.6,0.1H358.5L358.5,236.9z"/>
	<path class="st0" d="M409.4,251.4v-13.2h10.2l-0.4,19.6c-1.5,0.5-3.2,0.9-4.8,1.2c-0.9,0.2-2.8,0.7-5,1c-1.6,0.1-3.4,0.3-5,0.3
		c-0.1,0-0.2,0-0.2,0c-5.4,0-10.2-1.2-14.5-4.6c-2.7-2.2-7.2-7-7.2-15.6c0-2.3,0.3-7.6,4.1-12.6c0.8-1,2.8-3.3,5.7-5.2
		c2.5-1.5,6-3.2,12.6-3.2c6.5,0,10.8,1.5,13.2,2.5l-2.7,7.3c-0.8-0.3-1.7-0.6-2.6-0.9c-1.9-0.6-4.4-1-6.6-1c-0.9,0-3.3,0.1-5.7,1.1
		c-6.8,3.1-7.4,10-7.4,12.2c0,0.8,0,2.7,0.9,4.8c2.3,5.4,7.1,7,10,7.3c0.4,0,0.8,0,1.2,0C407.3,252.4,408.7,251.8,409.4,251.4
		L409.4,251.4z"/>
	<polygon class="st0" points="342.3,235.5 325,235.5 325,227.9 342.3,227.9 342.3,219.6 314.7,219.6 314.7,259.9 342.3,259.9 
		342.3,251.6 325,251.6 325,243.6 342.3,243.6 	"/>
	<polygon class="st0" points="239,235.5 221.7,235.5 221.7,227.9 239,227.9 239,219.6 211.3,219.6 211.3,259.9 239,259.9 239,251.6 
		221.7,251.6 221.7,243.6 239,243.6 	"/>
	<polygon class="st0" points="255.7,219.6 245,219.6 245,259.9 273.2,259.9 273.2,251.1 255.7,251.1 	"/>
	<path class="st0" d="M177.1,259.8h-10.8v-40.3h12.1c1.8-0.1,3.8,0,5.6,0c1.1,0,2.3,0,3.5,0.1c1.8,0.1,7,0.5,11.5,3.9
		c2.9,2.2,7.4,7,7.4,15.8c0,1.2-0.1,4.1-1.2,7.3c-2,5.8-6.8,10.3-12.8,12.2c-1.9,0.6-4.4,1.1-8.8,1.1h-1.2L177.1,259.8L177.1,259.8z
		 M182.3,251.8c3.8-0.1,7.4-0.9,10.2-4.2c1.1-1.3,2.9-3.9,2.9-8.2c0-3.5-1.1-5.7-1.9-6.9c-2.8-4.1-7-5-11.8-5c-1.5,0-3.1,0-4.6,0
		v24.2L182.3,251.8L182.3,251.8z"/>
	<path class="st0" d="M288.8,259.8h-10.2v-40.3h16.7c5.8,0.1,8.8,0.9,11,2.8c1.4,1.2,3.3,3.4,3.3,7.9c0,0.8,0,1.3-0.2,2
		c-0.2,1-0.8,4-3.5,5.9c-0.9,0.6-1.7,1-2.8,1.4c0.9,0.3,3.1,1.1,4.8,3.1c1.5,1.8,2.3,4,2.3,6.4c0,5.5-3.3,8.1-5.2,9.1
		c-2.6,1.4-5.4,1.7-10.9,1.7L288.8,259.8L288.8,259.8z M294,252c1.3,0,2.3-0.1,2.9-0.3c1-0.4,2.6-1.3,2.6-3.8c0-0.4-0.1-1.4-0.7-2.5
		c-1.2-1.9-3.4-1.9-5.4-1.9h-4.5v8.5L294,252L294,252z M288.8,235.7h5.1c2.8-0.1,3.9-0.4,4.7-1.6c0.3-0.4,0.7-1.2,0.7-2.4
		c0-0.5,0-1.8-0.9-2.9c-1.2-1.6-3.2-1.6-4.9-1.6h-4.7V235.7L288.8,235.7z"/>
	<polygon class="st0" points="75,230.3 85.4,230.3 85.4,219.8 75,219.8 	"/>
	<polygon class="st0" points="109.3,219.8 98.8,219.8 98.8,235.5 75.1,235.5 75.1,260.1 85.5,260.1 85.5,244.1 98.8,244.1 
		98.8,260.1 109.3,260.1 	"/>
	<polygon class="st0" points="143.4,235.5 126,235.5 126,227.9 143.4,227.9 143.4,219.6 115.8,219.6 115.8,259.9 143.4,259.9 
		143.4,251.6 126,251.6 126,243.6 143.4,243.6 	"/>
	<polygon class="st0" points="149.4,259.9 160.1,259.9 160.1,219.6 149.4,219.6 	"/>
</g>
</svg>
