<?xml version="1.0" encoding="utf-8"?>
<!-- Generator: Adobe Illustrator 19.0.0, SVG Export Plug-In . SVG Version: 6.00 Build 0)  -->
<svg version="1.1" id="Layer_1" xmlns="http://www.w3.org/2000/svg" xmlns:xlink="http://www.w3.org/1999/xlink" x="0px" y="0px"
	 viewBox="0 0 720 480" style="enable-background:new 0 0 720 480;" xml:space="preserve">
<style type="text/css">
	.st0{enable-background:new    ;}
	.st1{fill:#52AC5F;}
</style>
<g class="st0">
	<path class="st1" d="M69.8,203.5c0,0.4-0.1,0.7-0.4,1c-0.2,0.3-0.6,0.5-1.2,0.7c-0.5,0.2-1.3,0.3-2.2,0.4c-0.9,0.1-2.1,0.2-3.5,0.2
		c-1.4,0-2.5-0.1-3.4-0.2s-1.6-0.3-2.2-0.4c-0.5-0.2-0.9-0.4-1.2-0.7c-0.2-0.3-0.4-0.6-0.4-1v-66.1c0-0.4,0.1-0.7,0.4-1
		c0.2-0.3,0.6-0.5,1.2-0.7c0.6-0.2,1.3-0.3,2.2-0.4c0.9-0.1,2-0.2,3.4-0.2c1.4,0,2.6,0.1,3.5,0.2c0.9,0.1,1.6,0.3,2.2,0.4
		c0.5,0.2,0.9,0.4,1.2,0.7c0.2,0.3,0.4,0.6,0.4,1V203.5z"/>
	<path class="st1" d="M126.5,184.4c0,3.7-0.7,6.9-2.1,9.7c-1.4,2.8-3.2,5.1-5.6,6.9c-2.3,1.9-5.1,3.3-8.2,4.2
		c-3.1,0.9-6.5,1.4-10.1,1.4c-2.4,0-4.7-0.2-6.7-0.6c-2.1-0.4-3.9-0.9-5.5-1.4c-1.6-0.6-2.9-1.1-4-1.8c-1.1-0.6-1.8-1.2-2.3-1.6
		c-0.5-0.5-0.8-1.1-1-2c-0.2-0.9-0.3-2.2-0.3-3.8c0-1.1,0-2.1,0.1-2.8c0.1-0.8,0.2-1.4,0.4-1.8s0.4-0.8,0.6-1
		c0.3-0.2,0.6-0.3,0.9-0.3c0.5,0,1.2,0.3,2.1,0.9s2.1,1.3,3.5,2c1.4,0.7,3.2,1.4,5.2,2c2,0.6,4.3,0.9,6.9,0.9c1.7,0,3.3-0.2,4.6-0.6
		c1.4-0.4,2.5-1,3.5-1.8c1-0.8,1.7-1.7,2.2-2.8c0.5-1.1,0.8-2.4,0.8-3.7c0-1.6-0.4-2.9-1.3-4.1c-0.9-1.1-2-2.1-3.4-3
		c-1.4-0.9-3-1.7-4.7-2.5c-1.8-0.8-3.6-1.6-5.5-2.5c-1.9-0.9-3.7-1.8-5.5-2.9c-1.8-1.1-3.3-2.4-4.7-3.9c-1.4-1.5-2.5-3.3-3.4-5.4
		c-0.9-2.1-1.3-4.6-1.3-7.5c0-3.4,0.6-6.3,1.9-8.8c1.2-2.5,2.9-4.6,5-6.3s4.6-2.9,7.5-3.8c2.9-0.8,5.9-1.2,9.1-1.2
		c1.7,0,3.3,0.1,5,0.4c1.7,0.3,3.2,0.6,4.6,1c1.4,0.4,2.7,0.9,3.8,1.5c1.1,0.5,1.9,1,2.2,1.4c0.4,0.4,0.6,0.7,0.7,0.9
		c0.1,0.3,0.2,0.6,0.3,1c0.1,0.4,0.2,0.9,0.2,1.6c0,0.6,0.1,1.4,0.1,2.4c0,1,0,1.9-0.1,2.6c-0.1,0.7-0.1,1.3-0.3,1.8
		c-0.1,0.5-0.3,0.8-0.5,1c-0.2,0.2-0.5,0.3-0.9,0.3c-0.4,0-1-0.3-1.9-0.8c-0.9-0.5-1.9-1.1-3.2-1.6c-1.3-0.6-2.7-1.1-4.4-1.6
		c-1.7-0.5-3.5-0.7-5.5-0.7c-1.5,0-2.9,0.2-4.1,0.6c-1.2,0.4-2.1,0.9-2.9,1.6c-0.8,0.7-1.4,1.5-1.7,2.4c-0.4,0.9-0.6,1.9-0.6,3
		c0,1.5,0.4,2.9,1.3,4c0.8,1.1,2,2.1,3.4,3c1.4,0.9,3,1.7,4.8,2.5c1.8,0.8,3.6,1.6,5.5,2.5c1.9,0.9,3.7,1.8,5.5,2.9
		c1.8,1.1,3.4,2.4,4.8,3.9c1.4,1.5,2.5,3.3,3.4,5.4C126,179.2,126.5,181.6,126.5,184.4z"/>
	<path class="st1" d="M175.8,199.5c0,1.1,0,2-0.1,2.7c-0.1,0.7-0.2,1.4-0.4,1.8c-0.2,0.5-0.4,0.8-0.7,1.1c-0.3,0.2-0.6,0.3-0.9,0.3
		h-32.1c-1.2,0-2.2-0.4-3-1.1c-0.8-0.7-1.2-1.8-1.2-3.4v-63.5c0-0.4,0.1-0.7,0.4-1c0.2-0.3,0.6-0.5,1.2-0.7c0.5-0.2,1.3-0.3,2.2-0.4
		c0.9-0.1,2.1-0.2,3.4-0.2c1.4,0,2.6,0.1,3.5,0.2c0.9,0.1,1.6,0.3,2.2,0.4c0.5,0.2,0.9,0.4,1.2,0.7c0.2,0.3,0.4,0.6,0.4,1v56.3h22
		c0.4,0,0.7,0.1,0.9,0.3c0.3,0.2,0.5,0.5,0.7,1c0.2,0.5,0.3,1,0.4,1.8C175.7,197.5,175.8,198.4,175.8,199.5z"/>
	<path class="st1" d="M241.5,200.1c0.4,1.3,0.7,2.3,0.8,3.1c0.1,0.8,0,1.3-0.4,1.7c-0.4,0.4-1.1,0.6-2.1,0.7c-1,0.1-2.4,0.1-4.2,0.1
		c-1.8,0-3.3,0-4.3-0.1c-1-0.1-1.8-0.2-2.4-0.3c-0.5-0.2-0.9-0.4-1.1-0.7c-0.2-0.3-0.4-0.7-0.5-1.1l-4.7-14.1h-26.3l-4.4,13.7
		c-0.1,0.5-0.3,0.9-0.6,1.3c-0.2,0.3-0.6,0.6-1.1,0.8c-0.5,0.2-1.3,0.3-2.2,0.4c-1,0.1-2.2,0.1-3.8,0.1c-1.7,0-3-0.1-3.9-0.2
		c-0.9-0.1-1.6-0.4-1.9-0.8c-0.4-0.4-0.5-1-0.4-1.8c0.1-0.8,0.4-1.8,0.8-3l21.6-62.1c0.2-0.6,0.5-1.1,0.8-1.5
		c0.3-0.4,0.7-0.7,1.4-0.9c0.6-0.2,1.5-0.3,2.6-0.4c1.1-0.1,2.6-0.1,4.4-0.1c2.1,0,3.8,0,5.1,0.1c1.3,0.1,2.2,0.2,2.9,0.4
		c0.7,0.2,1.2,0.5,1.5,0.9c0.3,0.4,0.6,0.9,0.8,1.6L241.5,200.1z M209.3,148.8L209.3,148.8l-9.9,29.7h19.8L209.3,148.8z"/>
	<path class="st1" d="M308.9,200.5c0,0.8-0.1,1.6-0.4,2.2c-0.3,0.6-0.7,1.2-1.2,1.6c-0.5,0.4-1.1,0.7-1.7,0.9
		c-0.7,0.2-1.3,0.3-2,0.3h-6.1c-1.3,0-2.4-0.1-3.3-0.4c-0.9-0.3-1.8-0.7-2.5-1.4c-0.8-0.7-1.5-1.6-2.2-2.7c-0.7-1.1-1.5-2.6-2.4-4.4
		L269.6,164c-1-1.9-2-4-3.1-6.3c-1-2.3-2-4.4-2.8-6.6h-0.1c0.1,2.6,0.3,5.2,0.3,7.8c0.1,2.6,0.1,5.2,0.1,8v36.6c0,0.4-0.1,0.7-0.3,1
		c-0.2,0.3-0.5,0.5-1,0.7c-0.5,0.2-1.1,0.4-2,0.5c-0.8,0.1-1.9,0.2-3.2,0.2c-1.3,0-2.3-0.1-3.1-0.2c-0.8-0.1-1.5-0.3-1.9-0.5
		c-0.5-0.2-0.8-0.4-1-0.7c-0.2-0.3-0.3-0.6-0.3-1v-62.9c0-1.7,0.5-3,1.5-3.8c1-0.8,2.2-1.3,3.6-1.3h7.6c1.4,0,2.5,0.1,3.5,0.4
		c0.9,0.2,1.8,0.6,2.5,1.2c0.7,0.5,1.4,1.3,2.1,2.2c0.6,1,1.3,2.1,2,3.5l13.6,25.6c0.8,1.5,1.6,3.1,2.4,4.6c0.8,1.5,1.5,3,2.2,4.5
		c0.7,1.5,1.4,3,2.1,4.4c0.7,1.4,1.4,2.9,2,4.3h0.1c-0.1-2.5-0.2-5.2-0.2-7.9c-0.1-2.7-0.1-5.4-0.1-7.8v-32.8c0-0.4,0.1-0.7,0.3-1
		c0.2-0.3,0.6-0.5,1.1-0.8c0.5-0.2,1.2-0.4,2-0.5c0.8-0.1,1.9-0.1,3.2-0.1c1.2,0,2.3,0,3.1,0.1c0.8,0.1,1.5,0.2,1.9,0.5
		c0.5,0.2,0.8,0.5,0.9,0.8c0.2,0.3,0.3,0.6,0.3,1V200.5z"/>
	<path class="st1" d="M382.3,169.4c0,6.4-0.8,11.9-2.5,16.5c-1.7,4.6-4.1,8.3-7.2,11.2c-3.1,2.9-6.9,5-11.4,6.4c-4.5,1.4-9.8,2-16,2
		h-16.7c-1.2,0-2.2-0.4-3-1.1c-0.8-0.7-1.2-1.8-1.2-3.4v-61c0-1.6,0.4-2.7,1.2-3.4c0.8-0.7,1.8-1.1,3-1.1h17.9
		c6.2,0,11.5,0.7,15.9,2.2c4.3,1.5,8,3.6,11,6.5c3,2.9,5.2,6.4,6.8,10.6C381.5,159,382.3,163.9,382.3,169.4z M367.6,169.9
		c0-3.3-0.4-6.4-1.2-9.2c-0.8-2.8-2-5.3-3.7-7.4s-3.9-3.7-6.6-4.9c-2.7-1.2-6.2-1.8-10.6-1.8h-7.2v47.6h7.4c3.9,0,7.2-0.5,9.8-1.5
		c2.7-1,4.9-2.5,6.7-4.6c1.8-2,3.1-4.6,4-7.6C367.1,177.5,367.6,173.9,367.6,169.9z"/>
</g>
<g class="st0">
	<path class="st1" d="M460.4,184.4c0,3.7-0.7,6.9-2.1,9.7c-1.4,2.8-3.2,5.1-5.6,6.9c-2.3,1.9-5.1,3.3-8.2,4.2s-6.5,1.4-10.1,1.4
		c-2.4,0-4.7-0.2-6.7-0.6s-3.9-0.9-5.5-1.4c-1.6-0.6-2.9-1.1-4-1.8c-1.1-0.6-1.8-1.2-2.3-1.6c-0.5-0.5-0.8-1.1-1-2s-0.3-2.2-0.3-3.8
		c0-1.1,0-2.1,0.1-2.8s0.2-1.4,0.4-1.8s0.4-0.8,0.6-1c0.3-0.2,0.6-0.3,0.9-0.3c0.5,0,1.2,0.3,2.1,0.9s2.1,1.3,3.5,2
		c1.4,0.7,3.2,1.4,5.2,2s4.3,0.9,6.9,0.9c1.7,0,3.3-0.2,4.6-0.6c1.4-0.4,2.5-1,3.5-1.8s1.7-1.7,2.2-2.8s0.8-2.4,0.8-3.7
		c0-1.6-0.4-2.9-1.3-4.1c-0.9-1.1-2-2.1-3.4-3c-1.4-0.9-3-1.7-4.7-2.5c-1.8-0.8-3.6-1.6-5.5-2.5c-1.9-0.9-3.7-1.8-5.5-2.9
		c-1.8-1.1-3.3-2.4-4.7-3.9c-1.4-1.5-2.5-3.3-3.4-5.4s-1.3-4.6-1.3-7.5c0-3.4,0.6-6.3,1.9-8.8c1.2-2.5,2.9-4.6,5-6.3
		s4.6-2.9,7.5-3.8c2.9-0.8,5.9-1.2,9.1-1.2c1.7,0,3.3,0.1,5,0.4c1.7,0.3,3.2,0.6,4.6,1s2.7,0.9,3.8,1.5c1.1,0.5,1.9,1,2.2,1.4
		c0.4,0.4,0.6,0.7,0.7,0.9c0.1,0.3,0.2,0.6,0.3,1c0.1,0.4,0.2,0.9,0.2,1.6s0.1,1.4,0.1,2.4c0,1,0,1.9-0.1,2.6
		c-0.1,0.7-0.1,1.3-0.3,1.8c-0.1,0.5-0.3,0.8-0.5,1c-0.2,0.2-0.5,0.3-0.9,0.3c-0.4,0-1-0.3-1.9-0.8s-1.9-1.1-3.2-1.6
		c-1.3-0.6-2.7-1.1-4.4-1.6c-1.7-0.5-3.5-0.7-5.5-0.7c-1.5,0-2.9,0.2-4.1,0.6c-1.2,0.4-2.1,0.9-2.9,1.6c-0.8,0.7-1.4,1.5-1.7,2.4
		c-0.4,0.9-0.6,1.9-0.6,3c0,1.5,0.4,2.9,1.3,4c0.8,1.1,2,2.1,3.4,3c1.4,0.9,3,1.7,4.8,2.5c1.8,0.8,3.6,1.6,5.5,2.5
		c1.9,0.9,3.7,1.8,5.5,2.9c1.8,1.1,3.4,2.4,4.8,3.9c1.4,1.5,2.5,3.3,3.4,5.4C460,179.2,460.4,181.6,460.4,184.4z"/>
</g>
<g class="st0">
	<path class="st1" d="M527.3,200.1c0.4,1.3,0.7,2.3,0.8,3.1c0.1,0.8,0,1.3-0.4,1.7c-0.4,0.4-1.1,0.6-2.1,0.7c-1,0.1-2.4,0.1-4.2,0.1
		c-1.8,0-3.3,0-4.3-0.1c-1-0.1-1.8-0.2-2.4-0.3c-0.5-0.2-0.9-0.4-1.1-0.7c-0.2-0.3-0.4-0.7-0.5-1.1l-4.7-14.1h-26.3l-4.4,13.7
		c-0.1,0.5-0.3,0.9-0.6,1.3c-0.2,0.3-0.6,0.6-1.1,0.8c-0.5,0.2-1.3,0.3-2.2,0.4s-2.2,0.1-3.8,0.1c-1.7,0-3-0.1-3.9-0.2
		s-1.6-0.4-1.9-0.8c-0.4-0.4-0.5-1-0.4-1.8s0.4-1.8,0.8-3l21.6-62.1c0.2-0.6,0.5-1.1,0.8-1.5c0.3-0.4,0.7-0.7,1.4-0.9
		c0.6-0.2,1.5-0.3,2.6-0.4c1.1-0.1,2.6-0.1,4.4-0.1c2.1,0,3.8,0,5.1,0.1c1.3,0.1,2.2,0.2,2.9,0.4c0.7,0.2,1.2,0.5,1.5,0.9
		c0.3,0.4,0.6,0.9,0.8,1.6L527.3,200.1z M495.1,148.8L495.1,148.8l-9.9,29.7H505L495.1,148.8z"/>
	<path class="st1" d="M594.7,200.5c0,0.8-0.1,1.6-0.4,2.2c-0.3,0.6-0.7,1.2-1.2,1.6c-0.5,0.4-1.1,0.7-1.7,0.9
		c-0.7,0.2-1.3,0.3-2,0.3h-6.1c-1.3,0-2.4-0.1-3.3-0.4c-0.9-0.3-1.8-0.7-2.5-1.4c-0.8-0.7-1.5-1.6-2.2-2.7c-0.7-1.1-1.5-2.6-2.4-4.4
		L555.4,164c-1-1.9-2-4-3.1-6.3c-1-2.3-2-4.4-2.8-6.6h-0.1c0.1,2.6,0.3,5.2,0.3,7.8c0.1,2.6,0.1,5.2,0.1,8v36.6c0,0.4-0.1,0.7-0.3,1
		c-0.2,0.3-0.5,0.5-1,0.7c-0.5,0.2-1.1,0.4-2,0.5s-1.9,0.2-3.2,0.2c-1.3,0-2.3-0.1-3.1-0.2s-1.5-0.3-1.9-0.5c-0.5-0.2-0.8-0.4-1-0.7
		c-0.2-0.3-0.3-0.6-0.3-1v-62.9c0-1.7,0.5-3,1.5-3.8c1-0.8,2.2-1.3,3.6-1.3h7.6c1.4,0,2.5,0.1,3.5,0.4c0.9,0.2,1.8,0.6,2.5,1.2
		c0.7,0.5,1.4,1.3,2.1,2.2c0.6,1,1.3,2.1,2,3.5l13.6,25.6c0.8,1.5,1.6,3.1,2.4,4.6c0.8,1.5,1.5,3,2.2,4.5c0.7,1.5,1.4,3,2.1,4.4
		s1.4,2.9,2,4.3h0.1c-0.1-2.5-0.2-5.2-0.2-7.9c-0.1-2.7-0.1-5.4-0.1-7.8v-32.8c0-0.4,0.1-0.7,0.3-1c0.2-0.3,0.6-0.5,1.1-0.8
		c0.5-0.2,1.2-0.4,2-0.5s1.9-0.1,3.2-0.1c1.2,0,2.3,0,3.1,0.1s1.5,0.2,1.9,0.5c0.5,0.2,0.8,0.5,0.9,0.8c0.2,0.3,0.3,0.6,0.3,1V200.5
		z"/>
	<path class="st1" d="M668.1,169.4c0,6.4-0.8,11.9-2.5,16.5c-1.7,4.6-4.1,8.3-7.2,11.2c-3.1,2.9-6.9,5-11.4,6.4c-4.5,1.4-9.8,2-16,2
		h-16.7c-1.2,0-2.2-0.4-3-1.1c-0.8-0.7-1.2-1.8-1.2-3.4v-61c0-1.6,0.4-2.7,1.2-3.4s1.8-1.1,3-1.1h17.9c6.2,0,11.5,0.7,15.9,2.2
		c4.3,1.5,8,3.6,11,6.5c3,2.9,5.2,6.4,6.8,10.6C667.3,159,668.1,163.9,668.1,169.4z M653.4,169.9c0-3.3-0.4-6.4-1.2-9.2
		c-0.8-2.8-2-5.3-3.7-7.4s-3.9-3.7-6.6-4.9c-2.7-1.2-6.2-1.8-10.6-1.8h-7.2v47.6h7.4c3.9,0,7.2-0.5,9.8-1.5c2.7-1,4.9-2.5,6.7-4.6
		c1.8-2,3.1-4.6,4-7.6C652.9,177.5,653.4,173.9,653.4,169.9z"/>
</g>
<g class="st0">
	<path class="st1" d="M39.8,318.8c0-2,0.3-3.9,0.9-5.7c0.6-1.8,1.5-3.5,2.7-5.1c1.2-1.6,2.7-3.1,4.4-4.5c1.7-1.4,3.8-2.8,6.1-4.2
		c-1.3-1.7-2.4-3.2-3.4-4.7c-1-1.5-1.7-2.9-2.4-4.2c-0.6-1.3-1.1-2.6-1.4-3.8c-0.3-1.2-0.5-2.4-0.5-3.6c0-2.5,0.5-4.9,1.4-7.1
		c0.9-2.2,2.3-4.1,4.2-5.8c1.9-1.6,4.3-2.9,7.3-3.9c3-1,6.5-1.4,10.6-1.4c3.8,0,7,0.4,9.8,1.1c2.7,0.7,5,1.7,6.8,3.1
		c1.8,1.3,3.1,2.9,3.9,4.9c0.9,1.9,1.3,4.1,1.3,6.5c0,2.2-0.4,4.2-1.1,6c-0.7,1.8-1.9,3.6-3.4,5.2c-1.5,1.7-3.4,3.3-5.6,4.8
		c-2.2,1.5-4.8,3.1-7.8,4.6c1,1.1,2.1,2.3,3.3,3.5c1.2,1.2,2.5,2.5,3.7,3.7c1.3,1.2,2.6,2.5,3.9,3.7c1.3,1.2,2.6,2.4,3.8,3.4
		c0.5-0.7,0.9-1.5,1.3-2.5c0.4-0.9,0.7-1.9,1-3c0.3-1,0.5-2.1,0.6-3.2s0.2-2.1,0.2-3.2v-1.7c0-0.4,0.1-0.7,0.2-1
		c0.1-0.3,0.4-0.5,0.9-0.7c0.5-0.2,1.1-0.3,1.9-0.4c0.8-0.1,1.9-0.1,3.3-0.1c1.3,0,2.3,0,3.1,0.1c0.8,0.1,1.5,0.2,2,0.4
		c0.5,0.2,0.8,0.4,1,0.7c0.2,0.3,0.3,0.7,0.3,1.2v1.7c0,1.7-0.1,3.5-0.4,5.2c-0.3,1.8-0.6,3.5-1.1,5.2c-0.5,1.7-1.1,3.3-1.8,4.8
		c-0.7,1.5-1.5,3-2.4,4.3c1.3,1,2.4,1.8,3.3,2.4c0.9,0.6,1.7,1.2,2.4,1.5c0.6,0.4,1.2,0.6,1.6,0.8c0.4,0.1,0.8,0.2,1.1,0.2
		c0.4,0,0.8,0,1.1,0c0.3,0,0.6,0.1,0.8,0.4c0.2,0.3,0.4,0.7,0.5,1.4c0.1,0.6,0.2,1.6,0.2,2.9c0,1.3,0,2.4-0.1,3.1s-0.1,1.3-0.3,1.7
		c-0.1,0.4-0.3,0.7-0.6,0.9c-0.3,0.2-0.8,0.5-1.5,0.6c-0.7,0.2-1.6,0.3-2.6,0.3c-0.8,0-1.6-0.1-2.5-0.3c-0.8-0.2-1.8-0.6-2.9-1.1
		c-1.1-0.6-2.4-1.3-3.9-2.2c-1.5-0.9-3.2-2.1-5.1-3.5c-1.7,1.2-3.4,2.2-5.2,3.1c-1.8,0.9-3.7,1.7-5.6,2.3c-2,0.6-4,1.1-6.1,1.4
		c-2.1,0.3-4.3,0.5-6.7,0.5c-2.3,0-4.6-0.2-6.9-0.5c-2.2-0.4-4.3-0.9-6.3-1.6c-2-0.7-3.8-1.7-5.4-2.8c-1.6-1.1-3-2.4-4.2-4
		c-1.2-1.5-2.1-3.3-2.7-5.2C40.1,323.3,39.8,321.1,39.8,318.8z M54.5,318c0,1.5,0.3,3,0.9,4.3c0.6,1.3,1.4,2.4,2.5,3.4
		c1.1,0.9,2.4,1.7,4,2.2c1.6,0.5,3.5,0.8,5.5,0.8c1.1,0,2.2-0.1,3.2-0.3c1.1-0.2,2.1-0.5,3.1-0.8c1-0.3,2-0.8,2.9-1.2
		c0.9-0.5,1.8-1,2.6-1.6c-1.6-1.3-3.3-2.7-4.9-4.1c-1.6-1.5-3.2-2.9-4.8-4.4c-1.5-1.5-3-2.9-4.5-4.4c-1.4-1.5-2.7-2.8-3.8-4.1
		c-1.3,0.8-2.3,1.6-3.2,2.5c-0.8,0.8-1.5,1.7-2.1,2.6c-0.5,0.9-0.9,1.7-1.2,2.6C54.6,316.2,54.5,317.1,54.5,318z M60.6,282.3
		c0,0.8,0.1,1.5,0.4,2.4c0.3,0.8,0.6,1.7,1.1,2.5c0.5,0.9,1,1.8,1.7,2.8c0.7,1,1.5,2.1,2.3,3.2c2.1-1.2,3.9-2.2,5.3-3.2
		c1.4-1,2.6-1.9,3.4-2.8c0.9-0.9,1.5-1.8,1.8-2.8c0.4-0.9,0.5-1.9,0.5-2.8c0-0.9-0.2-1.7-0.5-2.4c-0.3-0.8-0.8-1.4-1.5-2
		c-0.7-0.6-1.5-1-2.5-1.3c-1-0.3-2.2-0.5-3.6-0.5c-1.5,0-2.8,0.2-3.9,0.5s-1.9,0.8-2.6,1.5c-0.7,0.6-1.2,1.4-1.5,2.2
		S60.6,281.3,60.6,282.3z"/>
	<path class="st1" d="M202.2,279.2c0,1,0,1.9-0.1,2.7c-0.1,0.8-0.2,1.4-0.4,1.8c-0.2,0.5-0.4,0.8-0.6,0.9c-0.2,0.2-0.5,0.3-0.8,0.3
		c-0.5,0-1.2-0.3-2.3-1c-1-0.6-2.4-1.4-4.2-2.1c-1.7-0.8-3.8-1.5-6.2-2.1c-2.4-0.6-5.2-1-8.4-1c-3.4,0-6.5,0.6-9.2,1.8
		c-2.7,1.2-5.1,2.8-7,5c-1.9,2.1-3.4,4.7-4.5,7.7c-1,3-1.6,6.3-1.6,10c0,4,0.5,7.5,1.6,10.6c1.1,3,2.5,5.6,4.5,7.6
		c1.9,2.1,4.2,3.6,6.9,4.6c2.7,1,5.6,1.6,8.9,1.6c1.6,0,3.2-0.2,4.7-0.5c1.5-0.4,3-0.9,4.3-1.6v-16.2h-13.2c-0.6,0-1.2-0.4-1.5-1.2
		c-0.4-0.8-0.5-2.2-0.5-4.1c0-1,0-1.9,0.1-2.5c0.1-0.7,0.2-1.2,0.4-1.6c0.2-0.4,0.4-0.7,0.6-0.9c0.3-0.2,0.5-0.3,0.9-0.3h23.6
		c0.6,0,1.1,0.1,1.5,0.3c0.5,0.2,0.8,0.5,1.2,0.9c0.3,0.4,0.6,0.9,0.8,1.4c0.2,0.6,0.3,1.2,0.3,1.9v27.8c0,1.1-0.2,2-0.6,2.8
		c-0.4,0.8-1.2,1.5-2.3,1.9c-1.2,0.5-2.6,1-4.4,1.5c-1.7,0.5-3.5,0.9-5.4,1.3c-1.9,0.4-3.7,0.6-5.6,0.8c-1.9,0.2-3.8,0.3-5.7,0.3
		c-5.6,0-10.6-0.8-15-2.4c-4.4-1.6-8.2-3.9-11.2-7c-3.1-3-5.4-6.8-7-11.1s-2.4-9.3-2.4-14.9c0-5.7,0.9-10.9,2.6-15.4
		c1.7-4.6,4.2-8.4,7.4-11.6c3.2-3.2,7-5.6,11.5-7.3c4.5-1.7,9.5-2.5,15-2.5c3,0,5.8,0.2,8.3,0.6c2.5,0.4,4.7,0.9,6.5,1.5
		c1.9,0.6,3.4,1.2,4.6,1.9c1.2,0.7,2.1,1.3,2.6,1.8c0.5,0.5,0.8,1.2,1.1,2.1S202.2,277.4,202.2,279.2z"/>
	<path class="st1" d="M268.5,336.4c0,0.4-0.1,0.7-0.2,1c-0.1,0.3-0.5,0.5-1,0.7s-1.3,0.3-2.4,0.4c-1,0.1-2.5,0.1-4.3,0.1
		c-1.5,0-2.7,0-3.6-0.1c-0.9-0.1-1.6-0.2-2.1-0.4c-0.5-0.2-0.9-0.5-1.1-0.8c-0.2-0.3-0.4-0.7-0.5-1.1l-6.3-15.6
		c-0.8-1.8-1.5-3.3-2.2-4.7c-0.7-1.4-1.5-2.5-2.4-3.4c-0.9-0.9-1.9-1.6-3.1-2.1c-1.2-0.5-2.5-0.7-4-0.7h-4.4v26.7
		c0,0.4-0.1,0.7-0.4,1c-0.2,0.3-0.6,0.5-1.2,0.7c-0.5,0.2-1.3,0.3-2.2,0.4c-0.9,0.1-2.1,0.2-3.5,0.2c-1.4,0-2.5-0.1-3.4-0.2
		s-1.6-0.3-2.2-0.4c-0.5-0.2-0.9-0.4-1.1-0.7c-0.2-0.3-0.3-0.6-0.3-1v-63.5c0-1.6,0.4-2.7,1.2-3.4c0.8-0.7,1.8-1.1,3-1.1h18.1
		c1.8,0,3.4,0,4.5,0.1c1.2,0.1,2.3,0.2,3.2,0.3c2.8,0.4,5.3,1.1,7.6,2.1c2.3,1,4.2,2.2,5.7,3.8c1.6,1.6,2.8,3.4,3.6,5.6
		c0.8,2.1,1.2,4.6,1.2,7.4c0,2.3-0.3,4.5-0.9,6.4s-1.5,3.6-2.6,5.2c-1.2,1.5-2.6,2.8-4.3,3.9c-1.7,1.1-3.6,2-5.8,2.7
		c1,0.5,2,1.1,2.9,1.8c0.9,0.7,1.8,1.6,2.6,2.6c0.8,1,1.6,2.2,2.3,3.5c0.7,1.3,1.4,2.8,2.1,4.5l5.9,13.8c0.5,1.4,0.9,2.4,1.1,3
		C268.4,335.6,268.5,336.1,268.5,336.4z M250.2,289c0-2.3-0.5-4.3-1.6-5.8c-1-1.6-2.8-2.7-5.1-3.4c-0.7-0.2-1.5-0.3-2.5-0.4
		s-2.2-0.2-3.8-0.2h-6.4V299h7.2c2,0,3.8-0.2,5.3-0.7c1.5-0.5,2.8-1.2,3.8-2.1c1-0.9,1.8-1.9,2.3-3.2
		C249.9,291.9,250.2,290.5,250.2,289z"/>
</g>
<g class="st0">
	<path class="st1" d="M336.2,333c0.4,1.3,0.7,2.3,0.8,3.1c0.1,0.8,0,1.3-0.4,1.7c-0.4,0.4-1.1,0.6-2.1,0.7c-1,0.1-2.4,0.1-4.2,0.1
		c-1.8,0-3.3,0-4.3-0.1c-1-0.1-1.8-0.2-2.4-0.3c-0.5-0.2-0.9-0.4-1.1-0.7c-0.2-0.3-0.4-0.7-0.5-1.1l-4.7-14.1H291l-4.4,13.7
		c-0.1,0.5-0.3,0.9-0.6,1.3c-0.2,0.3-0.6,0.6-1.1,0.8c-0.5,0.2-1.3,0.3-2.2,0.4c-1,0.1-2.2,0.1-3.8,0.1c-1.7,0-3-0.1-3.9-0.2
		c-0.9-0.1-1.6-0.4-1.9-0.8c-0.4-0.4-0.5-1-0.4-1.8c0.1-0.8,0.4-1.8,0.8-3l21.6-62.1c0.2-0.6,0.5-1.1,0.8-1.5
		c0.3-0.4,0.7-0.7,1.4-0.9c0.6-0.2,1.5-0.3,2.6-0.4c1.1-0.1,2.6-0.1,4.4-0.1c2.1,0,3.8,0,5.1,0.1c1.3,0.1,2.2,0.2,2.9,0.4
		c0.7,0.2,1.2,0.5,1.5,0.9c0.3,0.4,0.6,0.9,0.8,1.6L336.2,333z M304.1,281.7L304.1,281.7l-9.9,29.7H314L304.1,281.7z"/>
</g>
<g class="st0">
	<path class="st1" d="M375.1,335.8c-0.2,0.6-0.4,1.1-0.7,1.5c-0.3,0.4-0.8,0.7-1.4,0.9c-0.6,0.2-1.5,0.3-2.6,0.4
		c-1.1,0.1-2.6,0.1-4.4,0.1c-1.4,0-2.7,0-3.7,0s-1.9-0.1-2.6-0.1c-0.7-0.1-1.3-0.2-1.8-0.3c-0.5-0.1-0.8-0.3-1.1-0.5
		c-0.3-0.2-0.5-0.5-0.7-0.8c-0.2-0.3-0.3-0.7-0.5-1.2l-20.8-62c-0.4-1.3-0.7-2.3-0.8-3.1c-0.1-0.8,0.1-1.3,0.5-1.7
		c0.5-0.4,1.2-0.6,2.3-0.7s2.6-0.1,4.5-0.1c1.7,0,3,0,3.9,0.1c0.9,0.1,1.7,0.2,2.2,0.4c0.5,0.2,0.9,0.5,1.1,0.8
		c0.2,0.4,0.4,0.8,0.6,1.4l17,54h0.1l16.7-53.7c0.1-0.6,0.3-1.1,0.5-1.5c0.2-0.4,0.6-0.7,1.1-0.9s1.3-0.4,2.2-0.4
		c1-0.1,2.3-0.1,4-0.1c1.7,0,2.9,0.1,3.9,0.2c0.9,0.1,1.5,0.4,1.9,0.8c0.3,0.4,0.5,1,0.3,1.8s-0.4,1.8-0.8,3L375.1,335.8z"/>
	<path class="st1" d="M447.3,332.7c0,1,0,1.9-0.1,2.6s-0.2,1.3-0.4,1.7c-0.2,0.4-0.4,0.7-0.7,0.9c-0.3,0.2-0.6,0.3-0.9,0.3H410
		c-1.2,0-2.2-0.4-3-1.1c-0.8-0.7-1.2-1.8-1.2-3.4v-61c0-1.6,0.4-2.7,1.2-3.4c0.8-0.7,1.8-1.1,3-1.1h34.9c0.3,0,0.6,0.1,0.9,0.3
		c0.3,0.2,0.5,0.5,0.6,0.9c0.2,0.5,0.3,1,0.4,1.7c0.1,0.7,0.1,1.6,0.1,2.7c0,1,0,1.9-0.1,2.6c-0.1,0.7-0.2,1.3-0.4,1.7
		s-0.4,0.7-0.6,0.9c-0.3,0.2-0.5,0.3-0.9,0.3h-25v17.1h21.1c0.3,0,0.6,0.1,0.9,0.3c0.3,0.2,0.5,0.5,0.7,0.9c0.2,0.4,0.3,1,0.4,1.7
		c0.1,0.7,0.1,1.6,0.1,2.6c0,1,0,1.9-0.1,2.6c-0.1,0.7-0.2,1.2-0.4,1.6c-0.2,0.4-0.4,0.7-0.7,0.9c-0.3,0.2-0.6,0.3-0.9,0.3H420v19.7
		h25.2c0.3,0,0.6,0.1,0.9,0.3c0.3,0.2,0.5,0.5,0.7,0.9c0.2,0.4,0.3,1,0.4,1.7C447.2,330.8,447.3,331.7,447.3,332.7z"/>
	<path class="st1" d="M498.2,332.3c0,1.1,0,2-0.1,2.7c-0.1,0.7-0.2,1.4-0.4,1.8c-0.2,0.5-0.4,0.8-0.7,1.1c-0.3,0.2-0.6,0.3-0.9,0.3
		H464c-1.2,0-2.2-0.4-3-1.1c-0.8-0.7-1.2-1.8-1.2-3.4v-63.5c0-0.4,0.1-0.7,0.4-1c0.2-0.3,0.6-0.5,1.2-0.7c0.5-0.2,1.3-0.3,2.2-0.4
		c0.9-0.1,2.1-0.2,3.4-0.2c1.4,0,2.6,0.1,3.5,0.2c0.9,0.1,1.6,0.3,2.2,0.4c0.5,0.2,0.9,0.4,1.2,0.7c0.2,0.3,0.4,0.6,0.4,1v56.3h22
		c0.4,0,0.7,0.1,0.9,0.3c0.3,0.2,0.5,0.5,0.7,1c0.2,0.5,0.3,1,0.4,1.8C498.2,330.3,498.2,331.3,498.2,332.3z"/>
</g>
<g class="st0">
	<path class="st1" d="M580,327.7c0,0.9,0,1.7-0.1,2.3c-0.1,0.6-0.1,1.2-0.2,1.6c-0.1,0.5-0.3,0.8-0.4,1.2c-0.2,0.3-0.5,0.7-0.9,1.1
		s-1.2,0.9-2.3,1.6c-1.1,0.6-2.5,1.3-4.2,1.9c-1.6,0.6-3.5,1.1-5.6,1.5c-2.1,0.4-4.4,0.6-6.8,0.6c-4.8,0-9.1-0.7-13-2.2
		c-3.9-1.5-7.1-3.7-9.8-6.6c-2.7-2.9-4.8-6.6-6.2-11c-1.4-4.4-2.2-9.5-2.2-15.4c0-5.9,0.8-11.2,2.4-15.8c1.6-4.6,3.8-8.5,6.6-11.6
		c2.8-3.1,6.3-5.5,10.2-7.1c4-1.6,8.4-2.4,13.2-2.4c1.9,0,3.8,0.2,5.6,0.5c1.8,0.3,3.5,0.7,5,1.3c1.5,0.5,2.9,1.1,4.1,1.8
		c1.2,0.7,2.1,1.3,2.6,1.8c0.5,0.5,0.8,0.9,1,1.2c0.2,0.3,0.3,0.7,0.4,1.2c0.1,0.5,0.2,1.1,0.2,1.8c0.1,0.7,0.1,1.5,0.1,2.5
		c0,1.1,0,2-0.1,2.8s-0.2,1.4-0.4,1.8c-0.2,0.5-0.4,0.8-0.6,1c-0.3,0.2-0.5,0.3-0.9,0.3c-0.5,0-1.2-0.3-2.1-0.9
		c-0.8-0.6-1.9-1.3-3.2-2.1c-1.3-0.8-2.9-1.5-4.7-2.1c-1.8-0.6-4-0.9-6.5-0.9c-2.8,0-5.3,0.6-7.4,1.7c-2.2,1.1-4,2.8-5.6,4.9
		c-1.5,2.1-2.7,4.7-3.5,7.6c-0.8,3-1.2,6.4-1.2,10.1c0,4.1,0.4,7.7,1.3,10.7s2.1,5.5,3.6,7.4c1.6,1.9,3.5,3.4,5.7,4.4
		c2.2,1,4.7,1.4,7.5,1.4c2.5,0,4.7-0.3,6.5-0.9s3.4-1.3,4.7-2c1.3-0.7,2.4-1.4,3.2-1.9c0.8-0.6,1.5-0.9,2-0.9c0.4,0,0.6,0.1,0.9,0.2
		c0.2,0.1,0.4,0.4,0.5,0.9c0.1,0.4,0.3,1,0.3,1.8C580,325.3,580,326.4,580,327.7z"/>
</g>
<g class="st0">
	<path class="st1" d="M652.3,302.5c0,5.8-0.7,11-2.2,15.6c-1.4,4.6-3.6,8.5-6.4,11.6s-6.4,5.6-10.6,7.3s-9.1,2.5-14.6,2.5
		c-5.4,0-10.2-0.7-14.2-2.1c-4.1-1.4-7.4-3.6-10.1-6.5c-2.7-2.9-4.7-6.6-6.1-11.1c-1.4-4.5-2-9.8-2-16c0-5.7,0.7-10.7,2.2-15.3
		s3.6-8.4,6.4-11.5c2.8-3.2,6.4-5.6,10.6-7.3c4.2-1.7,9.1-2.5,14.6-2.5c5.3,0,10,0.7,14,2.1c4.1,1.4,7.4,3.6,10.2,6.5
		c2.7,2.9,4.8,6.6,6.2,11.1C651.7,291.2,652.3,296.4,652.3,302.5z M637.4,303.2c0-3.7-0.3-7-0.9-10c-0.6-3-1.6-5.6-2.9-7.7
		c-1.4-2.1-3.2-3.8-5.5-5c-2.3-1.2-5.2-1.8-8.6-1.8c-3.5,0-6.4,0.7-8.8,2c-2.3,1.3-4.2,3.1-5.7,5.3s-2.5,4.8-3.1,7.7
		c-0.6,2.9-0.9,6-0.9,9.3c0,3.8,0.3,7.3,0.9,10.3c0.6,3,1.5,5.6,2.9,7.8c1.4,2.2,3.2,3.8,5.5,4.9c2.3,1.1,5.2,1.7,8.7,1.7
		c3.5,0,6.4-0.6,8.8-1.9c2.3-1.3,4.2-3.1,5.7-5.3c1.4-2.2,2.5-4.8,3.1-7.8C637.1,309.8,637.4,306.6,637.4,303.2z"/>
</g>
<g class="st0">
	<path class="st1" d="M677.9,330.5c0,3.4-0.6,5.6-1.8,6.8c-1.2,1.2-3.3,1.7-6.3,1.7s-5.1-0.6-6.3-1.7c-1.2-1.1-1.7-3.3-1.7-6.5
		c0-3.4,0.6-5.7,1.8-6.8c1.2-1.2,3.3-1.7,6.4-1.7c3,0,5.1,0.6,6.2,1.7C677.3,325.1,677.9,327.3,677.9,330.5z"/>
</g>
</svg>
