<?xml version="1.0" encoding="utf-8"?>
<!-- Generator: Adobe Illustrator 19.0.0, SVG Export Plug-In . SVG Version: 6.00 Build 0)  -->
<svg version="1.1" id="Layer_1" xmlns="http://www.w3.org/2000/svg" xmlns:xlink="http://www.w3.org/1999/xlink" x="0px" y="0px"
	 viewBox="0 0 720 480" style="enable-background:new 0 0 720 480;" xml:space="preserve">
<style type="text/css">
	.Drop_x0020_Shadow{fill:none;}
	.Outer_x0020_Glow_x0020_5_x0020_pt{fill:none;}
	.Blue_x0020_Neon{fill:none;stroke:#8AACDA;stroke-width:7;stroke-linecap:round;stroke-linejoin:round;}
	.Chrome_x0020_Highlight{fill:url(#SVGID_1_);stroke:#FFFFFF;stroke-width:0.3629;stroke-miterlimit:1;}
	.Jive_GS{fill:#FFDD00;}
	.Alyssa_GS{fill:#A6D0E4;}
	.st0{fill:#FF0000;}
</style>
<linearGradient id="SVGID_1_" gradientUnits="userSpaceOnUse" x1="0" y1="0" x2="4.489659e-011" y2="-1">
	<stop  offset="0" style="stop-color:#656565"/>
	<stop  offset="0.618" style="stop-color:#1B1B1B"/>
	<stop  offset="0.6292" style="stop-color:#545454"/>
	<stop  offset="0.9831" style="stop-color:#3E3E3E"/>
</linearGradient>
<g id="XMLID_1_">
	
		<image style="overflow:visible;opacity:0.5;" width="510" height="269" id="XMLID_665_" xlink:href="31FD5529.png"  transform="matrix(1 0 0 1 109 107)">
	</image>
	<g id="XMLID_389_">
		<g id="XMLID_573_">
			<path id="XMLID_617_" class="st0" d="M174.161,156.04c0,8.479-8.107,12.72-24.32,12.72h-32.479c-2.721,0-4.08-1.092-4.08-3.279
				c0-2.187,1.359-3.28,4.08-3.28h32.479c10.4,0,15.601-2.213,15.601-6.641v-5.68c0-4.32-4.935-6.479-14.801-6.479h-15.119
				c-14.561,0-21.841-3.946-21.841-11.841v-5.84c0-8.212,7.467-12.319,22.4-12.319h8.96c2.666,0,4,1.094,4,3.279
				c0,2.188-1.334,3.28-4,3.28h-8.88c-9.228,0-13.84,2.027-13.84,6.08V131c0,3.947,4.372,5.92,13.12,5.92h14.56
				c16.106,0,24.16,4.214,24.16,12.64V156.04z"/>
			<path id="XMLID_615_" class="st0" d="M196.321,136.44V165.8c0,2.24-1.388,3.36-4.16,3.36c-2.88,0-4.32-1.12-4.32-3.36V136.44
				h-3.28c-2.613,0-3.92-1.04-3.92-3.12s1.307-3.12,3.92-3.12h3.28v-7.36c0-2.24,1.387-3.359,4.16-3.359
				c2.88,0,4.32,1.119,4.32,3.359v7.36h13.76c2.666,0,4,1.04,4,3.12s-1.334,3.12-4,3.12H196.321z"/>
			<path id="XMLID_612_" class="st0" d="M230.882,168.76c-11.414,0-17.12-3.546-17.12-10.64v-4.561c0-7.04,5.706-10.56,17.12-10.56
				h34v-1.2c0-3.732-3.28-5.6-9.841-5.6h-11.279c-2.668,0-4-1.04-4-3.12c0-2.133,1.332-3.2,4-3.2h11.279
				c12.106,0,18.16,3.974,18.16,11.92v15.681c0,7.52-5.813,11.279-17.439,11.279H230.882z M255.281,162.52
				c6.4,0,9.601-1.76,9.601-5.279v-8.721h-33.36c-6.24,0-9.36,1.628-9.36,4.881v4.159c0,3.308,3.12,4.96,9.36,4.96H255.281z"/>
			<path id="XMLID_610_" class="st0" d="M336.32,142.6c0-4.105-3.974-6.159-11.92-6.159h-16c-7.894,0-11.84,2.054-11.84,6.159v23.2
				c0,2.24-1.413,3.36-4.24,3.36s-4.239-1.12-4.239-3.36v-23.2c0-8.479,6.88-12.72,20.64-12.72h15.44
				c13.76,0,20.64,4.24,20.64,12.72v23.2c0,2.24-1.414,3.36-4.24,3.36c-2.827,0-4.24-1.12-4.24-3.36V142.6z"/>
			<path id="XMLID_607_" class="st0" d="M380.561,168.76c-13.761,0-20.641-4.212-20.641-12.64V142.6
				c0-8.479,6.88-12.72,20.641-12.72H408.8v-14.64c0-2.24,1.44-3.36,4.32-3.36c2.826,0,4.24,1.12,4.24,3.36v40.88
				c0,8.428-6.88,12.64-20.641,12.64H380.561z M396.96,162.28c7.893,0,11.84-2.026,11.84-6.08v-19.76H380.32
				c-7.894,0-11.84,2.027-11.84,6.079V156.2c0,4.054,3.946,6.08,11.84,6.08H396.96z"/>
			<path id="XMLID_604_" class="st0" d="M447.84,168.76c-11.414,0-17.12-3.546-17.12-10.64v-4.561c0-7.04,5.706-10.56,17.12-10.56
				h34v-1.2c0-3.732-3.28-5.6-9.841-5.6H460.72c-2.668,0-4-1.04-4-3.12c0-2.133,1.332-3.2,4-3.2h11.279
				c12.106,0,18.16,3.974,18.16,11.92v15.681c0,7.52-5.813,11.279-17.439,11.279H447.84z M472.239,162.52
				c6.4,0,9.601-1.76,9.601-5.279v-8.721h-33.36c-6.24,0-9.36,1.628-9.36,4.881v4.159c0,3.308,3.12,4.96,9.36,4.96H472.239z"/>
			<path id="XMLID_602_" class="st0" d="M505.039,142.6c0-8.479,6.88-12.72,20.64-12.72h6.16c2.72,0,4.08,1.094,4.08,3.28
				c0,2.188-1.36,3.28-4.08,3.28h-6.48c-7.894,0-11.84,2-11.84,6V165.8c0,2.24-1.413,3.36-4.24,3.36s-4.239-1.12-4.239-3.36V142.6z"
				/>
			<path id="XMLID_599_" class="st0" d="M568.08,168.76c-13.76,0-20.641-4.212-20.641-12.64V142.6c0-8.479,6.881-12.72,20.641-12.72
				h28.24v-14.64c0-2.24,1.439-3.36,4.318-3.36c2.826,0,4.24,1.12,4.24,3.36v40.88c0,8.428-6.879,12.64-20.639,12.64H568.08z
				 M584.479,162.28c7.893,0,11.842-2.026,11.842-6.08v-19.76h-28.48c-7.895,0-11.84,2.027-11.84,6.079V156.2
				c0,4.054,3.945,6.08,11.84,6.08H584.479z"/>
			<path id="XMLID_597_" class="st0" d="M180.163,264.76c-15.628,0-23.44-5.226-23.44-15.68v-24.8c0-9.92,7.68-14.88,23.04-14.88
				h10.96c2.72,0,4.08,1.094,4.08,3.279c0,2.188-1.36,3.28-4.08,3.28h-10.8c-9.708,0-14.561,2.827-14.561,8.48v24.399
				c0,6.24,5.066,9.36,15.2,9.36h17.28c10.133,0,15.2-3.12,15.2-9.36v-15.12c0-2.239,1.439-3.359,4.319-3.359
				c2.881,0,4.32,1.12,4.32,3.359v15.36c0,10.454-7.813,15.68-23.439,15.68H180.163z"/>
			<path id="XMLID_594_" class="st0" d="M244.962,247.96v4.88c0,3.788,3.706,5.68,11.12,5.68h11.84c2.666,0,4,1.04,4,3.12
				s-1.334,3.12-4,3.12h-11.84c-13.014,0-19.521-3.946-19.521-11.84v-15.68c0-7.572,5.813-11.36,17.44-11.36h23.12
				c11.36,0,17.04,3.414,17.04,10.24v8.96c0,1.92-1.228,2.88-3.68,2.88H244.962z M244.962,242.44h40.16
				c0.426,0,0.64-0.187,0.64-0.561v-4.16c0-3.68-3.094-5.52-9.279-5.52h-22c-6.348,0-9.521,1.84-9.521,5.52V242.44z"/>
			<path id="XMLID_592_" class="st0" d="M355.601,238.6c0-4.105-3.974-6.159-11.92-6.159h-16c-7.894,0-11.84,2.054-11.84,6.159v23.2
				c0,2.24-1.413,3.36-4.24,3.36s-4.239-1.12-4.239-3.36v-23.2c0-8.479,6.88-12.72,20.64-12.72h15.44
				c13.76,0,20.64,4.24,20.64,12.72v23.2c0,2.24-1.414,3.36-4.24,3.36c-2.827,0-4.24-1.12-4.24-3.36V238.6z"/>
			<path id="XMLID_589_" class="st0" d="M387.28,247.96v4.88c0,3.788,3.706,5.68,11.119,5.68h11.841c2.666,0,4,1.04,4,3.12
				s-1.334,3.12-4,3.12h-11.841c-13.014,0-19.52-3.946-19.52-11.84v-15.68c0-7.572,5.813-11.36,17.44-11.36h23.119
				c11.36,0,17.04,3.414,17.04,10.24v8.96c0,1.92-1.228,2.88-3.68,2.88H387.28z M387.28,242.44h40.159
				c0.427,0,0.641-0.187,0.641-0.561v-4.16c0-3.68-3.094-5.52-9.28-5.52h-22c-6.348,0-9.52,1.84-9.52,5.52V242.44z"/>
			<path id="XMLID_587_" class="st0" d="M449.68,238.6c0-8.479,6.88-12.72,20.64-12.72h6.16c2.72,0,4.08,1.094,4.08,3.28
				c0,2.188-1.36,3.28-4.08,3.28h-6.48c-7.894,0-11.84,2-11.84,6V261.8c0,2.24-1.413,3.36-4.24,3.36s-4.239-1.12-4.239-3.36V238.6z"
				/>
			<path id="XMLID_584_" class="st0" d="M497.439,264.76c-11.414,0-17.12-3.546-17.12-10.64v-4.561c0-7.04,5.706-10.56,17.12-10.56
				h34v-1.2c0-3.732-3.28-5.6-9.84-5.6h-11.28c-2.667,0-4-1.04-4-3.12c0-2.133,1.333-3.2,4-3.2h11.28
				c12.106,0,18.16,3.974,18.16,11.92v15.681c0,7.52-5.813,11.279-17.44,11.279H497.439z M521.84,258.52c6.399,0,9.6-1.76,9.6-5.279
				v-8.721h-33.36c-6.239,0-9.359,1.628-9.359,4.881v4.159c0,3.308,3.12,4.96,9.359,4.96H521.84z"/>
			<path id="XMLID_582_" class="st0" d="M554.799,211.24c0-2.24,1.413-3.36,4.24-3.36c2.826,0,4.24,1.12,4.24,3.36v50.56
				c0,2.24-1.414,3.36-4.24,3.36c-2.827,0-4.24-1.12-4.24-3.36V211.24z"/>
			<path id="XMLID_580_" class="st0" d="M275.322,308.359c0-2.239,1.492-3.359,4.479-3.359c2.772,0,4.16,1.12,4.16,3.359v49.44
				c0,2.24-1.468,3.36-4.399,3.36c-2.828,0-4.24-1.12-4.24-3.36V308.359z"/>
			<path id="XMLID_578_" class="st0" d="M347.562,334.6c0-4.106-3.974-6.16-11.92-6.16h-16c-7.894,0-11.84,2.054-11.84,6.16v23.2
				c0,2.24-1.414,3.36-4.24,3.36c-2.827,0-4.24-1.12-4.24-3.36v-23.2c0-8.479,6.88-12.72,20.641-12.72h15.439
				c13.76,0,20.641,4.24,20.641,12.72v23.2c0,2.24-1.414,3.36-4.24,3.36c-2.828,0-4.24-1.12-4.24-3.36V334.6z"/>
			<path id="XMLID_576_" class="st0" d="M391.561,360.76c-13.813,0-20.72-4.213-20.72-12.64V334.6c0-8.479,6.906-12.72,20.72-12.72
				h27.681c2.772,0,4.159,1.094,4.159,3.28c0,2.188-1.387,3.279-4.159,3.279h-28c-7.895,0-11.841,2.027-11.841,6.08V348.2
				c0,4.054,3.946,6.079,11.841,6.079h28c2.772,0,4.159,1.068,4.159,3.2c0,2.188-1.387,3.28-4.159,3.28H391.561z"/>
			<path id="XMLID_574_" class="st0" d="M445.72,357.24c0,2.613-1.601,3.92-4.8,3.92c-3.147,0-4.721-1.307-4.721-3.92
				s1.601-3.921,4.801-3.921C444.146,353.319,445.72,354.627,445.72,357.24z"/>
		</g>
	</g>
</g>
<g id="XMLID_2_">
</g>
<g id="XMLID_13_">
</g>
<g id="XMLID_15_">
</g>
<g id="XMLID_22_">
</g>
<g id="XMLID_24_">
</g>
<g id="XMLID_52_">
</g>
<g id="XMLID_53_">
</g>
<g id="XMLID_54_">
</g>
<g id="XMLID_55_">
</g>
<g id="XMLID_56_">
</g>
<g id="XMLID_57_">
</g>
<g id="XMLID_58_">
</g>
<g id="XMLID_59_">
</g>
<g id="XMLID_60_">
</g>
<g id="XMLID_61_">
</g>
</svg>
