<?xml version="1.0" standalone="no"?>
<!DOCTYPE svg PUBLIC "-//W3C//DTD SVG 20010904//EN"
 "http://www.w3.org/TR/2001/REC-SVG-20010904/DTD/svg10.dtd">
<svg version="1.0" xmlns="http://www.w3.org/2000/svg"
 width="205.000000pt" height="147.000000pt" viewBox="0 0 205.000000 147.000000"
 preserveAspectRatio="xMidYMid meet">
<metadata>
Created by potrace 1.15, written by Peter Selinger 2001-2017
</metadata>
<g transform="translate(0.000000,147.000000) scale(0.100000,-0.100000)"
fill="#000000" stroke="none">
<path d="M503 1316 l-503 -151 0 -432 0 -432 83 -25 c408 -123 939 -276 958
-276 19 0 450 128 897 266 l112 35 0 432 0 432 -494 153 c-271 83 -506 152
-522 151 -16 -1 -255 -69 -531 -153z m1002 -131 c209 -64 388 -118 398 -121
16 -5 17 -30 17 -343 l0 -337 -439 -123 -439 -123 -456 123 -456 122 0 338 0
338 38 10 c20 6 226 66 457 135 408 120 420 123 460 110 22 -7 211 -65 420
-129z"/>
<path d="M391 1052 c-54 -27 -76 -80 -76 -182 1 -69 5 -93 23 -128 36 -68 54
-72 321 -72 250 0 241 2 241 -58 0 -58 5 -57 -302 -57 l-283 0 -3 -73 -3 -72
302 0 c289 0 305 1 347 22 36 17 49 31 66 69 11 27 23 48 26 48 3 0 21 -22 42
-48 64 -84 89 -91 339 -91 247 0 266 5 308 80 19 34 24 58 24 114 0 81 -19
133 -65 171 -29 25 -32 25 -209 25 l-179 0 0 -71 0 -72 98 7 c53 3 122 3 152
-2 l55 -7 3 -43 c3 -38 0 -43 -23 -52 -14 -6 -94 -10 -177 -10 -170 0 -201 8
-246 68 -53 69 -40 223 24 283 25 24 27 24 290 27 l264 3 0 69 0 70 -662 0
c-611 0 -666 -1 -697 -18z m646 -140 c-22 -24 -47 -86 -47 -117 0 -30 -7 -31
-33 -7 -17 15 -46 17 -246 20 -247 3 -251 4 -251 63 0 56 16 59 319 59 263 0
273 -1 258 -18z"/>
</g>
</svg>
