<?xml version="1.0" encoding="utf-8"?>
<!-- Generator: Adobe Illustrator 19.0.0, SVG Export Plug-In . SVG Version: 6.00 Build 0)  -->
<svg version="1.1" id="Layer_1" xmlns="http://www.w3.org/2000/svg" xmlns:xlink="http://www.w3.org/1999/xlink" x="0px" y="0px"
	 viewBox="-209 141 300 200" style="enable-background:new -209 141 300 200;" xml:space="preserve">
<style type="text/css">
	.st0{fill:#999999;}
	.st1{fill:#2B2B2B;}
</style>
<path class="st0" d="M-109.8,183.9l-49.2,14.9v42.3v42.3l8.1,2.5c39.9,11.9,91.6,27,93.5,27s43.9-12.6,87.6-25.9l10.9-3.5v-42.3V199
	l-48.2-15c-26.5-8.1-49.5-15-50.9-14.9C-59.7,168.8-82.8,175.5-109.8,183.9z M-12.1,196.7c20.3,6.3,37.8,11.5,38.7,11.8
	c1.6,0.6,1.8,3,1.8,33.4v33l-42.9,11.9l-42.9,11.9l-44.6-11.9l-44.6-11.8v-33v-33l3.8-0.9c1.9-0.6,22.1-6.5,44.6-13.3
	c39.9-11.6,41-11.9,44.8-10.7C-51,184.6-32.4,190.3-12.1,196.7z"/>
<path class="st1" d="M-121.9,210.6c-5.3,2.7-7.4,7.7-7.4,17.8c0.2,6.6,0.6,9,2.2,12.6c3.5,6.6,5.3,6.9,31.4,6.9
	c24.4,0,23.4-0.2,23.4,5.7c0,5.7,0.6,5.5-29.5,5.5h-27.6l-0.3,7.1l-0.3,6.9h29.5c28.3,0,29.8-0.2,33.9-2.1c3.5-1.8,4.7-3,6.5-6.6
	c1.2-2.7,2.2-4.7,2.5-4.7s2.1,2.1,4.1,4.7c6.3,8.2,8.7,9,33.1,9c24.1,0,25.9-0.6,30.1-7.7c1.8-3.3,2.4-5.7,2.4-11.2
	c0-7.8-1.8-12.9-6.5-16.7c-2.8-2.5-3-2.5-20.3-2.5h-17.4v6.9v6.9l9.6-0.6c5.2-0.3,11.8-0.3,15,0.2l5.3,0.6l0.3,4.3
	c0.3,3.8,0,4.3-2.2,5c-1.5,0.6-9.1,0.9-17.4,0.9c-16.5,0-19.7-0.8-24-6.6c-5.2-6.6-4-21.8,2.4-27.6c2.5-2.4,2.7-2.4,28.3-2.7
	l25.6-0.3v-6.6v-7.1h-64.6C-113.5,208.8-118.9,208.9-121.9,210.6z M-58.8,224.2c-2.1,2.4-4.6,8.4-4.6,11.3c0,2.9-0.6,3-3.1,0.6
	c-1.8-1.6-4.4-1.8-24-1.9c-24.1-0.3-24.4-0.5-24.4-6.2c0-5.3,1.6-5.7,31.2-5.7C-58.4,222.5-57.4,222.5-58.8,224.2z"/>
</svg>
