<?xml version="1.0" encoding="utf-8"?>
<!-- Generator: Adobe Illustrator 19.0.0, SVG Export Plug-In . SVG Version: 6.00 Build 0)  -->
<svg version="1.1" id="Layer_1" xmlns="http://www.w3.org/2000/svg" xmlns:xlink="http://www.w3.org/1999/xlink" x="0px" y="0px"
	 viewBox="-304.5 140.5 300 200" style="enable-background:new -304.5 140.5 300 200;" xml:space="preserve">
<style type="text/css">
	.st0{fill:#2B2B2B;}
</style>
<path class="st0" d="M-203.1,186.1l-47,14.2v40.4v40.4l7.7,2.4c38.1,11.4,87.5,25.8,89.3,25.8c1.8,0,41.9-12,83.7-24.7l10.4-3.3
	v-40.4v-40.4l-46.1-14.3c-25.3-7.7-47.3-14.3-48.6-14.2C-155.2,171.7-177.3,178.1-203.1,186.1z M-109.7,198.3
	c19.4,6,36.1,11,37,11.3c1.5,0.6,1.7,2.9,1.7,31.9V273l-41,11.4l-41,11.4l-42.6-11.4l-42.6-11.3v-31.5v-31.5l3.6-0.9
	c1.8-0.6,21.1-6.2,42.6-12.7c38.1-11.1,39.2-11.4,42.8-10.2C-146.9,186.8-129.1,192.2-109.7,198.3z"/>
<path class="st0" d="M-214.7,211.4c-5.1,2.6-7.1,7.4-7.1,17c0.2,6.3,0.6,8.6,2.1,12c3.3,6.3,5.1,6.6,30,6.6
	c23.3,0,22.4-0.2,22.4,5.4c0,5.4,0.6,5.3-28.2,5.3h-26.4l-0.3,6.8l-0.3,6.6h28.2c27,0,28.5-0.2,32.4-2c3.3-1.7,4.5-2.9,6.2-6.3
	c1.1-2.6,2.1-4.5,2.4-4.5c0.3,0,2,2,3.9,4.5c6,7.8,8.3,8.6,31.6,8.6c23,0,24.7-0.6,28.8-7.4c1.7-3.2,2.3-5.4,2.3-10.7
	c0-7.5-1.7-12.3-6.2-16c-2.7-2.4-2.9-2.4-19.4-2.4h-16.6v6.6v6.6l9.2-0.6c5-0.3,11.3-0.3,14.3,0.2l5.1,0.6l0.3,4.1
	c0.3,3.6,0,4.1-2.1,4.8c-1.4,0.6-8.7,0.9-16.6,0.9c-15.8,0-18.8-0.8-22.9-6.3c-5-6.3-3.8-20.8,2.3-26.4c2.4-2.3,2.6-2.3,27-2.6
	l24.5-0.3v-6.3v-6.8h-61.7C-206.7,209.6-211.8,209.7-214.7,211.4z M-154.4,224.3c-2,2.3-4.4,8-4.4,10.8s-0.6,2.9-3,0.6
	c-1.7-1.5-4.2-1.7-22.9-1.8c-23-0.3-23.3-0.5-23.3-5.9c0-5.1,1.5-5.4,29.8-5.4C-154,222.7-153.1,222.7-154.4,224.3z"/>
</svg>
