<?xml version="1.0" encoding="utf-8"?>
<!-- Generator: Adobe Illustrator 19.0.0, SVG Export Plug-In . SVG Version: 6.00 Build 0)  -->
<svg version="1.1" id="Layer_1" xmlns="http://www.w3.org/2000/svg" xmlns:xlink="http://www.w3.org/1999/xlink" x="0px" y="0px"
	 viewBox="-257 167 205 147" style="enable-background:new -257 167 205 147;" xml:space="preserve">
<style type="text/css">
	.st0{fill:#2B2B2B;}
</style>
<path class="st0" d="M-191.1,199.8l-35.3,10.6v30.3v30.3l5.8,1.8c28.6,8.6,65.8,19.3,67.1,19.3s31.5-9,62.9-18.6l7.8-2.5v-30.3
	v-30.3l-34.6-10.7c-19-5.8-35.5-10.7-36.6-10.6C-155,189.1-171.7,193.9-191.1,199.8z M-120.9,209c14.6,4.5,27.2,8.3,27.9,8.5
	c1.1,0.4,1.2,2.1,1.2,24v23.6l-30.8,8.6l-30.8,8.6l-32-8.6l-32-8.5v-23.7v-23.7l2.7-0.7c1.4-0.4,15.8-4.6,32-9.5
	c28.6-8.4,29.4-8.6,32.2-7.7C-148.8,200.4-135.5,204.5-120.9,209z"/>
<path class="st0" d="M-198.9,218.3c-3.8,1.9-5.3,5.6-5.3,12.8c0.1,4.8,0.4,6.5,1.6,9c2.5,4.8,3.8,5,22.5,5c17.5,0,16.9-0.1,16.9,4.1
	c0,4.1,0.4,4-21.2,4h-19.8l-0.2,5.1l-0.2,5h21.2c20.3,0,21.4-0.1,24.3-1.5c2.5-1.2,3.4-2.2,4.6-4.8c0.8-1.9,1.6-3.4,1.8-3.4
	c0.2,0,1.5,1.5,2.9,3.4c4.5,5.9,6.2,6.4,23.8,6.4c17.3,0,18.6-0.4,21.6-5.6c1.3-2.4,1.7-4.1,1.7-8c0-5.7-1.3-9.3-4.6-12
	c-2-1.8-2.2-1.8-14.6-1.8h-12.5v5v5l6.9-0.5c3.7-0.2,8.5-0.2,10.7,0.1l3.9,0.5l0.2,3c0.2,2.7,0,3-1.6,3.6c-1,0.4-6.6,0.7-12.4,0.7
	c-11.9,0-14.1-0.6-17.2-4.8c-3.7-4.8-2.8-15.6,1.7-19.8c1.8-1.7,1.9-1.7,20.3-1.9l18.5-0.2v-4.8V217h-46.4
	C-192.9,217-196.8,217.1-198.9,218.3z M-153.7,228.1c-1.5,1.7-3.3,6-3.3,8.2c0,2.1-0.5,2.2-2.3,0.5c-1.2-1.1-3.2-1.2-17.2-1.4
	c-17.3-0.2-17.6-0.3-17.6-4.4c0-3.9,1.1-4.1,22.4-4.1C-153.3,226.8-152.6,226.9-153.7,228.1z"/>
</svg>
