<?xml version="1.0" encoding="utf-8"?>
<!-- Generator: Adobe Illustrator 19.0.0, SVG Export Plug-In . SVG Version: 6.00 Build 0)  -->
<svg version="1.1" id="Layer_1" xmlns="http://www.w3.org/2000/svg" xmlns:xlink="http://www.w3.org/1999/xlink" x="0px" y="0px"
	 viewBox="0 0 720 480" style="enable-background:new 0 0 720 480;" xml:space="preserve">
<style type="text/css">
	.st0{fill-rule:evenodd;clip-rule:evenodd;fill:#F58220;}
	.st1{fill-rule:evenodd;clip-rule:evenodd;fill:#26387B;stroke:#26387B;stroke-miterlimit:10;}
</style>
<g>
	<polygon class="st0" points="205.022,220.346 189.055,247.456 146.61,247.382 172.009,202.452 96.551,202.452 117.854,166.386 
		174.072,166.677 205.022,220.346 	"/>
	<polygon class="st0" points="121.548,210.121 142.269,246.743 92.229,246.743 129.771,313.182 87.476,313.182 59,263.508 
		91.873,210.267 121.548,210.121 	"/>
	<polygon class="st0" points="230.573,264.558 201.684,313.614 138.575,313.483 123.245,287.351 144.828,251.581 172.009,292.884 
		208.988,228.784 230.573,264.558 	"/>
</g>
<polygon class="st1" points="276.018,185.42 284.41,185.42 295.961,220.134 296.083,220.134 307.897,185.42 316.083,185.42 
	300.349,229.294 291.377,229.294 276.018,185.42 "/>
<path class="st1" d="M333.963,224.63c-6.591,0-9.488-5.724-9.488-11.256c0-5.462,2.897-11.172,9.488-11.172
	c6.573,0,9.489,5.71,9.489,11.172C343.451,218.906,340.536,224.63,333.963,224.63L333.963,224.63z M333.963,230.157
	c10.707,0,16.839-7.008,16.839-16.783c0-9.704-6.132-16.703-16.839-16.703c-10.716,0-16.839,6.999-16.839,16.703
	C317.123,223.149,323.247,230.157,333.963,230.157L333.963,230.157z"/>
<polygon class="st1" points="356.99,185.42 364.35,185.42 364.35,229.294 356.99,229.294 356.99,185.42 "/>
<polygon class="st1" points="372.536,185.42 379.896,185.42 379.896,210.369 393.19,197.524 402.22,197.524 389.45,209.197 
	403.439,229.294 394.476,229.294 384.284,213.876 379.896,217.926 379.896,229.294 372.536,229.294 372.536,185.42 "/>
<path class="st1" d="M412.74,210.622c0.188-4.734,3.676-8.42,8.776-8.42c4.96,0,8.12,3.99,8.382,8.42H412.74L412.74,210.622z
	 M437.249,215.217c1.228-9.522-5.222-18.546-15.733-18.546c-9.938,0-16.136,7.734-16.136,16.774c0,9.76,5.869,16.712,16.324,16.712
	c7.285,0,13.483-3.877,15.095-10.819h-6.956c-1.303,3.506-3.882,5.292-8.139,5.292c-6.122,0-8.964-4.426-8.964-9.413H437.249
	L437.249,215.217z"/>
<path class="st1" d="M442.866,197.524h6.901v6.146h0.141c0.834-3.381,5.222-6.999,9.732-6.999c1.678,0,2.129,0.112,2.775,0.183
	v6.756c-1.031-0.123-2.129-0.305-3.159-0.305c-5.035,0-9.039,3.867-9.039,10.876v15.114h-7.35V197.524L442.866,197.524z"/>
<path class="st1" d="M489.831,214.673c0,6.76,5.232,9.4,11.689,9.4c7.09,0,9.733-3.324,9.733-6.634c0-3.38-1.931-4.734-3.797-5.409
	c-3.236-1.168-7.425-1.965-13.754-3.629c-7.867-2.027-10.183-6.573-10.183-11.115c0-8.796,8.513-12.906,16.829-12.906
	c9.621,0,17.683,4.847,17.683,14.007h-8.062c-0.395-5.654-4.389-7.745-9.939-7.745c-3.743,0-8.449,1.295-8.449,5.719
	c0,3.076,2.185,4.791,5.485,5.645c0.704,0.196,10.895,2.709,13.286,3.381c6.066,1.729,8.962,6.643,8.962,11.186
	c0,9.83-9.16,13.767-18.32,13.767c-10.521,0-19.034-4.791-19.23-15.667H489.831L489.831,214.673z"/>
<path class="st1" d="M521.972,197.524h5.549v-9.527h7.351v9.527h6.648v5.223h-6.648v16.965c0,2.879,0.263,4.36,3.545,4.36
	c1.032,0,2.062,0,3.102-0.249v5.416c-1.612,0.112-3.159,0.36-4.782,0.36c-7.669,0-9.095-2.831-9.216-8.11v-18.743h-5.549V197.524
	L521.972,197.524z"/>
<path class="st1" d="M552.546,210.622c0.198-4.734,3.675-8.42,8.775-8.42c4.971,0,8.13,3.99,8.383,8.42H552.546L552.546,210.622z
	 M577.065,215.217c1.228-9.522-5.232-18.546-15.744-18.546c-9.937,0-16.125,7.734-16.125,16.774c0,9.76,5.859,16.712,16.323,16.712
	c7.285,0,13.473-3.877,15.085-10.819h-6.956c-1.294,3.506-3.872,5.292-8.129,5.292c-6.131,0-8.973-4.426-8.973-9.413H577.065
	L577.065,215.217z"/>
<polygon class="st1" points="579.381,197.524 587.388,197.524 595.836,221.92 595.967,221.92 604.096,197.524 611.708,197.524 
	599.773,229.294 591.523,229.294 579.381,197.524 "/>
<path class="st1" d="M616.359,197.524h7.352v31.771h-7.352V197.524L616.359,197.524z M616.359,185.42h7.352v6.634h-7.352V185.42
	L616.359,185.42z"/>
<path class="st1" d="M631.708,197.524h6.977v4.679l0.131,0.112c2.185-3.498,6-5.644,10.378-5.644c7.23,0,11.807,3.684,11.807,10.81
	v21.813h-7.352v-19.97c-0.122-4.974-2.194-7.121-6.516-7.121c-4.903,0-8.072,3.686-8.072,8.349v18.742h-7.352V197.524
	L631.708,197.524z"/>
<path class="st1" d="M312.35,264.66c-1.358-5.043-4.772-8.737-11.484-8.737c-9.882,0-14.008,8.308-14.008,16.727
	c0,8.418,4.126,16.708,14.008,16.708c7.153,0,11.091-5.101,11.738-11.498h7.866c-0.646,10.521-8.447,17.76-19.604,17.76
	c-13.811,0-22.071-10.445-22.071-22.971c0-12.537,8.26-22.981,22.071-22.981c10.388,0.057,18.584,5.52,19.549,14.99H312.35
	L312.35,264.66z"/>
<path class="st1" d="M342.091,289.92c-6.582,0-9.488-5.728-9.488-11.251c0-5.476,2.906-11.177,9.488-11.177
	c6.582,0,9.48,5.7,9.48,11.177C351.572,284.192,348.673,289.92,342.091,289.92L342.091,289.92z M342.091,295.452
	c10.708,0,16.84-7.013,16.84-16.783c0-9.715-6.131-16.71-16.84-16.71c-10.717,0-16.839,6.995-16.839,16.71
	C325.252,288.439,331.374,295.452,342.091,295.452L342.091,295.452z"/>
<path class="st1" d="M365.063,262.804h6.966v4.688l0.121,0.111c2.195-3.496,6.001-5.644,10.39-5.644
	c7.219,0,11.814,3.685,11.814,10.801v21.818h-7.361v-19.96c-0.131-4.988-2.194-7.126-6.516-7.126c-4.903,0-8.063,3.677-8.063,8.344
	v18.742h-7.35V262.804L365.063,262.804z"/>
<path class="st1" d="M407.639,284.387c0.385,4.052,3.61,5.533,7.548,5.533c2.775,0,7.614-0.562,7.417-4.19
	c-0.188-3.685-5.542-4.117-10.905-5.28c-5.411-1.106-10.708-2.945-10.708-9.396c0-6.947,7.876-9.095,13.934-9.095
	c6.844,0,13.041,2.7,13.941,9.761h-7.679c-0.646-3.31-3.543-4.228-6.778-4.228c-2.118,0-6.057,0.486-6.057,3.245
	c0,3.441,5.411,3.937,10.839,5.1c5.353,1.183,10.772,3.02,10.772,9.284c0,7.557-7.998,10.331-14.898,10.331
	c-8.391,0-14.654-3.582-14.776-11.065H407.639L407.639,284.387z"/>
<path class="st1" d="M432.214,262.804h5.55v-9.517h7.361v9.517h6.638v5.232h-6.638v16.96c0,2.879,0.253,4.362,3.553,4.362
	c1.023,0,2.063,0,3.085-0.244v5.409c-1.612,0.121-3.159,0.365-4.772,0.365c-7.679,0-9.085-2.83-9.226-8.119v-18.734h-5.55V262.804
	L432.214,262.804z"/>
<path class="st1" d="M457.06,262.804h6.902v6.15h0.131c0.834-3.375,5.222-6.995,9.741-6.995c1.679,0,2.129,0.115,2.776,0.18v6.759
	c-1.031-0.131-2.13-0.309-3.17-0.309c-5.025,0-9.029,3.873-9.029,10.886v15.104h-7.35V262.804L457.06,262.804z"/>
<path class="st1" d="M509.069,294.579h-7.237v-4.424h-0.131c-1.801,3.198-5.795,5.297-9.48,5.297
	c-8.701,0-12.451-4.181-12.451-12.488v-20.159h7.362v19.483c0,5.588,2.389,7.633,6.383,7.633c6.123,0,8.187-3.761,8.187-8.674
	v-18.441h7.368V294.579L509.069,294.579z"/>
<path class="st1" d="M539.317,273.437c-0.573-3.864-3.544-5.945-7.614-5.945c-3.797,0-9.16,1.894-9.16,11.552
	c0,5.268,2.447,10.876,8.842,10.876c4.256,0,7.22-2.719,7.932-7.257h7.359c-1.359,8.232-6.712,12.789-15.291,12.789
	c-10.455,0-16.193-7.071-16.193-16.407c0-9.602,5.486-17.085,16.456-17.085c7.735,0,14.317,3.685,15.028,11.478H539.317
	L539.317,273.437z"/>
<path class="st1" d="M549.32,262.804h5.552v-9.517h7.352v9.517h6.646v5.232h-6.646v16.96c0,2.879,0.261,4.362,3.553,4.362
	c1.032,0,2.062,0,3.094-0.244v5.409c-1.612,0.121-3.159,0.365-4.771,0.365c-7.68,0-9.106-2.83-9.227-8.119v-18.734h-5.552V262.804
	L549.32,262.804z"/>
<path class="st1" d="M574.356,262.804h7.35v31.774h-7.35V262.804L574.356,262.804z M574.356,250.708h7.35v6.639h-7.35V250.708
	L574.356,250.708z"/>
<path class="st1" d="M604.995,289.92c-6.571,0-9.478-5.728-9.478-11.251c0-5.476,2.907-11.177,9.478-11.177
	c6.592,0,9.489,5.7,9.489,11.177C614.484,284.192,611.588,289.92,604.995,289.92L604.995,289.92z M604.995,295.452
	c10.717,0,16.839-7.013,16.839-16.783c0-9.715-6.122-16.71-16.839-16.71c-10.697,0-16.84,6.995-16.84,16.71
	C588.156,288.439,594.299,295.452,604.995,295.452L604.995,295.452z"/>
<path class="st1" d="M627.967,262.804h6.966v4.688l0.131,0.111c2.194-3.496,6.002-5.644,10.39-5.644
	c7.23,0,11.803,3.685,11.803,10.801v21.818h-7.351v-19.96c-0.13-4.988-2.193-7.126-6.525-7.126c-4.894,0-8.062,3.677-8.062,8.344
	v18.742h-7.352V262.804L627.967,262.804z"/>
</svg>
