<?xml version="1.0" encoding="utf-8"?>
<!-- Generator: Adobe Illustrator 19.0.0, SVG Export Plug-In . SVG Version: 6.00 Build 0)  -->
<svg version="1.1" id="Layer_1" xmlns="http://www.w3.org/2000/svg" xmlns:xlink="http://www.w3.org/1999/xlink" x="0px" y="0px"
	 viewBox="0 0 480 160" style="enable-background:new 0 0 480 160;" xml:space="preserve">
<style type="text/css">
	.Drop_x0020_Shadow{fill:none;}
	.Outer_x0020_Glow_x0020_5_x0020_pt{fill:none;}
	.Blue_x0020_Neon{fill:none;stroke:#8AACDA;stroke-width:7;stroke-linecap:round;stroke-linejoin:round;}
	.Chrome_x0020_Highlight{fill:url(#SVGID_1_);stroke:#FFFFFF;stroke-width:0.3629;stroke-miterlimit:1;}
	.Jive_GS{fill:#FFDD00;}
	.Alyssa_GS{fill:#A6D0E4;}
	.st0{fill:#020202;}
	.st1{fill:#6D6D6D;}
	.st2{fill:#CCCCCC;}
	.st3{fill:#FFFFFF;}
	.st4{fill:#111111;}
</style>
<linearGradient id="SVGID_1_" gradientUnits="userSpaceOnUse" x1="0" y1="0" x2="4.489659e-011" y2="-1">
	<stop  offset="0" style="stop-color:#656565"/>
	<stop  offset="0.618" style="stop-color:#1B1B1B"/>
	<stop  offset="0.6292" style="stop-color:#545454"/>
	<stop  offset="0.9831" style="stop-color:#3E3E3E"/>
</linearGradient>
<g id="XMLID_14_">
	<path id="XMLID_2_" class="st0" d="M188,15.8c-2.1,0-3.6,0.8-4.8,2.3s-1.7,3.7-1.7,6.4c0,5.7,2.2,8.6,6.5,8.6c1.8,0,4-0.5,6.6-1.4
		v4.6c-2.1,0.9-4.5,1.3-7.1,1.3c-3.7,0-6.6-1.1-8.6-3.4s-3-5.5-3-9.8c0-2.7,0.5-5,1.5-7s2.4-3.6,4.2-4.6s4-1.6,6.4-1.6
		c2.5,0,5,0.6,7.5,1.8l-1.8,4.4c-1-0.5-1.9-0.9-2.9-1.2S189,15.8,188,15.8z"/>
	<path id="XMLID_4_" class="st0" d="M212.6,37.3l-1.3-4.3h-6.6l-1.3,4.3h-4.1l6.3-18.1h4.7l6.4,18.1H212.6z M210.4,29.9
		c-1.2-3.9-1.9-6.1-2-6.6c-0.2-0.5-0.3-0.9-0.3-1.2c-0.3,1-1,3.6-2.3,7.8H210.4z"/>
	<path id="XMLID_7_" class="st0" d="M220.4,37.3v-18h3.8v14.8h7.3v3.1H220.4z"/>
	<path id="XMLID_9_" class="st0" d="M242.4,27.2h7.1v9.3c-1.2,0.4-2.2,0.6-3.3,0.8c-1,0.2-2.1,0.2-3.1,0.2c-2.7,0-4.8-0.8-6.2-2.4
		c-1.4-1.6-2.1-3.9-2.1-6.9c0-2.9,0.8-5.2,2.5-6.8s4-2.4,6.9-2.4c1.8,0,3.6,0.4,5.3,1.1l-1.3,3.1c-1.3-0.7-2.7-1-4.1-1
		c-1.6,0-3,0.6-4,1.7c-1,1.1-1.5,2.6-1.5,4.5c0,2,0.4,3.4,1.2,4.5s2,1.5,3.5,1.5c0.8,0,1.6-0.1,2.4-0.2v-3.8h-3.4V27.2z"/>
	<path id="XMLID_11_" class="st0" d="M266.3,37.3l-1.3-4.3h-6.6l-1.3,4.3H253l6.3-18.1h4.7l6.4,18.1H266.3z M264.1,29.9
		c-1.2-3.9-1.9-6.1-2-6.6c-0.2-0.5-0.3-0.9-0.3-1.2c-0.3,1-1,3.6-2.3,7.8H264.1z"/>
	<path id="XMLID_17_" class="st0" d="M278,30.4v6.9h-3.8v-18h5.2c2.4,0,4.3,0.4,5.4,1.3s1.8,2.2,1.8,4.1c0,1.1-0.3,2-0.9,2.8
		c-0.6,0.8-1.4,1.5-2.5,1.9c2.7,4,4.5,6.7,5.3,7.8h-4.2l-4.3-6.9H278z M278,27.3h1.2c1.2,0,2.1-0.2,2.7-0.6s0.9-1,0.9-1.9
		c0-0.9-0.3-1.5-0.9-1.8c-0.6-0.4-1.5-0.5-2.7-0.5H278V27.3z"/>
	<path id="XMLID_20_" class="st0" d="M297.1,26.8l3.8-7.4h4.1l-6,11v7h-3.8v-6.9l-6-11.1h4.1L297.1,26.8z"/>
	<path id="XMLID_22_" class="st0" d="M181.3,73.3V47.6h5.4v25.7H181.3z"/>
	<path id="XMLID_24_" class="st0" d="M210.1,73.3h-4.8l-7.8-13.6h-0.1c0.2,2.4,0.2,4.1,0.2,5.1v8.5h-3.4v-18h4.8l7.8,13.5h0.1
		c-0.1-2.3-0.2-4-0.2-5v-8.5h3.4V73.3z"/>
	<path id="XMLID_26_" class="st0" d="M230.6,64.2c0,3-0.8,5.2-2.5,6.8c-1.7,1.6-4.1,2.4-7.3,2.4h-5.1v-18h5.6c2.9,0,5.2,0.8,6.8,2.3
		C229.8,59.2,230.6,61.4,230.6,64.2z M226.6,64.3c0-3.9-1.7-5.8-5.1-5.8h-2v11.7h1.6C224.8,70.2,226.6,68.2,226.6,64.3z"/>
	<path id="XMLID_29_" class="st0" d="M245.7,73.3h-10.4v-18h10.4v3.1h-6.5v4h6.1v3.1h-6.1v4.6h6.5V73.3z"/>
	<path id="XMLID_31_" class="st0" d="M263.1,61c0,1.9-0.6,3.4-1.8,4.4s-2.9,1.5-5.2,1.5h-1.6v6.4h-3.8v-18h5.7c2.2,0,3.8,0.5,5,1.4
		C262.5,57.7,263.1,59.1,263.1,61z M254.5,63.8h1.3c1.2,0,2.1-0.2,2.6-0.7c0.6-0.5,0.9-1.1,0.9-2c0-0.9-0.2-1.6-0.7-2
		c-0.5-0.4-1.3-0.6-2.3-0.6h-1.7V63.8z"/>
	<path id="XMLID_34_" class="st0" d="M277.8,73.3h-10.4v-18h10.4v3.1h-6.5v4h6.1v3.1h-6.1v4.6h6.5V73.3z"/>
	<path id="XMLID_36_" class="st0" d="M298.7,73.3h-4.8l-7.8-13.6H286c0.2,2.4,0.2,4.1,0.2,5.1v8.5h-3.4v-18h4.8l7.8,13.5h0.1
		c-0.1-2.3-0.2-4-0.2-5v-8.5h3.4V73.3z"/>
	<path id="XMLID_38_" class="st0" d="M319.3,64.2c0,3-0.8,5.2-2.5,6.8c-1.7,1.6-4.1,2.4-7.3,2.4h-5.1v-18h5.6c2.9,0,5.2,0.8,6.8,2.3
		C318.5,59.2,319.3,61.4,319.3,64.2z M315.3,64.3c0-3.9-1.7-5.8-5.1-5.8h-2v11.7h1.6C313.5,70.2,315.3,68.2,315.3,64.3z"/>
	<path id="XMLID_41_" class="st0" d="M334.4,73.3H324v-18h10.4v3.1h-6.5v4h6.1v3.1h-6.1v4.6h6.5V73.3z"/>
	<path id="XMLID_43_" class="st0" d="M355.3,73.3h-4.8l-7.8-13.6h-0.1c0.2,2.4,0.2,4.1,0.2,5.1v8.5h-3.4v-18h4.8l7.8,13.5h0.1
		c-0.1-2.3-0.2-4-0.2-5v-8.5h3.4V73.3z"/>
	<path id="XMLID_45_" class="st0" d="M368,73.3h-3.8V58.5h-4.9v-3.2h13.6v3.2H368V73.3z"/>
	<path id="XMLID_47_" class="st0" d="M198.5,96.2c0,4.2-1.2,7.5-3.6,9.7s-5.9,3.4-10.4,3.4h-7.3V83.6h8.1c4.2,0,7.5,1.1,9.8,3.3
		S198.5,92.3,198.5,96.2z M192.8,96.4c0-5.5-2.4-8.3-7.3-8.3h-2.9v16.7h2.3C190.2,104.8,192.8,102,192.8,96.4z"/>
	<path id="XMLID_50_" class="st0" d="M219.4,91.4V103c0,1.3-0.3,2.5-0.9,3.5s-1.5,1.8-2.6,2.3c-1.1,0.5-2.5,0.8-4,0.8
		c-2.3,0-4.1-0.6-5.4-1.8c-1.3-1.2-1.9-2.8-1.9-4.9V91.4h3.8v11c0,1.4,0.3,2.4,0.8,3.1c0.6,0.6,1.5,1,2.8,1c1.2,0,2.2-0.3,2.7-1
		c0.6-0.7,0.8-1.7,0.8-3.1v-11H219.4z"/>
	<path id="XMLID_52_" class="st0" d="M232.5,109.3l-4.3-14.1h-0.1c0.2,2.9,0.2,4.8,0.2,5.7v8.4h-3.4v-18h5.2l4.3,13.8h0.1l4.5-13.8
		h5.2v18h-3.6v-8.5c0-0.4,0-0.9,0-1.4c0-0.5,0.1-1.9,0.2-4.2h-0.1l-4.6,14.1H232.5z"/>
	<path id="XMLID_54_" class="st0" d="M262.2,97c0,1.9-0.6,3.4-1.8,4.4s-2.9,1.5-5.2,1.5h-1.6v6.4h-3.8v-18h5.7c2.2,0,3.8,0.5,5,1.4
		C261.6,93.7,262.2,95.1,262.2,97z M253.5,99.8h1.3c1.2,0,2.1-0.2,2.6-0.7c0.6-0.5,0.9-1.1,0.9-2c0-0.9-0.2-1.6-0.7-2
		c-0.5-0.4-1.3-0.6-2.3-0.6h-1.7V99.8z"/>
	<path id="XMLID_57_" class="st0" d="M274.2,109.3h-3.8V94.5h-4.9v-3.2H279v3.2h-4.9V109.3z"/>
	<path id="XMLID_59_" class="st0" d="M286.9,102.4v6.9H283v-18h5.2c2.4,0,4.3,0.4,5.4,1.3c1.2,0.9,1.8,2.2,1.8,4.1
		c0,1.1-0.3,2-0.9,2.8c-0.6,0.8-1.4,1.5-2.5,1.9c2.7,4,4.5,6.7,5.3,7.8h-4.2l-4.3-6.9H286.9z M286.9,99.3h1.2c1.2,0,2.1-0.2,2.7-0.6
		c0.6-0.4,0.9-1,0.9-1.9c0-0.9-0.3-1.5-0.9-1.8c-0.6-0.4-1.5-0.5-2.7-0.5h-1.2V99.3z"/>
	<path id="XMLID_62_" class="st0" d="M315.1,91.4V103c0,1.3-0.3,2.5-0.9,3.5s-1.5,1.8-2.6,2.3c-1.1,0.5-2.5,0.8-4,0.8
		c-2.3,0-4.1-0.6-5.4-1.8c-1.3-1.2-1.9-2.8-1.9-4.9V91.4h3.8v11c0,1.4,0.3,2.4,0.8,3.1c0.6,0.6,1.5,1,2.8,1c1.2,0,2.2-0.3,2.7-1
		c0.6-0.7,0.8-1.7,0.8-3.1v-11H315.1z"/>
	<path id="XMLID_64_" class="st0" d="M328.2,94.3c-1.4,0-2.5,0.5-3.3,1.6c-0.8,1.1-1.2,2.6-1.2,4.5c0,4,1.5,6,4.5,6
		c1.3,0,2.8-0.3,4.6-0.9v3.2c-1.5,0.6-3.1,0.9-4.9,0.9c-2.6,0-4.6-0.8-6-2.4c-1.4-1.6-2.1-3.9-2.1-6.8c0-1.9,0.3-3.5,1-4.9
		c0.7-1.4,1.7-2.5,2.9-3.2c1.3-0.8,2.8-1.1,4.5-1.1c1.7,0,3.5,0.4,5.3,1.3l-1.2,3.1c-0.7-0.3-1.3-0.6-2-0.8
		C329.6,94.4,328.9,94.3,328.2,94.3z"/>
	<path id="XMLID_66_" class="st0" d="M352.2,109.3h-4.3l-4.7-7.6l-1.6,1.2v6.4h-3.8v-18h3.8v8.2l1.5-2.1l4.9-6.1h4.2l-6.3,8
		L352.2,109.3z"/>
	<path id="XMLID_68_" class="st0" d="M366.3,109.3h-10.4v-18h10.4v3.1h-6.5v4h6.1v3.1h-6.1v4.6h6.5V109.3z"/>
	<path id="XMLID_70_" class="st0" d="M375.1,102.4v6.9h-3.8v-18h5.2c2.4,0,4.3,0.4,5.4,1.3c1.2,0.9,1.8,2.2,1.8,4.1
		c0,1.1-0.3,2-0.9,2.8c-0.6,0.8-1.4,1.5-2.5,1.9c2.7,4,4.5,6.7,5.3,7.8h-4.2l-4.3-6.9H375.1z M375.1,99.3h1.2c1.2,0,2.1-0.2,2.7-0.6
		c0.6-0.4,0.9-1,0.9-1.9c0-0.9-0.3-1.5-0.9-1.8c-0.6-0.4-1.5-0.5-2.7-0.5h-1.2V99.3z"/>
	<path id="XMLID_73_" class="st0" d="M400.4,104.3c0,1.6-0.6,2.9-1.8,3.8c-1.2,0.9-2.8,1.4-4.9,1.4c-1.9,0-3.6-0.4-5.1-1.1V105
		c1.2,0.5,2.2,0.9,3.1,1.1s1.6,0.3,2.3,0.3c0.8,0,1.5-0.2,1.9-0.5c0.4-0.3,0.7-0.8,0.7-1.4c0-0.4-0.1-0.7-0.3-0.9
		c-0.2-0.3-0.5-0.5-0.9-0.8c-0.4-0.3-1.2-0.7-2.3-1.2c-1.1-0.5-1.9-1-2.5-1.5c-0.5-0.5-1-1-1.3-1.7c-0.3-0.6-0.5-1.4-0.5-2.2
		c0-1.6,0.5-2.8,1.6-3.8c1.1-0.9,2.6-1.4,4.5-1.4c0.9,0,1.8,0.1,2.7,0.3s1.7,0.5,2.7,0.9l-1.2,3c-1-0.4-1.8-0.7-2.4-0.8
		c-0.6-0.2-1.2-0.2-1.9-0.2c-0.7,0-1.3,0.2-1.7,0.5c-0.4,0.3-0.6,0.8-0.6,1.3c0,0.3,0.1,0.6,0.2,0.9c0.2,0.3,0.4,0.5,0.7,0.7
		c0.3,0.2,1.1,0.7,2.4,1.3c1.7,0.8,2.8,1.6,3.5,2.4C400.1,102.2,400.4,103.2,400.4,104.3z"/>
	<path id="XMLID_75_" class="st0" d="M192.9,145.3l-1.9-6.1h-9.4l-1.9,6.1h-5.9l9.1-25.8h6.7l9.1,25.8H192.9z M189.7,134.7
		c-1.7-5.5-2.7-8.7-2.9-9.4s-0.4-1.3-0.5-1.7c-0.4,1.5-1.5,5.2-3.3,11.1H189.7z"/>
	<path id="XMLID_78_" class="st0" d="M214.6,140.3c0,1.6-0.6,2.9-1.8,3.8c-1.2,0.9-2.8,1.4-4.9,1.4c-1.9,0-3.6-0.4-5.1-1.1V141
		c1.2,0.5,2.2,0.9,3.1,1.1s1.6,0.3,2.3,0.3c0.8,0,1.5-0.2,1.9-0.5s0.7-0.8,0.7-1.4c0-0.4-0.1-0.7-0.3-0.9c-0.2-0.3-0.5-0.5-0.9-0.8
		s-1.2-0.7-2.3-1.2c-1.1-0.5-1.9-1-2.5-1.5c-0.5-0.5-1-1-1.3-1.7s-0.5-1.4-0.5-2.2c0-1.6,0.5-2.8,1.6-3.8c1.1-0.9,2.6-1.4,4.5-1.4
		c0.9,0,1.8,0.1,2.7,0.3c0.8,0.2,1.7,0.5,2.7,0.9l-1.2,3c-1-0.4-1.8-0.7-2.4-0.8c-0.6-0.2-1.2-0.2-1.9-0.2c-0.7,0-1.3,0.2-1.7,0.5
		c-0.4,0.3-0.6,0.8-0.6,1.3c0,0.3,0.1,0.6,0.2,0.9c0.2,0.3,0.4,0.5,0.7,0.7c0.3,0.2,1.1,0.7,2.4,1.3c1.7,0.8,2.8,1.6,3.5,2.4
		C214.3,138.2,214.6,139.2,214.6,140.3z"/>
	<path id="XMLID_80_" class="st0" d="M230.1,140.3c0,1.6-0.6,2.9-1.8,3.8c-1.2,0.9-2.8,1.4-4.9,1.4c-1.9,0-3.6-0.4-5.1-1.1V141
		c1.2,0.5,2.2,0.9,3.1,1.1s1.6,0.3,2.3,0.3c0.8,0,1.5-0.2,1.9-0.5s0.7-0.8,0.7-1.4c0-0.4-0.1-0.7-0.3-0.9c-0.2-0.3-0.5-0.5-0.9-0.8
		s-1.2-0.7-2.3-1.2c-1.1-0.5-1.9-1-2.5-1.5c-0.5-0.5-1-1-1.3-1.7s-0.5-1.4-0.5-2.2c0-1.6,0.5-2.8,1.6-3.8c1.1-0.9,2.6-1.4,4.5-1.4
		c0.9,0,1.8,0.1,2.7,0.3c0.8,0.2,1.7,0.5,2.7,0.9l-1.2,3c-1-0.4-1.8-0.7-2.4-0.8c-0.6-0.2-1.2-0.2-1.9-0.2c-0.7,0-1.3,0.2-1.7,0.5
		c-0.4,0.3-0.6,0.8-0.6,1.3c0,0.3,0.1,0.6,0.2,0.9c0.2,0.3,0.4,0.5,0.7,0.7c0.3,0.2,1.1,0.7,2.4,1.3c1.7,0.8,2.8,1.6,3.5,2.4
		C229.7,138.2,230.1,139.2,230.1,140.3z"/>
	<path id="XMLID_82_" class="st0" d="M250.9,136.3c0,3-0.7,5.3-2.2,6.9s-3.6,2.4-6.3,2.4s-4.9-0.8-6.3-2.4s-2.2-3.9-2.2-6.9
		s0.7-5.3,2.2-6.9c1.5-1.6,3.6-2.4,6.4-2.4c2.8,0,4.9,0.8,6.3,2.4C250.1,131.1,250.9,133.3,250.9,136.3z M237.7,136.3
		c0,2,0.4,3.5,1.1,4.5c0.8,1,1.9,1.5,3.4,1.5c3,0,4.6-2,4.6-6.1c0-4.1-1.5-6.1-4.5-6.1c-1.5,0-2.7,0.5-3.4,1.5
		C238.1,132.8,237.7,134.3,237.7,136.3z"/>
	<path id="XMLID_85_" class="st0" d="M263.4,130.3c-1.4,0-2.5,0.5-3.3,1.6s-1.2,2.6-1.2,4.5c0,4,1.5,6,4.5,6c1.3,0,2.8-0.3,4.6-0.9
		v3.2c-1.5,0.6-3.1,0.9-4.9,0.9c-2.6,0-4.6-0.8-6-2.4c-1.4-1.6-2.1-3.9-2.1-6.8c0-1.9,0.3-3.5,1-4.9c0.7-1.4,1.7-2.5,2.9-3.2
		c1.3-0.8,2.8-1.1,4.5-1.1c1.7,0,3.5,0.4,5.3,1.3l-1.2,3.1c-0.7-0.3-1.3-0.6-2-0.8C264.7,130.4,264,130.3,263.4,130.3z"/>
	<path id="XMLID_87_" class="st0" d="M272.8,145.3v-18h3.8v18H272.8z"/>
	<path id="XMLID_89_" class="st0" d="M293.7,145.3l-1.3-4.3h-6.6l-1.3,4.3h-4.1l6.3-18.1h4.7l6.4,18.1H293.7z M291.4,137.9
		c-1.2-3.9-1.9-6.1-2-6.6s-0.3-0.9-0.3-1.2c-0.3,1.1-1,3.6-2.3,7.8H291.4z"/>
	<path id="XMLID_92_" class="st0" d="M306.9,145.3H303v-14.8h-4.9v-3.2h13.6v3.2h-4.9V145.3z"/>
	<path id="XMLID_94_" class="st0" d="M315.7,145.3v-18h3.8v18H315.7z"/>
	<path id="XMLID_96_" class="st0" d="M341.5,136.3c0,3-0.7,5.3-2.2,6.9s-3.6,2.4-6.3,2.4s-4.9-0.8-6.3-2.4s-2.2-3.9-2.2-6.9
		s0.7-5.3,2.2-6.9c1.5-1.6,3.6-2.4,6.4-2.4c2.8,0,4.9,0.8,6.3,2.4C340.8,131.1,341.5,133.3,341.5,136.3z M328.4,136.3
		c0,2,0.4,3.5,1.1,4.5c0.8,1,1.9,1.5,3.4,1.5c3,0,4.6-2,4.6-6.1c0-4.1-1.5-6.1-4.5-6.1c-1.5,0-2.7,0.5-3.4,1.5
		C328.8,132.8,328.4,134.3,328.4,136.3z"/>
	<path id="XMLID_99_" class="st0" d="M362.3,145.3h-4.8l-7.8-13.6h-0.1c0.2,2.4,0.2,4.1,0.2,5.1v8.5h-3.4v-18h4.8l7.8,13.5h0.1
		c-0.1-2.3-0.2-4-0.2-5v-8.5h3.4V145.3z"/>
</g>
<circle id="XMLID_16_" class="st1" cx="80" cy="80" r="48"/>
<circle id="XMLID_15_" class="st2" cx="80" cy="80" r="36"/>
<g id="minor-rose">
	<g id="light-minor">
		<path id="light-northeast" inkscape:connector-curvature="0" class="st3" d="M80,80l24-24L80,67.5"/>
		<path id="light-southeast" inkscape:connector-curvature="0" class="st3" d="M80,80l24,24L92.5,80"/>
		<path id="light-southwest" inkscape:connector-curvature="0" class="st3" d="M80,80l-24,24l24-11.5"/>
		<path id="light-northwest" inkscape:connector-curvature="0" class="st3" d="M80,80L56,56l11.5,24"/>
	</g>
	<g id="dark-minor">
		<path id="dark-northeast" inkscape:connector-curvature="0" class="st4" d="M80,80l24-24L92.5,80"/>
		<path id="dark-southeast" inkscape:connector-curvature="0" class="st4" d="M80,80l24,24L80,92.5"/>
		<path id="dark-southwest" inkscape:connector-curvature="0" class="st4" d="M80,80l-24,24l11.5-24"/>
		<path id="dark-northwest" inkscape:connector-curvature="0" class="st4" d="M80,80L56,56l24,11.5"/>
	</g>
</g>
<g id="major-rose">
	<g id="light-major">
		<path id="light-north" inkscape:connector-curvature="0" class="st3" d="M80,80L67.7,67.7L80,0"/>
		<path id="light-east" inkscape:connector-curvature="0" class="st3" d="M80,80l12.3-12.3L160,80"/>
		<path id="light-south" inkscape:connector-curvature="0" class="st3" d="M80,80l12.3,12.3L80,160"/>
		<path id="light-west" inkscape:connector-curvature="0" class="st3" d="M80,80L67.7,92.3L0,80"/>
	</g>
	<g id="dark-major">
		<path id="dark-north" inkscape:connector-curvature="0" class="st4" d="M80,80l12.3-12.3L80,0"/>
		<path id="dark-east" inkscape:connector-curvature="0" class="st4" d="M80,80l12.3,12.3L160,80"/>
		<path id="dark-south" inkscape:connector-curvature="0" class="st4" d="M80,80L67.7,92.3L80,160"/>
		<path id="dark-west" inkscape:connector-curvature="0" class="st4" d="M80,80L67.7,67.7L0,80"/>
	</g>
</g>
<g id="XMLID_1_">
</g>
<g id="XMLID_101_">
</g>
<g id="XMLID_102_">
</g>
<g id="XMLID_103_">
</g>
<g id="XMLID_104_">
</g>
<g id="XMLID_105_">
</g>
<g id="XMLID_106_">
</g>
<g id="XMLID_107_">
</g>
<g id="XMLID_109_">
</g>
<g id="XMLID_110_">
</g>
<g id="XMLID_111_">
</g>
<g id="XMLID_115_">
</g>
<g id="XMLID_116_">
</g>
<g id="XMLID_117_">
</g>
<g id="XMLID_118_">
</g>
</svg>
