<?xml version="1.0" encoding="utf-8"?>
<!-- Generator: Adobe Illustrator 19.0.0, SVG Export Plug-In . SVG Version: 6.00 Build 0)  -->
<svg version="1.1" xmlns="http://www.w3.org/2000/svg" xmlns:xlink="http://www.w3.org/1999/xlink" x="0px" y="0px"
	 viewBox="0 0 1440 720" style="enable-background:new 0 0 1440 720;" xml:space="preserve">
<style type="text/css">
	.Drop_x0020_Shadow{fill:none;}
	.Outer_x0020_Glow_x0020_5_x0020_pt{fill:none;}
	.Blue_x0020_Neon{fill:none;stroke:#8AACDA;stroke-width:7;stroke-linecap:round;stroke-linejoin:round;}
	.Chrome_x0020_Highlight{fill:url(#SVGID_1_);stroke:#FFFFFF;stroke-width:0.3629;stroke-miterlimit:1;}
	.Jive_GS{fill:#FFDD00;}
	.Alyssa_GS{fill:#A6D0E4;}
	.st0{display:none;}
	.st1{display:inline;fill:#CCCCCC;}
	.st2{display:inline;fill:#FFFFFF;}
	.st3{display:inline;fill:#E0E0E0;}
	.st4{fill:#FFFFFF;}
	.st5{fill:#D32F2F;}
</style>
<linearGradient id="SVGID_1_" gradientUnits="userSpaceOnUse" x1="240" y1="80" x2="240" y2="79">
	<stop  offset="0" style="stop-color:#656565"/>
	<stop  offset="0.618" style="stop-color:#1B1B1B"/>
	<stop  offset="0.6292" style="stop-color:#545454"/>
	<stop  offset="0.9831" style="stop-color:#3E3E3E"/>
</linearGradient>
<g id="Layer_2">
</g>
<g id="Layer_1" class="st0">
	<g id="XMLID_31_">
		<polygon id="XMLID_95_" class="st1" points="-93.632,571.75 -57.654,401.75 -81.792,310.591 167.101,310.591 97.315,412.646 
			63.362,571.75 		"/>
		<path id="XMLID_92_" class="st2" d="M112.139,339.591L70.148,401l-30.25,141.75h-97.75l30-141.75l-16.261-61.409H112.139
			 M222.062,281.591H112.139H-44.114h-75.358l19.29,72.847l12.727,48.061l-27.141,128.242l-14.817,70.009h71.56h97.75h46.928
			l9.794-45.895l27.862-130.561l35.533-51.964L222.062,281.591L222.062,281.591z"/>
	</g>
	<g id="XMLID_29_">
		<polygon id="XMLID_84_" class="st1" points="168.373,571.25 204.351,401.25 180.212,310.091 429.104,310.091 359.32,412.146 
			325.367,571.25 		"/>
		<path id="XMLID_49_" class="st2" d="M374.143,339.091L332.152,400.5l-30.25,141.75h-97.75l30-141.75l-16.261-61.409H374.143
			 M484.067,281.091H374.143H217.891h-75.358l19.29,72.847l12.727,48.061l-27.141,128.242l-14.817,70.009h71.56h97.75h46.929
			l9.794-45.895l27.862-130.561l35.533-51.964L484.067,281.091L484.067,281.091z"/>
	</g>
	<g id="XMLID_30_">
		<polygon id="XMLID_96_" class="st3" points="-66.434,368.592 -124.781,148.25 38.229,148.25 51.472,228 97.379,148.25 
			278.109,148.25 127.44,368.592 		"/>
		<path id="XMLID_79_" class="st2" d="M223.148,177.25L112.139,339.591H-44.113L-87.102,177.25h100.75l22.5,135.5l78-135.5H223.148
			 M333.072,119.25H223.148h-109H80.612l-13.816,24l-3.985-24H13.648h-100.75h-75.358l19.29,72.847l42.989,162.341l11.427,43.153
			h44.64h156.252h30.603l17.274-25.262l111.009-162.341L333.072,119.25L333.072,119.25z"/>
	</g>
	<g id="XMLID_28_">
		<polygon id="XMLID_60_" class="st3" points="195.571,368.092 137.224,147.75 300.234,147.75 313.477,227.5 359.384,147.75 
			540.114,147.75 389.444,368.092 		"/>
		<path id="XMLID_57_" class="st2" d="M485.152,176.75L374.143,339.091H217.891L174.902,176.75h100.75l22.5,135.5l78-135.5H485.152
			 M595.076,118.75H485.152h-109h-33.536l-13.816,24l-3.985-24h-49.163h-100.75H99.545l19.29,72.847l42.989,162.341l11.427,43.153
			h44.64h156.252h30.603l17.274-25.262l111.009-162.341L595.076,118.75L595.076,118.75z"/>
	</g>
</g>
<g id="Layer_3">
	<rect id="XMLID_1_" class="st4" width="1440" height="722.21"/>
	<g id="XMLID_27_">
		<path id="XMLID_45_" class="st5" d="M295.384,477.137c-19.078,0-33.706-5.996-43.879-17.988
			c-10.178-11.992-15.262-30.159-15.262-54.509c0-23.498,2.942-45.63,8.819-66.401H135.753c-4.944,22.882-7.438,46.827-7.438,71.852
			c0,49.424,12.763,87.623,38.292,114.604c25.525,26.982,61.91,40.473,109.154,40.473c43.062,0,83.032-8.176,119.919-24.529v-88.031
			c-20.896,8.905-39.067,15.22-54.509,18.942C325.725,475.276,310.463,477.137,295.384,477.137z"/>
	</g>
	<g id="XMLID_16_">
		<polygon id="XMLID_43_" class="st5" points="484.79,338.24 437.979,559.718 546.179,559.718 592.989,338.24 		"/>
	</g>
	<g id="XMLID_19_">
		<polygon id="XMLID_41_" class="st5" points="1199.374,338.24 1201.85,400.008 1121.995,400.008 1150.213,338.24 1051.009,338.24 
			938.301,559.718 1048.954,559.718 1083.021,485.041 1205.121,485.041 1207.846,559.718 1311.685,559.718 1293.052,338.24 		"/>
	</g>
	<g id="XMLID_15_">
		<polygon id="XMLID_44_" class="st5" points="630.395,161.26 522.195,161.26 484.79,338.24 592.989,338.24 		"/>
	</g>
	<g id="XMLID_18_">
		<path id="XMLID_23_" class="st5" d="M862.374,338.24c-1.574,21.841-5.682,41.753-12.343,59.724
			c-8.721,23.532-20.943,41.657-36.657,54.372c-15.718,12.72-33.57,19.078-53.555,19.078h-18.805l27.968-133.174h-106.8
			l-46.81,221.478h128.368c46.877,0,87.44-9.901,121.691-29.707c34.247-19.802,60.368-48.376,78.356-85.715
			c14.817-30.756,23.516-66.115,26.128-106.056H862.374z"/>
	</g>
	<g id="XMLID_33_">
		<path id="XMLID_40_" class="st5" d="M787.891,248.201h19.351c17.622,0,31.342,5.86,41.154,17.579
			c9.812,11.719,14.717,28.936,14.717,51.647c0,7.125-0.252,14.058-0.739,20.813h107.539c0.559-8.548,0.854-17.295,0.854-26.264
			c0-47.968-13.763-85.076-41.29-111.334c-27.527-26.254-66.364-39.383-116.512-39.383H699.587l-37.406,176.98h106.8
			L787.891,248.201z"/>
	</g>
	<rect id="XMLID_2_" x="383.769" y="340.012" class="st4" width="811.296" height="60"/>
	<g id="XMLID_25_">
		<path id="XMLID_42_" class="st5" d="M249.572,324.449c8.994-24.891,21.395-44.425,37.202-58.597
			c15.807-14.172,33.523-21.258,53.146-21.258c15.262,0,29.98,2.5,44.152,7.495c14.172,4.999,29.707,12.494,46.605,22.485
			l40.336-83.126c-39.246-23.801-82.947-35.703-131.093-35.703c-40.882,0-77.177,10.267-108.881,30.797
			c-29.977,19.413-58.514,54.754-75.222,91.302c-8.894,19.45-15.62,39.84-20.225,61.149H244.9
			C246.293,334.069,247.848,329.22,249.572,324.449z"/>
	</g>
	<g id="XMLID_20_">
		<path id="XMLID_37_" class="st5" d="M1181.137,271.55c6.72-14.534,12.264-29.614,16.625-45.242
			c-0.728,10.178-1.09,22.076-1.09,35.703l0.545,23.439l2.157,53.791h93.678l-14.89-176.98h-137.089l-90.064,176.98h99.204
			L1181.137,271.55z"/>
	</g>
	<g id="XMLID_3_">
	</g>
	<g id="XMLID_4_">
	</g>
	<g id="XMLID_5_">
	</g>
	<g id="XMLID_6_">
	</g>
	<g id="XMLID_7_">
	</g>
	<g id="XMLID_8_">
	</g>
	<g id="XMLID_21_">
	</g>
	<g id="XMLID_24_">
	</g>
	<g id="XMLID_26_">
	</g>
	<g id="XMLID_34_">
	</g>
	<g id="XMLID_36_">
	</g>
	<g id="XMLID_38_">
	</g>
	<g id="XMLID_46_">
	</g>
	<g id="XMLID_48_">
	</g>
	<g id="XMLID_50_">
	</g>
</g>
</svg>
