<?xml version="1.0" encoding="utf-8"?>
<!-- Generator: Adobe Illustrator 19.0.0, SVG Export Plug-In . SVG Version: 6.00 Build 0)  -->
<svg version="1.1" xmlns="http://www.w3.org/2000/svg" xmlns:xlink="http://www.w3.org/1999/xlink" x="0px" y="0px"
	 viewBox="0 0 1440 960" style="enable-background:new 0 0 1440 960;" xml:space="preserve">
<style type="text/css">
	.Drop_x0020_Shadow{fill:none;}
	.Outer_x0020_Glow_x0020_5_x0020_pt{fill:none;}
	.Blue_x0020_Neon{fill:none;stroke:#8AACDA;stroke-width:7;stroke-linecap:round;stroke-linejoin:round;}
	.Chrome_x0020_Highlight{fill:url(#SVGID_1_);stroke:#FFFFFF;stroke-width:0.3629;stroke-miterlimit:1;}
	.Jive_GS{fill:#FFDD00;}
	.Alyssa_GS{fill:#A6D0E4;}
	.st0{display:none;}
	.st1{display:inline;fill:#CCCCCC;}
	.st2{display:inline;fill:#FFFFFF;}
	.st3{display:inline;fill:#E0E0E0;}
	.st4{fill:#D32F2F;}
	.st5{fill:#FFFFFF;}
</style>
<linearGradient id="SVGID_1_" gradientUnits="userSpaceOnUse" x1="240" y1="200" x2="240" y2="199">
	<stop  offset="0" style="stop-color:#656565"/>
	<stop  offset="0.618" style="stop-color:#1B1B1B"/>
	<stop  offset="0.6292" style="stop-color:#545454"/>
	<stop  offset="0.9831" style="stop-color:#3E3E3E"/>
</linearGradient>
<g id="Layer_2">
</g>
<g id="Layer_1" class="st0">
	<g id="XMLID_31_">
		<polygon id="XMLID_95_" class="st1" points="-93.6,691.8 -57.7,521.8 -81.8,430.6 167.1,430.6 97.3,532.6 63.4,691.8 		"/>
		<path id="XMLID_92_" class="st2" d="M112.1,459.6l-42,61.4L39.9,662.8h-97.8l30-141.8l-16.3-61.4H112.1 M222.1,401.6H112.1H-44.1
			h-75.4l19.3,72.8l12.7,48.1l-27.1,128.2l-14.8,70h71.6h97.8h46.9l9.8-45.9l27.9-130.6l35.5-52L222.1,401.6L222.1,401.6z"/>
	</g>
	<g id="XMLID_29_">
		<polygon id="XMLID_84_" class="st1" points="168.4,691.3 204.4,521.3 180.2,430.1 429.1,430.1 359.3,532.1 325.4,691.3 		"/>
		<path id="XMLID_49_" class="st2" d="M374.1,459.1l-42,61.4l-30.3,141.8h-97.7l30-141.8l-16.3-61.4H374.1 M484.1,401.1H374.1H217.9
			h-75.4l19.3,72.8l12.7,48.1l-27.1,128.2l-14.8,70h71.6h97.7h46.9l9.8-45.9l27.9-130.6l35.5-52L484.1,401.1L484.1,401.1z"/>
	</g>
	<g id="XMLID_30_">
		<polygon id="XMLID_96_" class="st3" points="-66.4,488.6 -124.8,268.3 38.2,268.3 51.5,348 97.4,268.3 278.1,268.3 127.4,488.6 		
			"/>
		<path id="XMLID_79_" class="st2" d="M223.1,297.3l-111,162.3H-44.1l-43-162.3H13.6l22.5,135.5l78-135.5H223.1 M333.1,239.3H223.1
			h-109H80.6l-13.8,24l-4-24H13.6H-87.1h-75.4l19.3,72.8l43,162.3l11.4,43.2h44.6h156.3h30.6l17.3-25.3L271,330L333.1,239.3
			L333.1,239.3z"/>
	</g>
	<g id="XMLID_28_">
		<polygon id="XMLID_60_" class="st3" points="195.6,488.1 137.2,267.8 300.2,267.8 313.5,347.5 359.4,267.8 540.1,267.8 
			389.4,488.1 		"/>
		<path id="XMLID_57_" class="st2" d="M485.2,296.8l-111,162.3H217.9l-43-162.3h100.8l22.5,135.5l78-135.5H485.2 M595.1,238.8H485.2
			h-109h-33.5l-13.8,24l-4-24h-49.2H174.9H99.5l19.3,72.8l43,162.3l11.4,43.2h44.6h156.3h30.6l17.3-25.3l111-162.3L595.1,238.8
			L595.1,238.8z"/>
	</g>
</g>
<g id="Layer_3">
	<rect id="XMLID_1_" class="st4" width="1440" height="962.2"/>
	<g id="XMLID_16_">
		<polygon id="XMLID_45_" class="st5" points="484.8,458.2 438,679.7 546.2,679.7 593,458.2 		"/>
	</g>
	<g id="XMLID_3_">
		<path id="XMLID_65_" class="st5" d="M341.2,591.6c15.4-3.7,33.6-10,54.5-18.9v88c-36.9,16.4-76.9,24.5-119.9,24.5
			c-47.2,0-83.6-13.5-109.2-40.5c-25.5-27-38.3-65.2-38.3-114.6c0-25,2.5-49,7.4-71.9h109.3c-5.9,20.8-8.8,42.9-8.8,66.4
			c0,24.4,5.1,42.5,15.3,54.5c10.2,12,24.8,18,43.9,18C310.5,597.1,325.7,595.3,341.2,591.6z M249.7,443.7
			c9-24.9,21.4-44.4,37.2-58.6c15.8-14.2,33.5-21.3,53.1-21.3c15.3,0,30,2.5,44.2,7.5c14.2,5,29.7,12.5,46.6,22.5l40.3-83.1
			c-39.2-23.8-82.9-35.7-131.1-35.7c-40.9,0-77.2,10.3-108.9,30.8c-31.7,20.5-56.8,51-75.2,91.3c-8.9,19.5-15.6,39.8-20.2,61.1
			h109.3C246.5,453.3,248,448.5,249.7,443.7z"/>
	</g>
	<g id="XMLID_15_">
		<polygon id="XMLID_43_" class="st5" points="630.4,281.3 522.2,281.3 484.8,458.2 593,458.2 		"/>
	</g>
	<g id="XMLID_4_">
		<path id="XMLID_70_" class="st5" d="M1293.1,458.2l18.6,221.5h-103.8l-2.7-74.7H1083l-34.1,74.7H938.3L1051,458.2h99.2L1122,520
			h79.9l-2.5-61.8H1293.1z M1181.1,390.5c6.7-14.5,12.3-29.6,16.6-45.2c-0.7,10.2-1.1,22.1-1.1,35.7l0.5,23.4l2.2,53.8h93.7
			l-14.9-177h-137.1l-90.1,177h99.2L1181.1,390.5z"/>
	</g>
	<g id="XMLID_18_">
		<path id="XMLID_41_" class="st5" d="M862.4,458.2c-1.6,21.8-5.7,41.8-12.3,59.7c-8.7,23.5-20.9,41.7-36.7,54.4
			c-15.7,12.7-33.6,19.1-53.6,19.1H741l28-133.2H662.2l-46.8,221.5h128.4c46.9,0,87.4-9.9,121.7-29.7c34.2-19.8,60.4-48.4,78.4-85.7
			c14.8-30.8,23.5-66.1,26.1-106.1H862.4z"/>
	</g>
	<g id="XMLID_33_">
		<path id="XMLID_40_" class="st5" d="M787.9,368.2h19.4c17.6,0,31.3,5.9,41.2,17.6c9.8,11.7,14.7,28.9,14.7,51.6
			c0,7.1-0.3,14.1-0.7,20.8h107.5c0.6-8.5,0.9-17.3,0.9-26.3c0-48-13.8-85.1-41.3-111.3c-27.5-26.3-66.4-39.4-116.5-39.4H699.6
			l-37.4,177H769L787.9,368.2z"/>
	</g>
	<rect id="XMLID_2_" x="383.8" y="460" class="st4" width="811.3" height="60"/>
	<g id="XMLID_109_">
	</g>
	<g id="XMLID_110_">
	</g>
	<g id="XMLID_111_">
	</g>
	<g id="XMLID_112_">
	</g>
	<g id="XMLID_113_">
	</g>
	<g id="XMLID_114_">
	</g>
	<g id="XMLID_115_">
	</g>
	<g id="XMLID_116_">
	</g>
	<g id="XMLID_117_">
	</g>
	<g id="XMLID_118_">
	</g>
	<g id="XMLID_119_">
	</g>
	<g id="XMLID_120_">
	</g>
	<g id="XMLID_121_">
	</g>
	<g id="XMLID_122_">
	</g>
	<g id="XMLID_123_">
	</g>
</g>
</svg>
