<?xml version="1.0" encoding="utf-8"?>
<!-- Generator: Adobe Illustrator 19.0.0, SVG Export Plug-In . SVG Version: 6.00 Build 0)  -->
<svg version="1.1" xmlns="http://www.w3.org/2000/svg" xmlns:xlink="http://www.w3.org/1999/xlink" x="0px" y="0px"
	 viewBox="0 0 1440 1080" style="enable-background:new 0 0 1440 1080;" xml:space="preserve">
<style type="text/css">
	.Drop_x0020_Shadow{fill:none;}
	.Outer_x0020_Glow_x0020_5_x0020_pt{fill:none;}
	.Blue_x0020_Neon{fill:none;stroke:#8AACDA;stroke-width:7;stroke-linecap:round;stroke-linejoin:round;}
	.Chrome_x0020_Highlight{fill:url(#SVGID_1_);stroke:#FFFFFF;stroke-width:0.3629;stroke-miterlimit:1;}
	.Jive_GS{fill:#FFDD00;}
	.Alyssa_GS{fill:#A6D0E4;}
	.st0{display:none;}
	.st1{display:inline;fill:#CCCCCC;}
	.st2{display:inline;fill:#FFFFFF;}
	.st3{display:inline;fill:#E0E0E0;}
	.st4{fill:#FFFFFF;}
	.st5{fill:#D32F2F;}
</style>
<linearGradient id="SVGID_1_" gradientUnits="userSpaceOnUse" x1="240" y1="260" x2="240" y2="259">
	<stop  offset="0" style="stop-color:#656565"/>
	<stop  offset="0.618" style="stop-color:#1B1B1B"/>
	<stop  offset="0.6292" style="stop-color:#545454"/>
	<stop  offset="0.9831" style="stop-color:#3E3E3E"/>
</linearGradient>
<g id="Layer_2">
</g>
<g id="Layer_1" class="st0">
	<g id="XMLID_31_">
		<polygon id="XMLID_95_" class="st1" points="-93.6,751.8 -57.7,581.8 -81.8,490.6 167.1,490.6 97.3,592.6 63.4,751.8 		"/>
		<path id="XMLID_92_" class="st2" d="M112.1,519.6l-42,61.4L39.9,722.8h-97.8l30-141.8l-16.3-61.4H112.1 M222.1,461.6H112.1H-44.1
			h-75.4l19.3,72.8l12.7,48.1l-27.1,128.2l-14.8,70h71.6h97.8h46.9l9.8-45.9l27.9-130.6l35.5-52L222.1,461.6L222.1,461.6z"/>
	</g>
	<g id="XMLID_29_">
		<polygon id="XMLID_84_" class="st1" points="168.4,751.3 204.4,581.3 180.2,490.1 429.1,490.1 359.3,592.1 325.4,751.3 		"/>
		<path id="XMLID_49_" class="st2" d="M374.1,519.1l-42,61.4l-30.3,141.8h-97.7l30-141.8l-16.3-61.4H374.1 M484.1,461.1H374.1H217.9
			h-75.4l19.3,72.8l12.7,48.1l-27.1,128.2l-14.8,70h71.6h97.7h46.9l9.8-45.9l27.9-130.6l35.5-52L484.1,461.1L484.1,461.1z"/>
	</g>
	<g id="XMLID_30_">
		<polygon id="XMLID_96_" class="st3" points="-66.4,548.6 -124.8,328.3 38.2,328.3 51.5,408 97.4,328.3 278.1,328.3 127.4,548.6 		
			"/>
		<path id="XMLID_79_" class="st2" d="M223.1,357.3l-111,162.3H-44.1l-43-162.3H13.6l22.5,135.5l78-135.5H223.1 M333.1,299.3H223.1
			h-109H80.6l-13.8,24l-4-24H13.6H-87.1h-75.4l19.3,72.8l43,162.3l11.4,43.2h44.6h156.3h30.6l17.3-25.3L271,390L333.1,299.3
			L333.1,299.3z"/>
	</g>
	<g id="XMLID_28_">
		<polygon id="XMLID_60_" class="st3" points="195.6,548.1 137.2,327.8 300.2,327.8 313.5,407.5 359.4,327.8 540.1,327.8 
			389.4,548.1 		"/>
		<path id="XMLID_57_" class="st2" d="M485.2,356.8l-111,162.3H217.9l-43-162.3h100.8l22.5,135.5l78-135.5H485.2 M595.1,298.8H485.2
			h-109h-33.5l-13.8,24l-4-24h-49.2H174.9H99.5l19.3,72.8l43,162.3l11.4,43.2h44.6h156.3h30.6l17.3-25.3l111-162.3L595.1,298.8
			L595.1,298.8z"/>
	</g>
</g>
<g id="Layer_3">
	<rect id="XMLID_1_" y="180" class="st4" width="1440" height="722.2"/>
	<g id="XMLID_27_">
		<path id="XMLID_45_" class="st5" d="M295.4,657.1c-19.1,0-33.7-6-43.9-18c-10.2-12-15.3-30.2-15.3-54.5c0-23.5,2.9-45.6,8.8-66.4
			H135.8c-4.9,22.9-7.4,46.8-7.4,71.9c0,49.4,12.8,87.6,38.3,114.6c25.5,27,61.9,40.5,109.2,40.5c43.1,0,83-8.2,119.9-24.5v-88
			c-20.9,8.9-39.1,15.2-54.5,18.9C325.7,655.3,310.5,657.1,295.4,657.1z"/>
	</g>
	<g id="XMLID_16_">
		<polygon id="XMLID_43_" class="st5" points="484.8,518.2 438,739.7 546.2,739.7 593,518.2 		"/>
	</g>
	<g id="XMLID_19_">
		<polygon id="XMLID_41_" class="st5" points="1199.4,518.2 1201.9,580 1122,580 1150.2,518.2 1051,518.2 938.3,739.7 1049,739.7 
			1083,665 1205.1,665 1207.8,739.7 1311.7,739.7 1293.1,518.2 		"/>
	</g>
	<g id="XMLID_25_">
		<path id="XMLID_38_" class="st5" d="M249.7,503.7c9-24.9,21.4-44.4,37.2-58.6c15.8-14.2,33.5-21.3,53.1-21.3
			c15.3,0,30,2.5,44.2,7.5c14.2,5,29.7,12.5,46.6,22.5l40.3-83.1c-39.2-23.8-82.9-35.7-131.1-35.7c-40.9,0-77.2,10.3-108.9,30.8
			c-31.7,20.5-56.8,51-75.2,91.3c-8.9,19.5-15.6,39.8-20.2,61.1h109.3C246.5,513.3,248,508.5,249.7,503.7z"/>
	</g>
	<g id="XMLID_15_">
		<polygon id="XMLID_36_" class="st5" points="630.4,341.3 522.2,341.3 484.8,518.2 593,518.2 		"/>
	</g>
	<g id="XMLID_20_">
		<path id="XMLID_26_" class="st5" d="M1181.1,450.5c6.7-14.5,12.3-29.6,16.6-45.2c-0.7,10.2-1.1,22.1-1.1,35.7l0.5,23.4l2.2,53.8
			h93.7l-14.9-177h-137.1l-90.1,177h99.2L1181.1,450.5z"/>
	</g>
	<g id="XMLID_18_">
		<path id="XMLID_23_" class="st5" d="M862.4,518.2c-1.6,21.8-5.7,41.8-12.3,59.7c-8.7,23.5-20.9,41.7-36.7,54.4
			c-15.7,12.7-33.6,19.1-53.6,19.1H741l28-133.2H662.2l-46.8,221.5h128.4c46.9,0,87.4-9.9,121.7-29.7c34.2-19.8,60.4-48.4,78.4-85.7
			c14.8-30.8,23.5-66.1,26.1-106.1H862.4z"/>
	</g>
	<g id="XMLID_33_">
		<path id="XMLID_21_" class="st5" d="M787.9,428.2h19.4c17.6,0,31.3,5.9,41.2,17.6c9.8,11.7,14.7,28.9,14.7,51.6
			c0,7.1-0.3,14.1-0.7,20.8h107.5c0.6-8.5,0.9-17.3,0.9-26.3c0-48-13.8-85.1-41.3-111.3c-27.5-26.3-66.4-39.4-116.5-39.4H699.6
			l-37.4,177H769L787.9,428.2z"/>
	</g>
	<rect id="XMLID_2_" x="383.8" y="520" class="st4" width="811.3" height="60"/>
	<g id="XMLID_81_">
	</g>
	<g id="XMLID_83_">
	</g>
	<g id="XMLID_85_">
	</g>
	<g id="XMLID_86_">
	</g>
	<g id="XMLID_87_">
	</g>
	<g id="XMLID_89_">
	</g>
	<g id="XMLID_90_">
	</g>
	<g id="XMLID_97_">
	</g>
	<g id="XMLID_98_">
	</g>
	<g id="XMLID_99_">
	</g>
	<g id="XMLID_100_">
	</g>
	<g id="XMLID_101_">
	</g>
	<g id="XMLID_102_">
	</g>
	<g id="XMLID_103_">
	</g>
	<g id="XMLID_104_">
	</g>
</g>
</svg>
